<?xml version="1.0" encoding="UTF-8"?>
<svg width="372px" height="52px" viewBox="0 0 372 52" version="1.1" xmlns="http://www.w3.org/2000/svg" xmlns:xlink="http://www.w3.org/1999/xlink">
    <title>Group 7</title>
    <defs>
        <path d="M0,24.1005673 C0,37.4131567 10.8348832,48.2055405 24.1981291,48.2055405 L24.1981291,48.2055405 C28.06438,48.2055405 31.66484,47.3221468 34.9057008,45.7161766 L34.9057008,45.7161766 C34.9057008,45.7161766 34.9682398,45.6853349 34.9347367,45.6236516 L34.9347367,45.6236516 C34.9079343,45.5663742 34.8476288,45.5972159 34.8476288,45.5972159 L34.8476288,45.5972159 C32.3550026,46.5731346 29.6993283,47.0886312 26.8649711,47.0886312 L26.8649711,47.0886312 C14.6966669,47.0886312 4.83560546,37.2325126 4.83560546,25.0720801 L4.83560546,25.0720801 C4.83560546,12.9138506 14.6966669,3.05993491 26.8649711,3.05993491 L26.8649711,3.05993491 C35.4975878,3.05993491 42.9665322,7.97918233 46.5781599,15.2093525 L46.5781599,15.2093525 C46.5781599,15.2093525 46.6094294,15.2754418 46.6630343,15.255615 L46.6630343,15.255615 C46.7233398,15.2335853 46.6898367,15.1696989 46.6898367,15.1696989 L46.6898367,15.1696989 C43.1385145,6.25645439 34.4098558,0 24.1981291,0 L24.1981291,0 C10.8348832,0 0,10.7901809 0,24.1005673" id="path-1"></path>
        <linearGradient x1="50.0258705%" y1="99.9999315%" x2="50.0258705%" y2="-1.59948816e-05%" id="linearGradient-3">
            <stop stop-color="#77AEDA" offset="0%"></stop>
            <stop stop-color="#0B6290" offset="100%"></stop>
        </linearGradient>
        <path d="M27.1977075,24.7525998 C26.2829793,25.1850569 25.4855238,25.775395 24.8010768,26.5281906 L24.8010768,26.5281906 C24.1144975,27.2832742 23.5750424,28.1619171 23.1848436,29.1664072 L23.1848436,29.1664072 C22.7903804,30.1708973 22.5963471,31.2440313 22.5963471,32.3880975 L22.5963471,32.3880975 C22.5963471,33.5321637 22.7903804,34.6075859 23.1848436,35.612076 L23.1848436,35.612076 C23.5750424,36.6165661 24.1144975,37.495209 24.8010768,38.2480045 L24.8010768,38.2480045 C25.4855238,39.0008 26.2829793,39.5934263 27.1977075,40.0258833 L27.1977075,40.0258833 C28.1103036,40.4560522 29.0868666,40.6734248 30.1295289,40.6734248 L30.1295289,40.6734248 C31.170059,40.6734248 32.1466221,40.4560522 33.0592181,40.0258833 L33.0592181,40.0258833 C33.9739464,39.5934263 34.7714018,39.0008 35.4558488,38.2480045 L35.4558488,38.2480045 C36.1424281,37.495209 36.679751,36.6165661 37.072082,35.612076 L37.072082,35.612076 C37.4665452,34.6075859 37.6605785,33.5321637 37.6605785,32.3880975 L37.6605785,32.3880975 C37.6605785,31.2440313 37.4665452,30.1708973 37.072082,29.1664072 L37.072082,29.1664072 C36.679751,28.1619171 36.1424281,27.2832742 35.4558488,26.5281906 L35.4558488,26.5281906 C34.7714018,25.775395 33.9739464,25.1850569 33.0592181,24.7525998 L33.0592181,24.7525998 C32.1466221,24.3201428 31.170059,24.1027703 30.1295289,24.1027703 L30.1295289,24.1027703 C29.0868666,24.1027703 28.1103036,24.3201428 27.1977075,24.7525998 M27.950386,38.083259 C27.265939,37.7606323 26.6667813,37.3190228 26.1550452,36.7561422 L26.1550452,36.7561422 C25.6454414,36.1955498 25.2424492,35.5365677 24.9503332,34.7837721 L24.9503332,34.7837721 C24.6582171,34.0309766 24.5132252,33.2324184 24.5132252,32.3880975 L24.5132252,32.3880975 C24.5132252,31.5460648 24.6582171,30.7475066 24.9503332,29.9924229 L24.9503332,29.9924229 C25.2424492,29.2396274 25.6454414,28.5829334 26.1550452,28.0200529 L26.1550452,28.0200529 C26.6667813,27.4571723 27.265939,27.0155627 27.950386,26.6952242 L27.950386,26.6952242 C28.6348331,26.3725976 29.3619248,26.2124283 30.1295289,26.2124283 L30.1295289,26.2124283 C30.8950008,26.2124283 31.6220926,26.3725976 32.3065396,26.6952242 L32.3065396,26.6952242 C32.9909866,27.0155627 33.5901443,27.4571723 34.0997482,28.0200529 L34.0997482,28.0200529 C34.6114843,28.5829334 35.0123442,29.2396274 35.3065925,29.9924229 L35.3065925,29.9924229 C35.5987085,30.7475066 35.7437004,31.5460648 35.7437004,32.3880975 L35.7437004,32.3880975 C35.7437004,33.2324184 35.5987085,34.0309766 35.3065925,34.7837721 L35.3065925,34.7837721 C35.0123442,35.5365677 34.6114843,36.1955498 34.0997482,36.7561422 L34.0997482,36.7561422 C33.5901443,37.3190228 32.9909866,37.7606323 32.3065396,38.083259 L32.3065396,38.083259 C31.6220926,38.4035975 30.8950008,38.5637668 30.1295289,38.5637668 L30.1295289,38.5637668 C29.3619248,38.5637668 28.6348331,38.4035975 27.950386,38.083259" id="path-4"></path>
        <linearGradient x1="49.9998542%" y1="100.000109%" x2="49.9998542%" y2="-0.000156034245%" id="linearGradient-6">
            <stop stop-color="#002A49" offset="0%"></stop>
            <stop stop-color="#024690" offset="100%"></stop>
        </linearGradient>
        <path d="M43.7670599,24.7248138 C42.8547221,25.1417154 42.0574924,25.7152307 41.3711074,26.4409482 L41.3711074,26.4409482 C40.6868541,27.1666657 40.1496832,28.0137038 39.7574633,28.9820624 L39.7574633,28.9820624 C39.3631116,29.9482151 39.1670017,30.9849544 39.1670017,32.0878685 L39.1670017,32.0878685 L39.1670017,45.1926942 L41.0833373,45.1926942 L41.0833373,36.9958364 C41.5970602,37.8671386 42.4006848,38.5994736 43.4963428,39.1906355 L43.4963428,39.1906355 C44.5920008,39.7795917 45.657816,40.0751727 46.7001832,40.0751727 L46.7001832,40.0751727 C47.7382871,40.0751727 48.7167055,39.8678248 49.6290432,39.4509233 L49.6290432,39.4509233 C50.541381,39.0362276 51.342874,38.4627122 52.0249957,37.7369947 L52.0249957,37.7369947 C52.709249,37.013483 53.2485515,36.1642392 53.6429031,35.1958806 L53.6429031,35.1958806 C54.0329914,34.2297278 54.2312331,33.1929885 54.2312331,32.0878685 L54.2312331,32.0878685 C54.2312331,30.9849544 54.0329914,29.9482151 53.6429031,28.9820624 L53.6429031,28.9820624 C53.2485515,28.0137038 52.709249,27.1666657 52.0249957,26.4409482 L52.0249957,26.4409482 C51.342874,25.7152307 50.541381,25.1417154 49.6290432,24.7248138 L49.6290432,24.7248138 C48.7167055,24.3101181 47.7382871,24.1027703 46.7001832,24.1027703 L46.7001832,24.1027703 C45.657816,24.1027703 44.6815293,24.3101181 43.7670599,24.7248138 M44.521657,37.5781751 C43.8374037,37.2693591 43.2384156,36.8414284 42.7289559,36.2987947 L42.7289559,36.2987947 C42.215233,35.7583668 41.8144865,35.1252941 41.5224532,34.3973707 L41.5224532,34.3973707 C41.2304198,33.6716532 41.0833373,32.9018192 41.0833373,32.0878685 L41.0833373,32.0878685 C41.0833373,31.2739179 41.2304198,30.5062897 41.5224532,29.7805722 L41.5224532,29.7805722 C41.8144865,29.0526489 42.215233,28.4195762 42.7289559,27.8791482 L42.7289559,27.8791482 C43.2384156,27.3365145 43.8374037,26.9085838 44.521657,26.5997678 L44.521657,26.5997678 C45.208042,26.2909519 45.9327963,26.1343381 46.7001832,26.1343381 L46.7001832,26.1343381 C47.4675701,26.1343381 48.1923244,26.2909519 48.8765777,26.5997678 L48.8765777,26.5997678 C49.5629627,26.9085838 50.1576875,27.3365145 50.6714104,27.8791482 L50.6714104,27.8791482 C51.1808701,28.4195762 51.5837482,29.0526489 51.8757816,29.7805722 L51.8757816,29.7805722 C52.1678149,30.5062897 52.3127658,31.2739179 52.3127658,32.0878685 L52.3127658,32.0878685 C52.3127658,32.9018192 52.1678149,33.6716532 51.8757816,34.3973707 L51.8757816,34.3973707 C51.5837482,35.1252941 51.1808701,35.7583668 50.6714104,36.2987947 L50.6714104,36.2987947 C50.1576875,36.8414284 49.5629627,37.2693591 48.8765777,37.5781751 L48.8765777,37.5781751 C48.1923244,37.886991 47.4675701,38.0436048 46.7001832,38.0436048 L46.7001832,38.0436048 C45.9327963,38.0436048 45.208042,37.886991 44.521657,37.5781751" id="path-7"></path>
        <linearGradient x1="49.9995486%" y1="99.9998452%" x2="49.9995486%" y2="0.000116096643%" id="linearGradient-9">
            <stop stop-color="#002A49" offset="0%"></stop>
            <stop stop-color="#024690" offset="100%"></stop>
        </linearGradient>
        <path d="M60.3468454,24.7525998 C59.4305608,25.1850569 58.6317486,25.775395 57.946137,26.5281906 L57.946137,26.5281906 C57.2583896,27.2832742 56.7180167,28.1619171 56.327154,29.1664072 L56.327154,29.1664072 C55.9320196,30.1708973 55.7376562,31.2440313 55.7376562,32.3880975 L55.7376562,32.3880975 C55.7376562,33.5321637 55.9320196,34.6075859 56.327154,35.612076 L56.327154,35.612076 C56.7180167,36.6165661 57.2583896,37.495209 57.946137,38.2480045 L57.946137,38.2480045 C58.6317486,39.0008 59.4305608,39.5934263 60.3468454,40.0258833 L60.3468454,40.0258833 C61.2609941,40.4560522 62.2392187,40.6734248 63.283655,40.6734248 L63.283655,40.6734248 C64.3259554,40.6734248 65.30418,40.4560522 66.2183288,40.0258833 L66.2183288,40.0258833 C67.1346134,39.5934263 67.9334256,39.0008 68.6190371,38.2480045 L68.6190371,38.2480045 C69.3067845,37.495209 69.8428858,36.6165661 70.225205,35.612076 L70.225205,35.612076 L70.3085036,35.3718221 L68.1940007,35.3718221 C67.9398332,35.8935163 67.6279974,36.3534309 67.2627651,36.7561422 L67.2627651,36.7561422 C66.7501583,37.3190228 66.1499812,37.7606323 65.4643696,38.083259 L65.4643696,38.083259 C64.7787581,38.4035975 64.0504293,38.5637668 63.283655,38.5637668 L63.283655,38.5637668 C62.5147449,38.5637668 61.7885519,38.4035975 61.1008045,38.083259 L61.1008045,38.083259 C60.415193,37.7606323 59.8150159,37.3190228 59.304545,36.7561422 L59.304545,36.7561422 C58.7919382,36.1955498 58.3903962,35.5365677 58.0956473,34.7837721 L58.0956473,34.7837721 C57.8030343,34.0309766 57.6577957,33.2324184 57.6577957,32.3880975 L57.6577957,32.3880975 C57.6577957,32.18903 57.6663392,31.9785218 57.6834261,31.756573 L57.6834261,31.756573 L70.8018876,31.756573 C70.7484911,30.8527607 70.5562635,29.9901348 70.225205,29.1664072 L70.225205,29.1664072 C69.8428858,28.1619171 69.3067845,27.2832742 68.6190371,26.5281906 L68.6190371,26.5281906 C67.9334256,25.775395 67.1346134,25.1850569 66.2183288,24.7525998 L66.2183288,24.7525998 C65.30418,24.3201428 64.3259554,24.1027703 63.283655,24.1027703 L63.283655,24.1027703 C62.2392187,24.1027703 61.2609941,24.3201428 60.3468454,24.7525998 M59.304545,28.0200529 C59.8150159,27.4571723 60.415193,27.0155627 61.1008045,26.6952242 L61.1008045,26.6952242 C61.7885519,26.3725976 62.5147449,26.2124283 63.283655,26.2124283 L63.283655,26.2124283 C64.0504293,26.2124283 64.7787581,26.3725976 65.4643696,26.6952242 L65.4643696,26.6952242 C66.1499812,27.0155627 66.7501583,27.4571723 67.2627651,28.0200529 L67.2627651,28.0200529 C67.6835298,28.5028488 68.0295393,29.042848 68.3050655,29.646915 L68.3050655,29.646915 L58.2344783,29.646915 C58.5078686,29.042848 58.8645575,28.5028488 59.304545,28.0200529" id="path-10"></path>
        <linearGradient x1="49.9997037%" y1="100.000109%" x2="49.9997037%" y2="-0.000156034245%" id="linearGradient-12">
            <stop stop-color="#002A49" offset="0%"></stop>
            <stop stop-color="#024690" offset="100%"></stop>
        </linearGradient>
        <path d="M78.4162726,24.750008 C77.5040639,25.1807402 76.700553,25.7755609 76.0057398,26.5344699 L76.0057398,26.5344699 C75.8970421,26.6552573 75.7968696,26.8147877 75.7052225,27.0130613 L75.7052225,27.0130613 L75.7052225,24.1643034 L73.8147339,24.1643034 L73.8424412,39.1670017 L75.7329297,39.1670017 L75.7329297,32.3550519 C75.7329297,31.5163776 75.8799914,30.7210044 76.1719835,29.9689324 L76.1719835,29.9689324 C76.4618442,29.2214183 76.8646653,28.5650645 77.3761842,28.004429 L77.3761842,28.004429 C77.8855718,27.4437934 78.4844751,27.0039452 79.1686316,26.6826053 L79.1686316,26.6826053 C79.8549195,26.3658235 80.5795713,26.206293 81.3468496,26.206293 L81.3468496,26.206293 L81.3468496,24.1027703 C80.3046299,24.1027703 79.3284813,24.3192758 78.4162726,24.750008" id="path-13"></path>
        <linearGradient x1="49.9998698%" y1="99.9999758%" x2="49.9998698%" y2="-3.32829047e-05%" id="linearGradient-15">
            <stop stop-color="#002A49" offset="0%"></stop>
            <stop stop-color="#024690" offset="100%"></stop>
        </linearGradient>
        <path d="M87.620052,24.248497 C87.2094462,24.3441982 86.8217676,24.4812248 86.4549319,24.663927 L86.4549319,24.663927 C86.0880963,24.8444542 85.752525,25.0619568 85.4503025,25.3207849 L85.4503025,25.3207849 C85.1480799,25.579613 84.9063019,25.8601914 84.7270526,26.1668701 L84.7270526,26.1668701 L84.7270526,24.8488042 L82.8532727,24.8488042 L82.8532727,39.1670017 L84.7562327,39.1670017 L84.7270526,30.5756482 C84.7270526,30.0231915 84.8375202,29.479435 85.0626239,28.9443786 L85.0626239,28.9443786 C85.2856433,28.4093221 85.5836973,27.9373414 85.9588701,27.5240865 L85.9588701,27.5240865 C86.3340429,27.1151815 86.7717446,26.7867526 87.2698907,26.5387996 L87.2698907,26.5387996 C87.7722054,26.2908466 88.2995317,26.1668701 88.8518695,26.1668701 L88.8518695,26.1668701 C89.4042073,26.1668701 89.9315335,26.2799715 90.431764,26.5083492 L90.431764,26.5083492 C90.9299101,26.738902 91.3696961,27.0542808 91.7427846,27.4544856 L91.7427846,27.4544856 C92.1179574,27.8568655 92.4118428,28.3244961 92.6286093,28.8573775 L92.6286093,28.8573775 C92.8412073,29.392434 92.9495905,29.9666409 92.9495905,30.5756482 L92.9495905,30.5756482 L92.9746021,39.1670017 L94.9046579,39.1670017 L94.8775621,30.5756482 C94.8775621,29.6991126 94.7170715,28.8617276 94.3960902,28.0721931 L94.3960902,28.0721931 C94.075109,27.2783085 93.6394917,26.5910002 93.0975754,26.0080932 L93.0975754,26.0080932 C92.5514905,25.4273612 91.9136967,24.9619056 91.1821096,24.6204265 L91.1821096,24.6204265 C90.4484383,24.2767723 89.6709968,24.1027703 88.8518695,24.1027703 L88.8518695,24.1027703 C88.4412637,24.1027703 88.0306578,24.1527959 87.620052,24.248497" id="path-16"></path>
        <linearGradient x1="49.9995624%" y1="100.000198%" x2="49.9995624%" y2="5.19780537e-05%" id="linearGradient-18">
            <stop stop-color="#002A49" offset="0%"></stop>
            <stop stop-color="#024690" offset="100%"></stop>
        </linearGradient>
        <path d="M96.8410887,18.436357 C96.5534862,18.6812161 96.411081,18.980997 96.411081,19.3402763 L96.411081,19.3402763 C96.411081,19.7041324 96.5534862,20.0039132 96.8410887,20.2441955 L96.8410887,20.2441955 C97.1286913,20.4867663 97.4861003,20.6080516 97.916108,20.6080516 L97.916108,20.6080516 C98.3461157,20.6080516 98.706317,20.4867663 98.9911273,20.2441955 L98.9911273,20.2441955 C99.2815221,20.0039132 99.4239273,19.7041324 99.4239273,19.3402763 L99.4239273,19.3402763 C99.4239273,18.980997 99.2815221,18.6812161 98.9911273,18.436357 L98.9911273,18.436357 C98.706317,18.1960747 98.3461157,18.0770777 97.916108,18.0770777 L97.916108,18.0770777 C97.4861003,18.0770777 97.1286913,18.1960747 96.8410887,18.436357 L96.8410887,18.436357 Z M96.6260849,39.1670017 L99.1363247,39.1670017 L99.1363247,24.1024433 L96.6260849,24.1024433 L96.6260849,39.1670017 Z" id="path-19"></path>
        <linearGradient x1="49.9969694%" y1="100.000149%" x2="49.9969694%" y2="0.000111762153%" id="linearGradient-21">
            <stop stop-color="#002A49" offset="0%"></stop>
            <stop stop-color="#024690" offset="100%"></stop>
        </linearGradient>
        <path d="M105.697121,24.7525998 C104.752157,25.1850569 103.922001,25.775395 103.213278,26.5281906 L103.213278,26.5281906 C102.506763,27.2832742 101.948174,28.1619171 101.53972,29.1664072 L101.53972,29.1664072 C101.135681,30.1708973 100.93035,31.2440313 100.93035,32.3880975 L100.93035,32.3880975 C100.93035,33.5321637 101.135681,34.6075859 101.53972,35.612076 L101.53972,35.612076 C101.948174,36.6165661 102.506763,37.495209 103.213278,38.2480045 L103.213278,38.2480045 C103.922001,39.0008 104.752157,39.5934263 105.697121,40.0258833 L105.697121,40.0258833 C106.642085,40.4560522 107.653285,40.6734248 108.730721,40.6734248 L108.730721,40.6734248 C109.810365,40.6734248 110.821565,40.4560522 111.768737,40.0258833 L111.768737,40.0258833 C112.711493,39.5934263 113.539441,39.0008 114.250372,38.2480045 L114.250372,38.2480045 C114.959095,37.495209 115.51106,36.6165661 115.908475,35.612076 L115.908475,35.612076 L115.994582,35.3718221 L113.8088,35.3718221 C113.543857,35.8935163 113.221509,36.3534309 112.843965,36.7561422 L112.843965,36.7561422 C112.316286,37.3190228 111.695878,37.7606323 110.987154,38.083259 L110.987154,38.083259 C110.278431,38.4035975 109.525551,38.5637668 108.730721,38.5637668 L108.730721,38.5637668 C107.935891,38.5637668 107.185219,38.4035975 106.476496,38.083259 L106.476496,38.083259 C105.767773,37.7606323 105.149572,37.3190228 104.617477,36.7561422 L104.617477,36.7561422 C104.089799,36.1955498 103.672513,35.5365677 103.370036,34.7837721 L103.370036,34.7837721 C103.067559,34.0309766 102.917425,33.2324184 102.917425,32.3880975 L102.917425,32.3880975 C102.917425,31.5460648 103.067559,30.7475066 103.370036,29.9924229 L103.370036,29.9924229 C103.672513,29.2396274 104.089799,28.5829334 104.617477,28.0200529 L104.617477,28.0200529 C105.149572,27.4571723 105.767773,27.0155627 106.476496,26.6952242 L106.476496,26.6952242 C107.185219,26.3725976 107.935891,26.2124283 108.730721,26.2124283 L108.730721,26.2124283 C109.525551,26.2124283 110.278431,26.3725976 110.987154,26.6952242 L110.987154,26.6952242 C111.695878,27.0155627 112.316286,27.4571723 112.843965,28.0200529 L112.843965,28.0200529 C113.221509,28.4227641 113.535025,28.8758144 113.780098,29.3746272 L113.780098,29.3746272 L115.994582,29.3746272 L115.908475,29.1664072 C115.51106,28.1619171 114.959095,27.2832742 114.250372,26.5281906 L114.250372,26.5281906 C113.539441,25.775395 112.711493,25.1850569 111.768737,24.7525998 L111.768737,24.7525998 C110.821565,24.3201428 109.810365,24.1027703 108.730721,24.1027703 L108.730721,24.1027703 C107.653285,24.1027703 106.642085,24.3201428 105.697121,24.7525998" id="path-22"></path>
        <linearGradient x1="49.9998446%" y1="100.000109%" x2="49.9998446%" y2="-0.000156034245%" id="linearGradient-24">
            <stop stop-color="#002A49" offset="0%"></stop>
            <stop stop-color="#024690" offset="100%"></stop>
        </linearGradient>
        <path d="M127.676201,24.1027703 L127.676201,32.3888985 C127.676201,33.0319258 127.569884,33.6337628 127.355165,34.1944094 L127.355165,34.1944094 C127.14253,34.7596327 126.848594,35.2447637 126.473356,35.6566673 L126.473356,35.6566673 C126.098118,36.068571 125.660341,36.3935172 125.160024,36.6360826 L125.160024,36.6360826 C124.659707,36.8763598 124.123951,36.9976425 123.552756,36.9976425 L123.552756,36.9976425 C122.981561,36.9976425 122.449974,36.8763598 121.957995,36.6360826 L121.957995,36.6360826 C121.468102,36.3935172 121.034494,36.068571 120.659256,35.6566673 L120.659256,35.6566673 C120.284018,35.2447637 119.990082,34.7596327 119.775363,34.1944094 L119.775363,34.1944094 C119.562728,33.6337628 119.45641,33.0319258 119.45641,32.3888985 L119.45641,32.3888985 L119.45641,32.3568615 L119.42931,24.1027703 L117.501005,24.1027703 L117.526021,32.3568615 L117.526021,32.3888985 C117.526021,33.3111049 117.688624,34.185256 118.009661,35.0090633 L118.009661,35.0090633 C118.330697,35.8328705 118.762221,36.5514136 119.3084,37.162404 L119.3084,37.162404 C119.852495,37.7756827 120.490399,38.263102 121.222112,38.6246619 L121.222112,38.6246619 C121.953826,38.9862217 122.731402,39.1670017 123.552756,39.1670017 L123.552756,39.1670017 C124.374109,39.1670017 125.151685,38.9862217 125.883399,38.6246619 L125.883399,38.6246619 C126.615113,38.263102 127.253017,37.7756827 127.799196,37.162404 L127.799196,37.162404 C128.343291,36.5514136 128.770645,35.8328705 129.083343,35.0090633 L129.083343,35.0090633 C129.396041,34.185256 129.55239,33.3111049 129.55239,32.3888985 L129.55239,32.3888985 L129.55239,24.1027703 L127.676201,24.1027703 Z" id="path-25"></path>
        <linearGradient x1="49.9992821%" y1="99.9999757%" x2="49.9992821%" y2="8.81057269e-05%" id="linearGradient-27">
            <stop stop-color="#002A49" offset="0%"></stop>
            <stop stop-color="#024690" offset="100%"></stop>
        </linearGradient>
        <path d="M134.458297,24.5100578 C133.818572,24.7800574 133.271528,25.1301417 132.817165,25.5625987 L132.817165,25.5625987 C132.362802,25.9950557 132.007902,26.4892923 131.756985,27.0498847 L131.756985,27.0498847 C131.506068,27.6127653 131.417908,28.2214085 131.494766,28.8849669 L131.494766,28.8849669 C131.594228,29.7247115 131.874532,30.4271681 132.337937,30.9900487 L132.337937,30.9900487 C132.803602,31.5506411 133.355167,31.9693693 133.994892,32.2530977 L133.994892,32.2530977 C134.632356,32.5322499 135.330855,32.7725038 136.085866,32.9738594 L136.085866,32.9738594 C136.840877,33.1729269 137.469299,33.3925876 137.973393,33.6351297 L137.973393,33.6351297 C138.475227,33.8753836 138.859514,34.1865696 139.121733,34.5663995 L139.121733,34.5663995 C139.381692,34.9485176 139.501499,35.4770762 139.483415,36.1589397 L139.483415,36.1589397 C139.444986,36.822498 139.185027,37.3853786 138.71032,37.8567339 L138.71032,37.8567339 C138.233352,38.3303773 137.51903,38.5637668 136.565094,38.5637668 L136.565094,38.5637668 C135.728705,38.58436 135.04377,38.41275 134.508028,38.0420726 L134.508028,38.0420726 C133.974547,37.6736833 133.606084,37.2663957 133.400377,36.8179218 L133.400377,36.8179218 C133.196931,36.371736 133.092948,35.88894 133.092948,35.3718221 L133.092948,35.3718221 L131.060747,35.3718221 C131.040403,36.234448 131.180555,36.9826673 131.481203,37.6141918 L131.481203,37.6141918 C131.781851,38.2480045 132.184222,38.7902919 132.688316,39.2410539 L132.688316,39.2410539 C133.19015,39.6941042 133.771101,40.0441884 134.42891,40.295883 L134.42891,40.295883 C135.08898,40.5475775 135.755831,40.6734248 136.433984,40.6734248 L136.433984,40.6734248 C137.109877,40.6734248 137.763165,40.572747 138.393848,40.3713913 L138.393848,40.3713913 C139.022271,40.1700357 139.573835,39.8794429 140.048543,39.4996129 L140.048543,39.4996129 C140.525511,39.1174948 140.900756,38.6438514 141.181059,38.083259 L141.181059,38.083259 C141.461363,37.5203784 141.603775,36.8888539 141.603775,36.1863972 L141.603775,36.1863972 C141.603775,35.2413986 141.429716,34.4588573 141.079336,33.8341972 L141.079336,33.8341972 C140.731218,33.2141133 140.242947,32.6947073 139.612264,32.2828434 L139.612264,32.2828434 C138.983842,31.8709796 138.310209,31.5460648 137.595888,31.3058109 L137.595888,31.3058109 C136.879305,31.0632689 136.226017,30.8344557 135.636024,30.6102187 L135.636024,30.6102187 C135.04377,30.390558 134.569062,30.1503041 134.211901,29.8871689 L134.211901,29.8871689 C133.85248,29.6286099 133.626429,29.2556443 133.529226,28.7728484 L133.529226,28.7728484 C133.432024,28.2328492 133.572176,27.7203075 133.951942,27.2375116 L133.951942,27.2375116 C134.327187,26.7570038 134.7386,26.4343771 135.183921,26.2742079 L135.183921,26.2742079 C135.629242,26.1140386 136.047437,26.0316658 136.433984,26.0316658 L136.433984,26.0316658 C137.014936,26.0316658 137.546156,26.1872588 138.029906,26.4984448 L138.029906,26.4984448 C138.513655,26.811919 138.84369,27.2581048 139.02001,27.8392904 L139.02001,27.8392904 L141.196883,27.8392904 C141.158454,27.5395451 141.027345,27.175732 140.805815,26.7570038 L140.805815,26.7570038 C140.582024,26.3336993 140.276855,25.9172592 139.890307,25.5053954 L139.890307,25.5053954 C139.501499,25.0935316 139.022271,24.7571761 138.450361,24.496329 L138.450361,24.496329 C137.880712,24.2354819 137.20934,24.1027703 136.433984,24.1027703 L136.433984,24.1027703 C135.755831,24.1027703 135.095761,24.2400582 134.458297,24.5100578" id="path-28"></path>
        <linearGradient x1="49.9125529%" y1="100.000109%" x2="49.9125529%" y2="-0.000156034245%" id="linearGradient-30">
            <stop stop-color="#002A49" offset="0%"></stop>
            <stop stop-color="#024690" offset="100%"></stop>
        </linearGradient>
    </defs>
    <g id="V3" stroke="none" stroke-width="1" fill="none" fill-rule="evenodd">
        <g id="02-Copernicus-service-single" transform="translate(-98.000000, -62.000000)">
            <g id="Menu" transform="translate(80.000000, 42.000000)">
                <g id="Group-7" transform="translate(18.000000, 20.000000)">
                    <g id="Group-13" transform="translate(230.000000, 0.000000)">
                        <mask id="mask-2" fill="white">
                            <use xlink:href="#path-1"></use>
                        </mask>
                        <g id="Clip-16"></g>
                        <path d="M0,24.1005673 C0,37.4131567 10.8348832,48.2055405 24.1981291,48.2055405 L24.1981291,48.2055405 C28.06438,48.2055405 31.66484,47.3221468 34.9057008,45.7161766 L34.9057008,45.7161766 C34.9057008,45.7161766 34.9682398,45.6853349 34.9347367,45.6236516 L34.9347367,45.6236516 C34.9079343,45.5663742 34.8476288,45.5972159 34.8476288,45.5972159 L34.8476288,45.5972159 C32.3550026,46.5731346 29.6993283,47.0886312 26.8649711,47.0886312 L26.8649711,47.0886312 C14.6966669,47.0886312 4.83560546,37.2325126 4.83560546,25.0720801 L4.83560546,25.0720801 C4.83560546,12.9138506 14.6966669,3.05993491 26.8649711,3.05993491 L26.8649711,3.05993491 C35.4975878,3.05993491 42.9665322,7.97918233 46.5781599,15.2093525 L46.5781599,15.2093525 C46.5781599,15.2093525 46.6094294,15.2754418 46.6630343,15.255615 L46.6630343,15.255615 C46.7233398,15.2335853 46.6898367,15.1696989 46.6898367,15.1696989 L46.6898367,15.1696989 C43.1385145,6.25645439 34.4098558,0 24.1981291,0 L24.1981291,0 C10.8348832,0 0,10.7901809 0,24.1005673" id="Fill-15" fill="url(#linearGradient-3)"></path>
                        <path d="M93.0682086,28.3309562 C92.853065,27.7901212 92.558548,27.3174403 92.1825688,26.9129134 C91.8065896,26.5061879 91.3679473,26.1896016 90.8666418,25.9565589 C90.367425,25.7257147 89.8389654,25.6091934 89.2854405,25.6091934 C88.7298269,25.6091934 88.2013673,25.7367073 87.7000618,25.9873381 C87.1987562,26.237969 86.7622027,26.5699449 86.3862235,26.9854644 C86.1940564,27.1965219 86.0206882,27.4273661 85.8682078,27.6735999 C85.8682078,27.7021806 85.866119,27.7329598 85.866119,27.7615405 C85.866119,30.7317356 88.1554143,33.1413091 90.9773467,33.1413091 C91.8525427,33.1413091 92.677608,32.9082664 93.3982347,32.4993424 L93.3898796,30.0677838 C93.3898796,29.4500008 93.2833522,28.8717911 93.0682086,28.3309562" id="Fill-18" fill="#FECD07"></path>
                        <mask id="mask-5" fill="white">
                            <use xlink:href="#path-4"></use>
                        </mask>
                        <g id="Clip-21"></g>
                        <path d="M27.1977075,24.7525998 C26.2829793,25.1850569 25.4855238,25.775395 24.8010768,26.5281906 L24.8010768,26.5281906 C24.1144975,27.2832742 23.5750424,28.1619171 23.1848436,29.1664072 L23.1848436,29.1664072 C22.7903804,30.1708973 22.5963471,31.2440313 22.5963471,32.3880975 L22.5963471,32.3880975 C22.5963471,33.5321637 22.7903804,34.6075859 23.1848436,35.612076 L23.1848436,35.612076 C23.5750424,36.6165661 24.1144975,37.495209 24.8010768,38.2480045 L24.8010768,38.2480045 C25.4855238,39.0008 26.2829793,39.5934263 27.1977075,40.0258833 L27.1977075,40.0258833 C28.1103036,40.4560522 29.0868666,40.6734248 30.1295289,40.6734248 L30.1295289,40.6734248 C31.170059,40.6734248 32.1466221,40.4560522 33.0592181,40.0258833 L33.0592181,40.0258833 C33.9739464,39.5934263 34.7714018,39.0008 35.4558488,38.2480045 L35.4558488,38.2480045 C36.1424281,37.495209 36.679751,36.6165661 37.072082,35.612076 L37.072082,35.612076 C37.4665452,34.6075859 37.6605785,33.5321637 37.6605785,32.3880975 L37.6605785,32.3880975 C37.6605785,31.2440313 37.4665452,30.1708973 37.072082,29.1664072 L37.072082,29.1664072 C36.679751,28.1619171 36.1424281,27.2832742 35.4558488,26.5281906 L35.4558488,26.5281906 C34.7714018,25.775395 33.9739464,25.1850569 33.0592181,24.7525998 L33.0592181,24.7525998 C32.1466221,24.3201428 31.170059,24.1027703 30.1295289,24.1027703 L30.1295289,24.1027703 C29.0868666,24.1027703 28.1103036,24.3201428 27.1977075,24.7525998 M27.950386,38.083259 C27.265939,37.7606323 26.6667813,37.3190228 26.1550452,36.7561422 L26.1550452,36.7561422 C25.6454414,36.1955498 25.2424492,35.5365677 24.9503332,34.7837721 L24.9503332,34.7837721 C24.6582171,34.0309766 24.5132252,33.2324184 24.5132252,32.3880975 L24.5132252,32.3880975 C24.5132252,31.5460648 24.6582171,30.7475066 24.9503332,29.9924229 L24.9503332,29.9924229 C25.2424492,29.2396274 25.6454414,28.5829334 26.1550452,28.0200529 L26.1550452,28.0200529 C26.6667813,27.4571723 27.265939,27.0155627 27.950386,26.6952242 L27.950386,26.6952242 C28.6348331,26.3725976 29.3619248,26.2124283 30.1295289,26.2124283 L30.1295289,26.2124283 C30.8950008,26.2124283 31.6220926,26.3725976 32.3065396,26.6952242 L32.3065396,26.6952242 C32.9909866,27.0155627 33.5901443,27.4571723 34.0997482,28.0200529 L34.0997482,28.0200529 C34.6114843,28.5829334 35.0123442,29.2396274 35.3065925,29.9924229 L35.3065925,29.9924229 C35.5987085,30.7475066 35.7437004,31.5460648 35.7437004,32.3880975 L35.7437004,32.3880975 C35.7437004,33.2324184 35.5987085,34.0309766 35.3065925,34.7837721 L35.3065925,34.7837721 C35.0123442,35.5365677 34.6114843,36.1955498 34.0997482,36.7561422 L34.0997482,36.7561422 C33.5901443,37.3190228 32.9909866,37.7606323 32.3065396,38.083259 L32.3065396,38.083259 C31.6220926,38.4035975 30.8950008,38.5637668 30.1295289,38.5637668 L30.1295289,38.5637668 C29.3619248,38.5637668 28.6348331,38.4035975 27.950386,38.083259" id="Fill-20" fill="url(#linearGradient-6)"></path>
                        <mask id="mask-8" fill="white">
                            <use xlink:href="#path-7"></use>
                        </mask>
                        <g id="Clip-24"></g>
                        <path d="M43.7670599,24.7248138 C42.8547221,25.1417154 42.0574924,25.7152307 41.3711074,26.4409482 L41.3711074,26.4409482 C40.6868541,27.1666657 40.1496832,28.0137038 39.7574633,28.9820624 L39.7574633,28.9820624 C39.3631116,29.9482151 39.1670017,30.9849544 39.1670017,32.0878685 L39.1670017,32.0878685 L39.1670017,45.1926942 L41.0833373,45.1926942 L41.0833373,36.9958364 C41.5970602,37.8671386 42.4006848,38.5994736 43.4963428,39.1906355 L43.4963428,39.1906355 C44.5920008,39.7795917 45.657816,40.0751727 46.7001832,40.0751727 L46.7001832,40.0751727 C47.7382871,40.0751727 48.7167055,39.8678248 49.6290432,39.4509233 L49.6290432,39.4509233 C50.541381,39.0362276 51.342874,38.4627122 52.0249957,37.7369947 L52.0249957,37.7369947 C52.709249,37.013483 53.2485515,36.1642392 53.6429031,35.1958806 L53.6429031,35.1958806 C54.0329914,34.2297278 54.2312331,33.1929885 54.2312331,32.0878685 L54.2312331,32.0878685 C54.2312331,30.9849544 54.0329914,29.9482151 53.6429031,28.9820624 L53.6429031,28.9820624 C53.2485515,28.0137038 52.709249,27.1666657 52.0249957,26.4409482 L52.0249957,26.4409482 C51.342874,25.7152307 50.541381,25.1417154 49.6290432,24.7248138 L49.6290432,24.7248138 C48.7167055,24.3101181 47.7382871,24.1027703 46.7001832,24.1027703 L46.7001832,24.1027703 C45.657816,24.1027703 44.6815293,24.3101181 43.7670599,24.7248138 M44.521657,37.5781751 C43.8374037,37.2693591 43.2384156,36.8414284 42.7289559,36.2987947 L42.7289559,36.2987947 C42.215233,35.7583668 41.8144865,35.1252941 41.5224532,34.3973707 L41.5224532,34.3973707 C41.2304198,33.6716532 41.0833373,32.9018192 41.0833373,32.0878685 L41.0833373,32.0878685 C41.0833373,31.2739179 41.2304198,30.5062897 41.5224532,29.7805722 L41.5224532,29.7805722 C41.8144865,29.0526489 42.215233,28.4195762 42.7289559,27.8791482 L42.7289559,27.8791482 C43.2384156,27.3365145 43.8374037,26.9085838 44.521657,26.5997678 L44.521657,26.5997678 C45.208042,26.2909519 45.9327963,26.1343381 46.7001832,26.1343381 L46.7001832,26.1343381 C47.4675701,26.1343381 48.1923244,26.2909519 48.8765777,26.5997678 L48.8765777,26.5997678 C49.5629627,26.9085838 50.1576875,27.3365145 50.6714104,27.8791482 L50.6714104,27.8791482 C51.1808701,28.4195762 51.5837482,29.0526489 51.8757816,29.7805722 L51.8757816,29.7805722 C52.1678149,30.5062897 52.3127658,31.2739179 52.3127658,32.0878685 L52.3127658,32.0878685 C52.3127658,32.9018192 52.1678149,33.6716532 51.8757816,34.3973707 L51.8757816,34.3973707 C51.5837482,35.1252941 51.1808701,35.7583668 50.6714104,36.2987947 L50.6714104,36.2987947 C50.1576875,36.8414284 49.5629627,37.2693591 48.8765777,37.5781751 L48.8765777,37.5781751 C48.1923244,37.886991 47.4675701,38.0436048 46.7001832,38.0436048 L46.7001832,38.0436048 C45.9327963,38.0436048 45.208042,37.886991 44.521657,37.5781751" id="Fill-23" fill="url(#linearGradient-9)"></path>
                        <mask id="mask-11" fill="white">
                            <use xlink:href="#path-10"></use>
                        </mask>
                        <g id="Clip-27"></g>
                        <path d="M60.3468454,24.7525998 C59.4305608,25.1850569 58.6317486,25.775395 57.946137,26.5281906 L57.946137,26.5281906 C57.2583896,27.2832742 56.7180167,28.1619171 56.327154,29.1664072 L56.327154,29.1664072 C55.9320196,30.1708973 55.7376562,31.2440313 55.7376562,32.3880975 L55.7376562,32.3880975 C55.7376562,33.5321637 55.9320196,34.6075859 56.327154,35.612076 L56.327154,35.612076 C56.7180167,36.6165661 57.2583896,37.495209 57.946137,38.2480045 L57.946137,38.2480045 C58.6317486,39.0008 59.4305608,39.5934263 60.3468454,40.0258833 L60.3468454,40.0258833 C61.2609941,40.4560522 62.2392187,40.6734248 63.283655,40.6734248 L63.283655,40.6734248 C64.3259554,40.6734248 65.30418,40.4560522 66.2183288,40.0258833 L66.2183288,40.0258833 C67.1346134,39.5934263 67.9334256,39.0008 68.6190371,38.2480045 L68.6190371,38.2480045 C69.3067845,37.495209 69.8428858,36.6165661 70.225205,35.612076 L70.225205,35.612076 L70.3085036,35.3718221 L68.1940007,35.3718221 C67.9398332,35.8935163 67.6279974,36.3534309 67.2627651,36.7561422 L67.2627651,36.7561422 C66.7501583,37.3190228 66.1499812,37.7606323 65.4643696,38.083259 L65.4643696,38.083259 C64.7787581,38.4035975 64.0504293,38.5637668 63.283655,38.5637668 L63.283655,38.5637668 C62.5147449,38.5637668 61.7885519,38.4035975 61.1008045,38.083259 L61.1008045,38.083259 C60.415193,37.7606323 59.8150159,37.3190228 59.304545,36.7561422 L59.304545,36.7561422 C58.7919382,36.1955498 58.3903962,35.5365677 58.0956473,34.7837721 L58.0956473,34.7837721 C57.8030343,34.0309766 57.6577957,33.2324184 57.6577957,32.3880975 L57.6577957,32.3880975 C57.6577957,32.18903 57.6663392,31.9785218 57.6834261,31.756573 L57.6834261,31.756573 L70.8018876,31.756573 C70.7484911,30.8527607 70.5562635,29.9901348 70.225205,29.1664072 L70.225205,29.1664072 C69.8428858,28.1619171 69.3067845,27.2832742 68.6190371,26.5281906 L68.6190371,26.5281906 C67.9334256,25.775395 67.1346134,25.1850569 66.2183288,24.7525998 L66.2183288,24.7525998 C65.30418,24.3201428 64.3259554,24.1027703 63.283655,24.1027703 L63.283655,24.1027703 C62.2392187,24.1027703 61.2609941,24.3201428 60.3468454,24.7525998 M59.304545,28.0200529 C59.8150159,27.4571723 60.415193,27.0155627 61.1008045,26.6952242 L61.1008045,26.6952242 C61.7885519,26.3725976 62.5147449,26.2124283 63.283655,26.2124283 L63.283655,26.2124283 C64.0504293,26.2124283 64.7787581,26.3725976 65.4643696,26.6952242 L65.4643696,26.6952242 C66.1499812,27.0155627 66.7501583,27.4571723 67.2627651,28.0200529 L67.2627651,28.0200529 C67.6835298,28.5028488 68.0295393,29.042848 68.3050655,29.646915 L68.3050655,29.646915 L58.2344783,29.646915 C58.5078686,29.042848 58.8645575,28.5028488 59.304545,28.0200529" id="Fill-26" fill="url(#linearGradient-12)"></path>
                        <mask id="mask-14" fill="white">
                            <use xlink:href="#path-13"></use>
                        </mask>
                        <g id="Clip-30"></g>
                        <path d="M78.4162726,24.750008 C77.5040639,25.1807402 76.700553,25.7755609 76.0057398,26.5344699 L76.0057398,26.5344699 C75.8970421,26.6552573 75.7968696,26.8147877 75.7052225,27.0130613 L75.7052225,27.0130613 L75.7052225,24.1643034 L73.8147339,24.1643034 L73.8424412,39.1670017 L75.7329297,39.1670017 L75.7329297,32.3550519 C75.7329297,31.5163776 75.8799914,30.7210044 76.1719835,29.9689324 L76.1719835,29.9689324 C76.4618442,29.2214183 76.8646653,28.5650645 77.3761842,28.004429 L77.3761842,28.004429 C77.8855718,27.4437934 78.4844751,27.0039452 79.1686316,26.6826053 L79.1686316,26.6826053 C79.8549195,26.3658235 80.5795713,26.206293 81.3468496,26.206293 L81.3468496,26.206293 L81.3468496,24.1027703 C80.3046299,24.1027703 79.3284813,24.3192758 78.4162726,24.750008" id="Fill-29" fill="url(#linearGradient-15)"></path>
                        <mask id="mask-17" fill="white">
                            <use xlink:href="#path-16"></use>
                        </mask>
                        <g id="Clip-33"></g>
                        <path d="M87.620052,24.248497 C87.2094462,24.3441982 86.8217676,24.4812248 86.4549319,24.663927 L86.4549319,24.663927 C86.0880963,24.8444542 85.752525,25.0619568 85.4503025,25.3207849 L85.4503025,25.3207849 C85.1480799,25.579613 84.9063019,25.8601914 84.7270526,26.1668701 L84.7270526,26.1668701 L84.7270526,24.8488042 L82.8532727,24.8488042 L82.8532727,39.1670017 L84.7562327,39.1670017 L84.7270526,30.5756482 C84.7270526,30.0231915 84.8375202,29.479435 85.0626239,28.9443786 L85.0626239,28.9443786 C85.2856433,28.4093221 85.5836973,27.9373414 85.9588701,27.5240865 L85.9588701,27.5240865 C86.3340429,27.1151815 86.7717446,26.7867526 87.2698907,26.5387996 L87.2698907,26.5387996 C87.7722054,26.2908466 88.2995317,26.1668701 88.8518695,26.1668701 L88.8518695,26.1668701 C89.4042073,26.1668701 89.9315335,26.2799715 90.431764,26.5083492 L90.431764,26.5083492 C90.9299101,26.738902 91.3696961,27.0542808 91.7427846,27.4544856 L91.7427846,27.4544856 C92.1179574,27.8568655 92.4118428,28.3244961 92.6286093,28.8573775 L92.6286093,28.8573775 C92.8412073,29.392434 92.9495905,29.9666409 92.9495905,30.5756482 L92.9495905,30.5756482 L92.9746021,39.1670017 L94.9046579,39.1670017 L94.8775621,30.5756482 C94.8775621,29.6991126 94.7170715,28.8617276 94.3960902,28.0721931 L94.3960902,28.0721931 C94.075109,27.2783085 93.6394917,26.5910002 93.0975754,26.0080932 L93.0975754,26.0080932 C92.5514905,25.4273612 91.9136967,24.9619056 91.1821096,24.6204265 L91.1821096,24.6204265 C90.4484383,24.2767723 89.6709968,24.1027703 88.8518695,24.1027703 L88.8518695,24.1027703 C88.4412637,24.1027703 88.0306578,24.1527959 87.620052,24.248497" id="Fill-32" fill="url(#linearGradient-18)"></path>
                        <mask id="mask-20" fill="white">
                            <use xlink:href="#path-19"></use>
                        </mask>
                        <g id="Clip-36"></g>
                        <path d="M96.8410887,18.436357 C96.5534862,18.6812161 96.411081,18.980997 96.411081,19.3402763 L96.411081,19.3402763 C96.411081,19.7041324 96.5534862,20.0039132 96.8410887,20.2441955 L96.8410887,20.2441955 C97.1286913,20.4867663 97.4861003,20.6080516 97.916108,20.6080516 L97.916108,20.6080516 C98.3461157,20.6080516 98.706317,20.4867663 98.9911273,20.2441955 L98.9911273,20.2441955 C99.2815221,20.0039132 99.4239273,19.7041324 99.4239273,19.3402763 L99.4239273,19.3402763 C99.4239273,18.980997 99.2815221,18.6812161 98.9911273,18.436357 L98.9911273,18.436357 C98.706317,18.1960747 98.3461157,18.0770777 97.916108,18.0770777 L97.916108,18.0770777 C97.4861003,18.0770777 97.1286913,18.1960747 96.8410887,18.436357 L96.8410887,18.436357 Z M96.6260849,39.1670017 L99.1363247,39.1670017 L99.1363247,24.1024433 L96.6260849,24.1024433 L96.6260849,39.1670017 Z" id="Fill-35" fill="url(#linearGradient-21)"></path>
                        <mask id="mask-23" fill="white">
                            <use xlink:href="#path-22"></use>
                        </mask>
                        <g id="Clip-39"></g>
                        <path d="M105.697121,24.7525998 C104.752157,25.1850569 103.922001,25.775395 103.213278,26.5281906 L103.213278,26.5281906 C102.506763,27.2832742 101.948174,28.1619171 101.53972,29.1664072 L101.53972,29.1664072 C101.135681,30.1708973 100.93035,31.2440313 100.93035,32.3880975 L100.93035,32.3880975 C100.93035,33.5321637 101.135681,34.6075859 101.53972,35.612076 L101.53972,35.612076 C101.948174,36.6165661 102.506763,37.495209 103.213278,38.2480045 L103.213278,38.2480045 C103.922001,39.0008 104.752157,39.5934263 105.697121,40.0258833 L105.697121,40.0258833 C106.642085,40.4560522 107.653285,40.6734248 108.730721,40.6734248 L108.730721,40.6734248 C109.810365,40.6734248 110.821565,40.4560522 111.768737,40.0258833 L111.768737,40.0258833 C112.711493,39.5934263 113.539441,39.0008 114.250372,38.2480045 L114.250372,38.2480045 C114.959095,37.495209 115.51106,36.6165661 115.908475,35.612076 L115.908475,35.612076 L115.994582,35.3718221 L113.8088,35.3718221 C113.543857,35.8935163 113.221509,36.3534309 112.843965,36.7561422 L112.843965,36.7561422 C112.316286,37.3190228 111.695878,37.7606323 110.987154,38.083259 L110.987154,38.083259 C110.278431,38.4035975 109.525551,38.5637668 108.730721,38.5637668 L108.730721,38.5637668 C107.935891,38.5637668 107.185219,38.4035975 106.476496,38.083259 L106.476496,38.083259 C105.767773,37.7606323 105.149572,37.3190228 104.617477,36.7561422 L104.617477,36.7561422 C104.089799,36.1955498 103.672513,35.5365677 103.370036,34.7837721 L103.370036,34.7837721 C103.067559,34.0309766 102.917425,33.2324184 102.917425,32.3880975 L102.917425,32.3880975 C102.917425,31.5460648 103.067559,30.7475066 103.370036,29.9924229 L103.370036,29.9924229 C103.672513,29.2396274 104.089799,28.5829334 104.617477,28.0200529 L104.617477,28.0200529 C105.149572,27.4571723 105.767773,27.0155627 106.476496,26.6952242 L106.476496,26.6952242 C107.185219,26.3725976 107.935891,26.2124283 108.730721,26.2124283 L108.730721,26.2124283 C109.525551,26.2124283 110.278431,26.3725976 110.987154,26.6952242 L110.987154,26.6952242 C111.695878,27.0155627 112.316286,27.4571723 112.843965,28.0200529 L112.843965,28.0200529 C113.221509,28.4227641 113.535025,28.8758144 113.780098,29.3746272 L113.780098,29.3746272 L115.994582,29.3746272 L115.908475,29.1664072 C115.51106,28.1619171 114.959095,27.2832742 114.250372,26.5281906 L114.250372,26.5281906 C113.539441,25.775395 112.711493,25.1850569 111.768737,24.7525998 L111.768737,24.7525998 C110.821565,24.3201428 109.810365,24.1027703 108.730721,24.1027703 L108.730721,24.1027703 C107.653285,24.1027703 106.642085,24.3201428 105.697121,24.7525998" id="Fill-38" fill="url(#linearGradient-24)"></path>
                        <mask id="mask-26" fill="white">
                            <use xlink:href="#path-25"></use>
                        </mask>
                        <g id="Clip-42"></g>
                        <path d="M127.676201,24.1027703 L127.676201,32.3888985 C127.676201,33.0319258 127.569884,33.6337628 127.355165,34.1944094 L127.355165,34.1944094 C127.14253,34.7596327 126.848594,35.2447637 126.473356,35.6566673 L126.473356,35.6566673 C126.098118,36.068571 125.660341,36.3935172 125.160024,36.6360826 L125.160024,36.6360826 C124.659707,36.8763598 124.123951,36.9976425 123.552756,36.9976425 L123.552756,36.9976425 C122.981561,36.9976425 122.449974,36.8763598 121.957995,36.6360826 L121.957995,36.6360826 C121.468102,36.3935172 121.034494,36.068571 120.659256,35.6566673 L120.659256,35.6566673 C120.284018,35.2447637 119.990082,34.7596327 119.775363,34.1944094 L119.775363,34.1944094 C119.562728,33.6337628 119.45641,33.0319258 119.45641,32.3888985 L119.45641,32.3888985 L119.45641,32.3568615 L119.42931,24.1027703 L117.501005,24.1027703 L117.526021,32.3568615 L117.526021,32.3888985 C117.526021,33.3111049 117.688624,34.185256 118.009661,35.0090633 L118.009661,35.0090633 C118.330697,35.8328705 118.762221,36.5514136 119.3084,37.162404 L119.3084,37.162404 C119.852495,37.7756827 120.490399,38.263102 121.222112,38.6246619 L121.222112,38.6246619 C121.953826,38.9862217 122.731402,39.1670017 123.552756,39.1670017 L123.552756,39.1670017 C124.374109,39.1670017 125.151685,38.9862217 125.883399,38.6246619 L125.883399,38.6246619 C126.615113,38.263102 127.253017,37.7756827 127.799196,37.162404 L127.799196,37.162404 C128.343291,36.5514136 128.770645,35.8328705 129.083343,35.0090633 L129.083343,35.0090633 C129.396041,34.185256 129.55239,33.3111049 129.55239,32.3888985 L129.55239,32.3888985 L129.55239,24.1027703 L127.676201,24.1027703 Z" id="Fill-41" fill="url(#linearGradient-27)"></path>
                        <mask id="mask-29" fill="white">
                            <use xlink:href="#path-28"></use>
                        </mask>
                        <g id="Clip-45"></g>
                        <path d="M134.458297,24.5100578 C133.818572,24.7800574 133.271528,25.1301417 132.817165,25.5625987 L132.817165,25.5625987 C132.362802,25.9950557 132.007902,26.4892923 131.756985,27.0498847 L131.756985,27.0498847 C131.506068,27.6127653 131.417908,28.2214085 131.494766,28.8849669 L131.494766,28.8849669 C131.594228,29.7247115 131.874532,30.4271681 132.337937,30.9900487 L132.337937,30.9900487 C132.803602,31.5506411 133.355167,31.9693693 133.994892,32.2530977 L133.994892,32.2530977 C134.632356,32.5322499 135.330855,32.7725038 136.085866,32.9738594 L136.085866,32.9738594 C136.840877,33.1729269 137.469299,33.3925876 137.973393,33.6351297 L137.973393,33.6351297 C138.475227,33.8753836 138.859514,34.1865696 139.121733,34.5663995 L139.121733,34.5663995 C139.381692,34.9485176 139.501499,35.4770762 139.483415,36.1589397 L139.483415,36.1589397 C139.444986,36.822498 139.185027,37.3853786 138.71032,37.8567339 L138.71032,37.8567339 C138.233352,38.3303773 137.51903,38.5637668 136.565094,38.5637668 L136.565094,38.5637668 C135.728705,38.58436 135.04377,38.41275 134.508028,38.0420726 L134.508028,38.0420726 C133.974547,37.6736833 133.606084,37.2663957 133.400377,36.8179218 L133.400377,36.8179218 C133.196931,36.371736 133.092948,35.88894 133.092948,35.3718221 L133.092948,35.3718221 L131.060747,35.3718221 C131.040403,36.234448 131.180555,36.9826673 131.481203,37.6141918 L131.481203,37.6141918 C131.781851,38.2480045 132.184222,38.7902919 132.688316,39.2410539 L132.688316,39.2410539 C133.19015,39.6941042 133.771101,40.0441884 134.42891,40.295883 L134.42891,40.295883 C135.08898,40.5475775 135.755831,40.6734248 136.433984,40.6734248 L136.433984,40.6734248 C137.109877,40.6734248 137.763165,40.572747 138.393848,40.3713913 L138.393848,40.3713913 C139.022271,40.1700357 139.573835,39.8794429 140.048543,39.4996129 L140.048543,39.4996129 C140.525511,39.1174948 140.900756,38.6438514 141.181059,38.083259 L141.181059,38.083259 C141.461363,37.5203784 141.603775,36.8888539 141.603775,36.1863972 L141.603775,36.1863972 C141.603775,35.2413986 141.429716,34.4588573 141.079336,33.8341972 L141.079336,33.8341972 C140.731218,33.2141133 140.242947,32.6947073 139.612264,32.2828434 L139.612264,32.2828434 C138.983842,31.8709796 138.310209,31.5460648 137.595888,31.3058109 L137.595888,31.3058109 C136.879305,31.0632689 136.226017,30.8344557 135.636024,30.6102187 L135.636024,30.6102187 C135.04377,30.390558 134.569062,30.1503041 134.211901,29.8871689 L134.211901,29.8871689 C133.85248,29.6286099 133.626429,29.2556443 133.529226,28.7728484 L133.529226,28.7728484 C133.432024,28.2328492 133.572176,27.7203075 133.951942,27.2375116 L133.951942,27.2375116 C134.327187,26.7570038 134.7386,26.4343771 135.183921,26.2742079 L135.183921,26.2742079 C135.629242,26.1140386 136.047437,26.0316658 136.433984,26.0316658 L136.433984,26.0316658 C137.014936,26.0316658 137.546156,26.1872588 138.029906,26.4984448 L138.029906,26.4984448 C138.513655,26.811919 138.84369,27.2581048 139.02001,27.8392904 L139.02001,27.8392904 L141.196883,27.8392904 C141.158454,27.5395451 141.027345,27.175732 140.805815,26.7570038 L140.805815,26.7570038 C140.582024,26.3336993 140.276855,25.9172592 139.890307,25.5053954 L139.890307,25.5053954 C139.501499,25.0935316 139.022271,24.7571761 138.450361,24.496329 L138.450361,24.496329 C137.880712,24.2354819 137.20934,24.1027703 136.433984,24.1027703 L136.433984,24.1027703 C135.755831,24.1027703 135.095761,24.2400582 134.458297,24.5100578" id="Fill-44" fill="url(#linearGradient-30)"></path>
                        <polygon id="Fill-47" fill="#185D93" points="60.2569256 43.6862711 60.2569256 49.7119636 63.2697719 49.7119636 63.2697719 49.0567083 60.9541619 49.0567083 60.9541619 46.8850682 63.0242662 46.8850682 63.0242662 46.2430951 60.9541619 46.2430951 60.9541619 44.3393127 63.1519292 44.3393127 63.1519292 43.6862711"></polygon>
                        <path d="M67.7941325,47.9052978 C67.7941325,48.3606033 67.8029784,48.7518123 67.8295161,49.0921862 L67.1329024,49.0921862 L67.088673,48.3871259 L67.0709812,48.3871259 C66.8741602,48.7363407 66.4097511,49.1894359 65.6423704,49.1894359 C64.9634485,49.1894359 64.1518383,48.8070678 64.1518383,47.2974872 L64.1518383,44.7734154 L64.9369109,44.7734154 L64.9369109,47.1560331 C64.9369109,47.9760249 65.1956531,48.5396311 65.9011126,48.5396311 C66.4274429,48.5396311 66.7945472,48.1727345 66.9360814,47.816889 C66.9825223,47.7085882 67.00906,47.5671341 67.00906,47.4146289 L67.00906,44.7734154 L67.7941325,44.7734154 L67.7941325,47.9052978 Z" id="Fill-48" fill="#185D93"></path>
                        <path d="M69.0980163,46.1205448 C69.0980163,45.6121941 69.0891704,45.1745704 69.0626328,44.7723103 L69.7504005,44.7723103 L69.7857841,45.6298758 L69.8123217,45.6298758 C70.0091427,45.0507981 70.4912436,44.6839015 71.0175739,44.6839015 C71.0971869,44.6839015 71.1613196,44.6927423 71.2320867,44.7015832 L71.2320867,45.4420071 C71.1524737,45.4243253 71.0706492,45.4243253 70.9644986,45.4243253 C70.4116306,45.4243253 70.0179886,45.8354263 69.9096265,46.423345 C69.8919347,46.5316458 69.8830888,46.664259 69.8830888,46.7902416 L69.8830888,49.0910811 L69.0980163,49.0910811 L69.0980163,46.1205448 Z" id="Fill-50" fill="#185D93"></path>
                        <path d="M72.4200894,46.9414207 C72.4200894,47.8873951 72.9552656,48.6012963 73.7248578,48.6012963 C74.4745467,48.6012963 75.0362606,47.8962359 75.0362606,46.9237389 C75.0362606,46.1921559 74.6691563,45.2727042 73.7425495,45.2727042 C72.8225772,45.2727042 72.4200894,46.1302698 72.4200894,46.9414207 M75.8390249,46.8972163 C75.8390249,48.4929955 74.724443,49.1892149 73.6872627,49.1892149 C72.52624,49.1892149 71.6173251,48.3338596 71.6173251,46.9679433 C71.6173251,45.5313 72.5726809,44.6847856 73.7602413,44.6847856 C75.000877,44.6847856 75.8390249,45.5843453 75.8390249,46.8972163" id="Fill-52" fill="#185D93"></path>
                        <path d="M77.6082024,47.3341769 C77.6082024,47.4491083 77.6170482,47.5574091 77.6435859,47.6546588 C77.7873316,48.2005833 78.2605866,48.5741106 78.8223004,48.5741106 C79.6516024,48.5741106 80.1359147,47.8955729 80.1359147,46.9053941 C80.1359147,46.0500388 79.6803515,45.3074047 78.8488381,45.3074047 C78.3136619,45.3074047 77.8050234,45.6831422 77.6612777,46.2710608 C77.63474,46.3705207 77.6082024,46.4854522 77.6082024,46.5849121 L77.6082024,47.3341769 Z M76.8319757,46.182652 C76.8319757,45.6300969 76.814284,45.1836323 76.7965922,44.7725313 L77.4909944,44.7725313 L77.5374353,45.5129552 L77.555127,45.5129552 C77.8669446,44.9869227 78.384429,44.6841225 79.0898885,44.6841225 C80.1447606,44.6841225 80.9298331,45.5682107 80.9298331,46.8700306 C80.9298331,48.4238156 79.9744773,49.1907621 78.9572002,49.1907621 C78.384429,49.1907621 77.8846363,48.9410072 77.6258941,48.5122244 L77.6082024,48.5122244 L77.6082024,50.8594786 L76.8319757,50.8594786 L76.8319757,46.182652 Z" id="Fill-54" fill="#185D93"></path>
                        <path d="M84.6535094,46.513301 C84.6623553,46.022632 84.4478426,45.2468446 83.5632538,45.2468446 C82.7604895,45.2468446 82.4221343,45.9695867 82.3580016,46.513301 L84.6535094,46.513301 Z M82.3491557,47.074697 C82.3668475,48.137813 83.0369235,48.5754367 83.8308419,48.5754367 C84.3947672,48.5754367 84.7419683,48.4759768 85.0294597,48.3522044 L85.1709939,48.9136004 C84.8945599,49.039583 84.412459,49.189878 83.7246912,49.189878 C82.3955967,49.189878 81.5994668,48.3057898 81.5994668,47.0039699 C81.5994668,45.70215 82.3668475,44.6832384 83.6273865,44.6832384 C85.0471514,44.6832384 85.4120443,45.9143312 85.4120443,46.7100106 C85.4120443,46.8691465 85.4031984,46.9862882 85.3855066,47.074697 L82.3491557,47.074697 Z" id="Fill-56" fill="#185D93"></path>
                        <path d="M87.1449536,42.9168302 C86.9392868,43.6660949 86.5567021,44.6297511 86.3134402,45.0408521 L85.8136476,45.0938974 C86.0016227,44.5678649 86.2426731,43.6484132 86.3421894,43.005239 L87.1449536,42.9168302 Z" id="Fill-58" fill="#185D93"></path>
                        <path d="M87.2610559,48.297833 C87.5021063,48.4392871 87.9134401,48.6006332 88.3048706,48.6006332 C88.868796,48.6006332 89.1363841,48.3243556 89.1363841,47.9596693 C89.1363841,47.5839318 88.9130254,47.3872222 88.3402542,47.1728308 C87.5551817,46.8877123 87.1902888,46.4677704 87.1902888,45.9505788 C87.1902888,45.2543594 87.7608486,44.6841225 88.6808208,44.6841225 C89.1186923,44.6841225 89.5012769,44.799054 89.7334815,44.9515592 L89.5477178,45.5217961 C89.3774345,45.4157055 89.065617,45.2632003 88.6631291,45.2632003 C88.19872,45.2632003 87.9488237,45.5306369 87.9488237,45.8533291 C87.9488237,46.2091746 88.19872,46.3705207 88.7604338,46.593753 C89.5012769,46.8700306 89.8949189,47.245768 89.8949189,47.886732 C89.8949189,48.6536785 89.2978215,49.1907621 88.2871789,49.1907621 C87.8139239,49.1907621 87.3782639,49.0647795 87.0730808,48.8857516 L87.2610559,48.297833 Z" id="Fill-60" fill="#185D93"></path>
                        <path d="M95.5388163,46.513301 C95.5476621,46.022632 95.3331494,45.2468446 94.4485606,45.2468446 C93.6457963,45.2468446 93.3074411,45.9695867 93.2433085,46.513301 L95.5388163,46.513301 Z M93.2344626,47.074697 C93.2521543,48.137813 93.9222303,48.5754367 94.7161487,48.5754367 C95.280074,48.5754367 95.6272751,48.4759768 95.9147665,48.3522044 L96.0563007,48.9136004 C95.7798667,49.039583 95.2977658,49.189878 94.6099981,49.189878 C93.278692,49.189878 92.4847736,48.3057898 92.4847736,47.0039699 C92.4847736,45.70215 93.2521543,44.6832384 94.5126933,44.6832384 C95.9324582,44.6832384 96.2973511,45.9143312 96.2973511,46.7100106 C96.2973511,46.8691465 96.2885052,46.9862882 96.2708134,47.074697 L93.2344626,47.074697 Z" id="Fill-62" fill="#185D93"></path>
                        <path d="M97.5570055,44.7729734 L98.4946696,47.325778 C98.6008202,47.6108965 98.7091823,47.9490602 98.7799494,48.207656 L98.7976412,48.207656 C98.8794657,47.9490602 98.9679245,47.6197373 99.0740752,47.3080963 L99.9321263,44.7729734 L100.76364,44.7729734 L99.5849252,47.8518105 C99.0209999,49.3326582 98.6362038,50.081923 98.1010276,50.5549102 C97.709597,50.8864432 97.3336468,51.0190565 97.1368258,51.05442 L96.9400048,50.4046152 C97.1368258,50.3405188 97.395568,50.2167464 97.6277726,50.0200368 C97.8422854,49.8498498 98.1010276,49.5470496 98.2890027,49.1447895 C98.3243862,49.0652216 98.3509239,49.0033354 98.3509239,48.959131 C98.3509239,48.9127163 98.3332321,48.8508302 98.2890027,48.7535805 L96.6989544,44.7729734 L97.5570055,44.7729734 Z" id="Fill-64" fill="#185D93"></path>
                        <path d="M104.129058,46.513301 C104.137903,46.022632 103.923391,45.2468446 103.038802,45.2468446 C102.236038,45.2468446 101.897682,45.9695867 101.83355,46.513301 L104.129058,46.513301 Z M101.824704,47.074697 C101.842396,48.137813 102.512472,48.5754367 103.308602,48.5754367 C103.870315,48.5754367 104.217516,48.4759768 104.505008,48.3522044 L104.646542,48.9136004 C104.370108,49.039583 103.888007,49.189878 103.200239,49.189878 C101.871145,49.189878 101.075015,48.3057898 101.075015,47.0039699 C101.075015,45.70215 101.842396,44.6832384 103.102935,44.6832384 C104.5227,44.6832384 104.887592,45.9143312 104.887592,46.7100106 C104.887592,46.8691465 104.878747,46.9862882 104.861055,47.074697 L101.824704,47.074697 Z" id="Fill-66" fill="#185D93"></path>
                        <path d="M105.754489,48.297833 C105.99554,48.4392871 106.406874,48.6006332 106.798304,48.6006332 C107.362229,48.6006332 107.629818,48.3243556 107.629818,47.9596693 C107.629818,47.5839318 107.406459,47.3872222 106.833688,47.1728308 C106.048615,46.8877123 105.683722,46.4677704 105.683722,45.9505788 C105.683722,45.2543594 106.254282,44.6841225 107.174254,44.6841225 C107.612126,44.6841225 107.99471,44.799054 108.226915,44.9515592 L108.041151,45.5217961 C107.870868,45.4157055 107.55905,45.2632003 107.156563,45.2632003 C106.692153,45.2632003 106.442257,45.5306369 106.442257,45.8533291 C106.442257,46.2091746 106.692153,46.3705207 107.253867,46.593753 C107.99471,46.8700306 108.388352,47.245768 108.388352,47.886732 C108.388352,48.6536785 107.791255,49.1907621 106.780612,49.1907621 C106.307357,49.1907621 105.871697,49.0647795 105.566514,48.8857516 L105.754489,48.297833 Z" id="Fill-68" fill="#185D93"></path>
                        <path d="M111.782077,46.9414207 C111.782077,47.8873951 112.317253,48.6012963 113.084634,48.6012963 C113.836534,48.6012963 114.398248,47.8962359 114.398248,46.9237389 C114.398248,46.1921559 114.031144,45.2727042 113.104537,45.2727042 C112.184565,45.2727042 111.782077,46.1302698 111.782077,46.9414207 M115.201013,46.8972163 C115.201013,48.4929955 114.086431,49.1892149 113.04925,49.1892149 C111.888228,49.1892149 110.979313,48.3338596 110.979313,46.9679433 C110.979313,45.5313 111.934669,44.6847856 113.122229,44.6847856 C114.362865,44.6847856 115.201013,45.5843453 115.201013,46.8972163" id="Fill-70" fill="#185D93"></path>
                        <path d="M116.1933,45.941959 C116.1933,45.4866535 116.184454,45.130808 116.157916,44.7727523 L116.85453,44.7727523 L116.89876,45.4866535 L116.916451,45.4866535 C117.130964,45.0843934 117.630757,44.6843435 118.345062,44.6843435 C118.94216,44.6843435 119.870978,45.040189 119.870978,46.5210367 L119.870978,49.0915232 L119.085905,49.0915232 L119.085905,46.6028149 C119.085905,45.9065954 118.827163,45.3253075 118.08632,45.3253075 C117.577681,45.3253075 117.175194,45.6922041 117.033659,46.1298277 C116.996064,46.2270774 116.978373,46.3619009 116.978373,46.4945141 L116.978373,49.0915232 L116.1933,49.0915232 L116.1933,45.941959 Z" id="Fill-72" fill="#185D93"></path>
                        <polygon id="Fill-74" fill="#185D93" points="126.176105 46.2719449 123.845214 46.2719449 123.845214 48.4401712 126.452539 48.4401712 126.452539 49.0921862 123.060141 49.0921862 123.060141 43.0781763 126.319851 43.0781763 126.319851 43.7279811 123.845214 43.7279811 123.845214 45.6287707 126.176105 45.6287707"></polygon>
                        <path d="M129.71247,46.8879333 C128.854419,46.8702516 127.881371,47.0227568 127.881371,47.8604304 C127.881371,48.377622 128.221938,48.6096951 128.613368,48.6096951 C129.18614,48.6096951 129.551032,48.2538496 129.677086,47.886953 C129.703624,47.7985442 129.71247,47.7079251 129.71247,47.6371981 L129.71247,46.8879333 Z M130.471005,48.05714 C130.471005,48.4306672 130.488696,48.7975639 130.532926,49.0915232 L129.827466,49.0915232 L129.765545,48.5478089 L129.739008,48.5478089 C129.497957,48.8859727 129.033548,49.1909831 128.416547,49.1909831 C127.543016,49.1909831 127.096299,48.5743316 127.096299,47.9488392 C127.096299,46.9056151 128.025117,46.3353782 129.694778,46.3442191 L129.694778,46.2536001 C129.694778,45.9065954 129.597473,45.2545804 128.712885,45.2634213 C128.301551,45.2634213 127.881371,45.380563 127.5784,45.5839033 L127.39927,45.0578708 C127.757529,44.8346385 128.283859,44.6843435 128.827881,44.6843435 C130.150341,44.6843435 130.471005,45.5839033 130.471005,46.4414688 L130.471005,48.05714 Z" id="Fill-76" fill="#185D93"></path>
                        <path d="M131.739726,46.1205448 C131.739726,45.6121941 131.73088,45.1745704 131.704343,44.7723103 L132.39211,44.7723103 L132.427494,45.6298758 L132.454032,45.6298758 C132.650853,45.0507981 133.132953,44.6839015 133.659284,44.6839015 C133.738897,44.6839015 133.803029,44.6927423 133.873796,44.7015832 L133.873796,45.4420071 C133.791972,45.4243253 133.712359,45.4243253 133.606208,45.4243253 C133.051129,45.4243253 132.659698,45.8354263 132.551336,46.423345 C132.533645,46.5316458 132.524799,46.664259 132.524799,46.7902416 L132.524799,49.0910811 L131.739726,49.0910811 L131.739726,46.1205448 Z" id="Fill-78" fill="#185D93"></path>
                        <path d="M135.820555,43.7377061 L135.820555,44.7720893 L136.946194,44.7720893 L136.946194,45.371059 L135.820555,45.371059 L135.820555,47.7006314 C135.820555,48.2355048 135.973147,48.538305 136.411018,48.538305 C136.623319,48.538305 136.749373,48.5206232 136.86437,48.4852597 L136.899753,49.0820192 C136.749373,49.1372747 136.508323,49.19032 136.205351,49.19032 C135.838247,49.19032 135.544121,49.0643375 135.356146,48.8609972 C135.141633,48.6178729 135.053174,48.2355048 135.053174,47.7271541 L135.053174,45.371059 L134.383098,45.371059 L134.383098,44.7720893 L135.053174,44.7720893 L135.053174,43.9697792 L135.820555,43.7377061 Z" id="Fill-80" fill="#185D93"></path>
                        <path d="M137.829898,42.7563682 L138.614971,42.7563682 L138.614971,45.4594678 L138.632663,45.4594678 C138.758717,45.2362356 138.955538,45.0328953 139.196588,44.8980718 C139.428793,44.7632484 139.705227,44.6836804 139.999352,44.6836804 C140.578758,44.6836804 141.507576,45.0417362 141.507576,46.5225839 L141.507576,49.0930703 L140.722504,49.0930703 L140.722504,46.6109927 C140.722504,45.9147733 140.463761,45.3356955 139.722918,45.3356955 C139.21428,45.3356955 138.820638,45.691541 138.670258,46.1114829 C138.623817,46.2286246 138.614971,46.343556 138.614971,46.4872204 L138.614971,49.0930703 L137.829898,49.0930703 L137.829898,42.7563682 Z" id="Fill-82" fill="#185D93"></path>
                    </g>
                    <g id="Group-14">
                        <polygon id="Fill-1" fill="#FFFFFF" points="0 49 72 49 72 0 0 0"></polygon>
                        <polygon id="Fill-2" fill="#004494" points="2 47 71 47 71 1 2 1"></polygon>
                        <polygon id="Fill-3" fill="#FFED00" points="34.9702636 12 36.5 10.824669 38.0282036 12 37.4472716 10.099774 39 8.92444301 37.0855303 8.92444301 36.5 7 35.9129368 8.92605747 34 8.92444301 35.5527284 10.099774"></polygon>
                        <polygon id="Fill-4" fill="#FFED00" points="26.9705612 14 28.5007666 12.8250484 30.0294388 14 29.4483287 12.1003873 31 10.9254358 29.0849433 10.9254358 28.4992334 9 27.9135235 10.9270497 26 10.9254358 27.5516713 12.1003873"></polygon>
                        <polygon id="Fill-5" fill="#FFED00" points="22.5 14 21.9141104 15.9270497 20 15.9254358 21.5521472 17.1003873 20.9693252 19 22.5 17.8250484 24.0306748 19 23.4478528 17.1003873 25 15.9254358 23.0858896 15.9254358"></polygon>
                        <polygon id="Fill-6" fill="#FFED00" points="20.5 25.8250484 22.0282036 27 21.4472716 25.1003873 23 23.9254358 21.0855303 23.9254358 20.5 22 19.9144697 23.9286637 18 23.9254358 19.5527284 25.1003873 18.9702636 27"></polygon>
                        <polygon id="Fill-7" fill="#FFED00" points="23.0864765 30.9254358 22.5007666 29 21.9150567 30.9270497 20 30.9254358 21.5532045 32.1003873 20.9705612 34 22.5007666 32.8234345 24.0294388 34 23.4483287 32.1003873 25 30.9254358"></polygon>
                        <polygon id="Fill-8" fill="#FFED00" points="29.0855303 36.924443 28.5 35 27.9144697 36.9260575 26 36.924443 27.5527284 38.099774 26.9717964 40 28.5 38.824669 30.0282036 40 29.4472716 38.099774 31 36.924443"></polygon>
                        <polygon id="Fill-9" fill="#FFED00" points="37.0855303 38.9254358 36.5 37 35.9144697 38.9270497 34 38.9254358 35.5527284 40.1003873 34.9717964 42 36.5 40.8250484 38.0282036 42 37.4472716 40.1003873 39 38.9254358"></polygon>
                        <polygon id="Fill-10" fill="#FFED00" points="44.0849433 36.924443 43.4992334 35 42.9135235 36.9260575 41 36.924443 42.5516713 38.099774 41.9705612 40 43.4992334 38.824669 45.0294388 40 44.4467955 38.099774 46 36.924443"></polygon>
                        <polygon id="Fill-11" fill="#FFED00" points="50.0874233 30.9254358 49.5 29 48.9125767 30.9270497 47 30.9254358 48.553681 32.1003873 47.9708589 34 49.5 32.8234345 51.0306748 34 50.446319 32.1003873 52 30.9254358"></polygon>
                        <polygon id="Fill-12" fill="#FFED00" points="54 23.9254358 52.0855303 23.9254358 51.4984672 22 50.9144697 23.9270497 49 23.9254358 50.5527284 25.1003873 49.9717964 27 51.4984672 25.8234345 53.0282036 27 52.4472716 25.1003873"></polygon>
                        <polygon id="Fill-13" fill="#FFED00" points="47.9705612 19 49.5007666 17.824669 51.0294388 19 50.4467955 17.099774 52 15.9260575 50.0864765 15.9260575 49.5007666 14 48.9135235 15.9276719 47 15.9260575 48.5532045 17.099774"></polygon>
                        <polygon id="Fill-14" fill="#FFED00" points="43.4984672 9 42.9129368 10.9270497 41 10.9238218 42.5496628 12.1003873 41.9702636 14 43.5 12.8234345 45.0282036 14 44.4472716 12.1003873 46 10.9238218 44.0839975 10.9238218"></polygon>
                        <path d="M89.2136972,16.0919304 L89.2136972,18.2501782 L90.0534094,18.2501782 C90.6597051,18.2501782 91.0648809,18.2090966 91.2674689,18.1313351 C91.4729928,18.0506393 91.6315399,17.9259275 91.7489822,17.7571997 C91.8649564,17.588472 91.9222095,17.3904003 91.9222095,17.1644519 C91.9222095,16.8886187 91.8414679,16.6612031 91.6785168,16.482205 C91.5155656,16.3017397 91.3100417,16.1887655 91.0604769,16.1432823 C90.8769733,16.1095368 90.5084982,16.0919304 89.9550515,16.0919304 L89.2136972,16.0919304 Z M87.6781396,22.4096835 L87.6781396,14.8051981 L90.1414911,14.8051981 C91.0766252,14.8051981 91.6858569,14.8433452 91.9691864,14.9196395 C92.4051908,15.0340809 92.7692618,15.2820373 93.0643355,15.6649759 C93.3579412,16.0464473 93.504744,16.5408929 93.504744,17.1453783 C93.504744,17.6119472 93.4195984,18.0051562 93.2507751,18.323538 C93.0804839,18.6404527 92.8661517,18.8898763 92.6048427,19.0718088 C92.3435336,19.2522742 92.0778205,19.3725844 91.8077033,19.4312723 C91.4421642,19.5046322 90.910738,19.5413121 90.2148925,19.5413121 L89.2136972,19.5413121 L89.2136972,22.4096835 L87.6781396,22.4096835 Z" id="Fill-84" fill="#87888A"></path>
                        <path d="M96.3072102,18.0220289 L97.4434641,18.0220289 C98.1804143,18.0220289 98.6399072,17.9912178 98.8234107,17.9295955 C99.0069143,17.866506 99.1507811,17.7579333 99.2550111,17.606812 C99.3592411,17.4542234 99.4106221,17.2634877 99.4106221,17.0360721 C99.4106221,16.7793125 99.3416247,16.5739048 99.2050981,16.4154475 C99.0685715,16.2599245 98.8762598,16.1586879 98.6266949,16.1176064 C98.5019125,16.1 98.1290333,16.092664 97.5051213,16.092664 L96.3072102,16.092664 L96.3072102,18.0220289 Z M94.7716525,22.4089499 L94.7716525,14.8059317 L98.0042509,14.8059317 C98.8160706,14.8059317 99.407686,14.8734228 99.7761611,15.0098721 C100.144636,15.1477887 100.43971,15.3898763 100.661382,15.7390694 C100.883054,16.0897296 100.993157,16.4873402 100.993157,16.9377699 C100.993157,17.5070425 100.825801,17.9794802 100.489623,18.3521484 C100.154912,18.7233494 99.6528467,18.9566338 98.9848939,19.0534689 C99.3166683,19.247139 99.5911896,19.4598826 99.8069897,19.6916999 C100.02279,19.9235171 100.314928,20.3343324 100.681935,20.9256131 L101.611197,22.4089499 L99.7732251,22.4089499 L98.6633956,20.753951 C98.268496,20.1641375 97.9983788,19.7914693 97.853044,19.6374135 C97.7077092,19.4833578 97.5550342,19.3777196 97.3920831,19.3204988 C97.229132,19.2647453 96.970759,19.2354014 96.6184322,19.2354014 L96.3072102,19.2354014 L96.3072102,22.4089499 L94.7716525,22.4089499 Z" id="Fill-86" fill="#87888A"></path>
                        <path d="M103.711945,18.6023056 C103.711945,19.4635506 103.911597,20.1164536 104.309433,20.5610145 C104.707268,21.0055754 105.21227,21.2271222 105.824438,21.2271222 C106.436606,21.2271222 106.938671,21.0070425 107.332103,20.5654161 C107.724067,20.1252568 107.920782,19.4635506 107.920782,18.5817648 C107.920782,17.7117166 107.729939,17.0602809 107.348251,16.6318591 C106.965096,16.2019702 106.457158,15.9892266 105.824438,15.9892266 C105.191718,15.9892266 104.680844,16.2049046 104.293284,16.6391951 C103.905725,17.0734856 103.711945,17.7278558 103.711945,18.6023056 M102.129411,18.6536575 C102.129411,17.8804444 102.245385,17.2290086 102.477333,16.7037518 C102.650561,16.3164117 102.886913,15.970153 103.186391,15.6620415 C103.484401,15.35393 103.811771,15.1265144 104.168502,14.9768602 C104.642675,14.7773213 105.188782,14.6760847 105.80829,14.6760847 C106.929863,14.6760847 107.826829,15.0238105 108.499186,15.7192622 C109.171543,16.4147139 109.509189,17.38013 109.509189,18.6184448 C109.509189,19.8464892 109.174479,20.8060365 108.507994,21.500021 C107.840041,22.1925383 106.94748,22.5387969 105.828842,22.5387969 C104.69846,22.5387969 103.798559,22.1940054 103.130606,21.5044226 C102.462653,20.8148397 102.129411,19.8640956 102.129411,18.6536575" id="Fill-88" fill="#87888A"></path>
                        <path d="M114.246957,19.6137917 L114.246957,18.3329281 L117.557361,18.3329281 L117.557361,21.3612241 C117.235863,21.67227 116.770498,21.9466359 116.159798,22.1843219 C115.549098,22.4205408 114.92959,22.5379166 114.30421,22.5379166 C113.508539,22.5379166 112.814161,22.3721232 112.224014,22.0376022 C111.63093,21.7045483 111.187586,21.2277091 110.889576,20.6070845 C110.591566,19.9864599 110.443295,19.3115489 110.443295,18.5823517 C110.443295,17.790065 110.609183,17.0858101 110.940957,16.4695871 C111.2742,15.8548313 111.760117,15.3823936 112.400177,15.0552086 C112.887563,14.8028506 113.493858,14.6766716 114.220532,14.6766716 C115.164475,14.6766716 115.902893,14.8747432 116.434319,15.2694194 C116.965745,15.66703 117.306328,16.2142947 117.459003,16.9112136 L115.933721,17.1973171 C115.826555,16.8246489 115.623967,16.528275 115.328894,16.3125969 C115.03382,16.0969189 114.663877,15.9883463 114.220532,15.9883463 C113.549643,15.9883463 113.016749,16.2010899 112.620382,16.6265772 C112.224014,17.0520646 112.02583,17.6829595 112.02583,18.5192622 C112.02583,19.4215888 112.22695,20.0979669 112.627722,20.5498638 C113.028493,21.0002934 113.555516,21.2277091 114.205852,21.2277091 C114.52735,21.2277091 114.850317,21.1646196 115.173283,21.0384406 C115.497717,20.9122616 115.775174,20.7582058 116.005655,20.5777405 L116.005655,19.6137917 L114.246957,19.6137917 Z" id="Fill-90" fill="#87888A"></path>
                        <path d="M120.515438,18.0220289 L121.651692,18.0220289 C122.388642,18.0220289 122.848135,17.9912178 123.031639,17.9295955 C123.215142,17.866506 123.359009,17.7579333 123.463239,17.606812 C123.567469,17.4542234 123.61885,17.2634877 123.61885,17.0360721 C123.61885,16.7793125 123.549853,16.5739048 123.413326,16.4154475 C123.276799,16.2599245 123.084488,16.1586879 122.834923,16.1176064 C122.71014,16.1 122.337261,16.092664 121.713349,16.092664 L120.515438,16.092664 L120.515438,18.0220289 Z M118.97988,22.4089499 L118.97988,14.8059317 L122.212479,14.8059317 C123.024298,14.8059317 123.615914,14.8734228 123.984389,15.0098721 C124.352864,15.1477887 124.647938,15.3898763 124.86961,15.7390694 C125.091282,16.0897296 125.201384,16.4873402 125.201384,16.9377699 C125.201384,17.5070425 125.034029,17.9794802 124.697851,18.3521484 C124.36314,18.7233494 123.861075,18.9566338 123.193122,19.0534689 C123.524896,19.247139 123.799417,19.4598826 124.015217,19.6916999 C124.231018,19.9235171 124.523155,20.3343324 124.890162,20.9256131 L125.819424,22.4089499 L123.981453,22.4089499 L122.871623,20.753951 C122.476724,20.1641375 122.206607,19.7914693 122.061272,19.6374135 C121.915937,19.4833578 121.763262,19.3777196 121.600311,19.3204988 C121.43736,19.2647453 121.178987,19.2354014 120.82666,19.2354014 L120.515438,19.2354014 L120.515438,22.4089499 L118.97988,22.4089499 Z" id="Fill-92" fill="#87888A"></path>
                        <path d="M130.681975,19.4017816 L129.633802,16.5788933 L128.606183,19.4017816 L130.681975,19.4017816 Z M133.509397,22.4095368 L131.838781,22.4095368 L131.175232,20.6826451 L128.133477,20.6826451 L127.505161,22.4095368 L125.877118,22.4095368 L128.839599,14.8050514 L130.464706,14.8050514 L133.509397,22.4095368 Z" id="Fill-94" fill="#87888A"></path>
                        <polygon id="Fill-96" fill="#87888A" points="134.304041 22.4092433 134.304041 14.8047579 136.602973 14.8047579 137.98292 19.9927688 139.348186 14.8047579 141.651523 14.8047579 141.651523 22.4092433 140.224599 22.4092433 140.224599 16.4245441 138.713998 22.4092433 137.235694 22.4092433 135.730964 16.4245441 135.730964 22.4092433"></polygon>
                        <polygon id="Fill-98" fill="#87888A" points="143.156545 22.4092433 143.156545 14.8047579 145.455478 14.8047579 146.835424 19.9927688 148.200691 14.8047579 150.504027 14.8047579 150.504027 22.4092433 149.077104 22.4092433 149.077104 16.4245441 147.566503 22.4092433 146.088198 22.4092433 144.583469 16.4245441 144.583469 22.4092433"></polygon>
                        <polygon id="Fill-100" fill="#87888A" points="152.030777 22.4092433 152.030777 14.8047579 157.670942 14.8047579 157.670942 16.0914903 153.566334 16.0914903 153.566334 17.7787676 157.386144 17.7787676 157.386144 19.0596311 153.566334 19.0596311 153.566334 21.1283798 157.816276 21.1283798 157.816276 22.4092433"></polygon>
                        <path d="M163.342669,18.6023056 C163.342669,19.4635506 163.542321,20.1164536 163.940157,20.5610145 C164.337992,21.0055754 164.842994,21.2271222 165.455162,21.2271222 C166.06733,21.2271222 166.569395,21.0070425 166.962827,20.5654161 C167.354791,20.1252568 167.551506,19.4635506 167.551506,18.5817648 C167.551506,17.7117166 167.360663,17.0602809 166.978975,16.6318591 C166.59582,16.2019702 166.087882,15.9892266 165.455162,15.9892266 C164.822442,15.9892266 164.311568,16.2049046 163.924008,16.6391951 C163.536449,17.0734856 163.342669,17.7278558 163.342669,18.6023056 M161.760135,18.6536575 C161.760135,17.8804444 161.876109,17.2290086 162.108057,16.7037518 C162.281285,16.3164117 162.517637,15.970153 162.817115,15.6620415 C163.115125,15.35393 163.442495,15.1265144 163.799226,14.9768602 C164.273399,14.7773213 164.819506,14.6760847 165.439014,14.6760847 C166.560587,14.6760847 167.457553,15.0238105 168.12991,15.7192622 C168.802267,16.4147139 169.139913,17.38013 169.139913,18.6184448 C169.139913,19.8464892 168.805203,20.8060365 168.138718,21.500021 C167.470765,22.1925383 166.578204,22.5387969 165.459566,22.5387969 C164.329184,22.5387969 163.429283,22.1940054 162.76133,21.5044226 C162.093377,20.8148397 161.760135,19.8640956 161.760135,18.6536575" id="Fill-102" fill="#87888A"></path>
                        <polygon id="Fill-104" fill="#87888A" points="170.348834 22.4092433 170.348834 14.8047579 175.564739 14.8047579 175.564739 16.0914903 171.884392 16.0914903 171.884392 17.8917418 175.061205 17.8917418 175.061205 19.1784741 171.884392 19.1784741 171.884392 22.4092433"></polygon>
                        <polygon id="Fill-106" fill="#87888A" points="181.495867 22.4092433 181.495867 16.0914903 179.23804 16.0914903 179.23804 14.8047579 185.284848 14.8047579 185.284848 16.0914903 183.031425 16.0914903 183.031425 22.4092433"></polygon>
                        <polygon id="Fill-108" fill="#87888A" points="186.279878 22.4092433 186.279878 14.8047579 187.815436 14.8047579 187.815436 17.7978411 190.826362 17.7978411 190.826362 14.8047579 192.361919 14.8047579 192.361919 22.4092433 190.826362 22.4092433 190.826362 19.0845735 187.815436 19.0845735 187.815436 22.4092433"></polygon>
                        <polygon id="Fill-110" fill="#87888A" points="193.949739 22.4092433 193.949739 14.8047579 199.589904 14.8047579 199.589904 16.0914903 195.485297 16.0914903 195.485297 17.7787676 199.305106 17.7787676 199.305106 19.0596311 195.485297 19.0596311 195.485297 21.1283798 199.735239 21.1283798 199.735239 22.4092433"></polygon>
                        <polygon id="Fill-112" fill="#87888A" points="87.6775523 34.3058688 87.6775523 26.7013834 93.3177172 26.7013834 93.3177172 27.9881157 89.21311 27.9881157 89.21311 29.675393 93.0329197 29.675393 93.0329197 30.9562565 89.21311 30.9562565 89.21311 33.0250052 93.463052 33.0250052 93.463052 34.3058688"></polygon>
                        <path d="M94.7553574,26.7019702 L96.290915,26.7019702 L96.290915,30.8218612 C96.290915,31.4747642 96.3114674,31.8973171 96.3481681,32.0909872 C96.4142294,32.4035003 96.5713085,32.6529239 96.8179372,32.8407252 C97.066034,33.0285265 97.4036805,33.1238944 97.8323448,33.1238944 C98.2683492,33.1238944 98.5971876,33.0343953 98.8188598,32.8553972 C99.0405321,32.6778663 99.1726547,32.4592538 99.2181636,32.1995598 C99.2636724,31.9398659 99.2856929,31.5099769 99.2856929,30.9084259 L99.2856929,26.7019702 L100.821251,26.7019702 L100.821251,30.6971494 C100.821251,31.6097464 100.780146,32.2538462 100.696468,32.630916 C100.614259,33.0079857 100.461584,33.3263676 100.238443,33.5845944 C100.015303,33.8442884 99.7158252,34.0511633 99.342946,34.2037518 C98.9700668,34.3592748 98.4812133,34.4355691 97.8793217,34.4355691 C97.1526477,34.4355691 96.602137,34.3519388 96.2263218,34.1846783 C95.8519746,34.0159505 95.5539648,33.7988053 95.3366966,33.5303081 C95.1194284,33.2632781 94.9755616,32.9815762 94.9065643,32.6881367 C94.8052704,32.252379 94.7553574,31.6097464 94.7553574,30.7587717 L94.7553574,26.7019702 Z" id="Fill-114" fill="#87888A"></path>
                        <path d="M103.982209,29.9186544 L105.118463,29.9186544 C105.855413,29.9186544 106.314906,29.8878432 106.49841,29.8262209 C106.681913,29.7631314 106.82578,29.6545588 106.93001,29.5034374 C107.03424,29.3508489 107.085621,29.1601132 107.085621,28.9326975 C107.085621,28.675938 107.016624,28.4705303 106.880097,28.3120729 C106.74357,28.15655 106.551259,28.0553134 106.301694,28.0142318 C106.176912,27.9966254 105.804032,27.9892895 105.18012,27.9892895 L103.982209,27.9892895 L103.982209,29.9186544 Z M102.446651,34.3055754 L102.446651,26.7025571 L105.67925,26.7025571 C106.49107,26.7025571 107.082685,26.7700482 107.45116,26.9064976 C107.819635,27.0444142 108.114709,27.2865018 108.336381,27.6356948 C108.558053,27.9863551 108.668156,28.3839656 108.668156,28.8343953 C108.668156,29.403668 108.5008,29.8761056 108.164622,30.2487738 C107.829911,30.6199748 107.327846,30.8532593 106.659893,30.9500943 C106.991667,31.1437644 107.266189,31.3565081 107.481989,31.5883253 C107.697789,31.8201425 107.989927,32.2309579 108.356934,32.8222385 L109.286196,34.3055754 L107.448224,34.3055754 L106.338395,32.6505764 C105.943495,32.0607629 105.673378,31.6880947 105.528043,31.534039 C105.382708,31.3799832 105.230033,31.274345 105.067082,31.2171243 C104.904131,31.1613708 104.645758,31.1320268 104.293431,31.1320268 L103.982209,31.1320268 L103.982209,34.3055754 L102.446651,34.3055754 Z" id="Fill-116" fill="#87888A"></path>
                        <path d="M111.387531,30.498931 C111.387531,31.3601761 111.587183,32.013079 111.985019,32.4576399 C112.382855,32.9022008 112.887856,33.1237476 113.500024,33.1237476 C114.112192,33.1237476 114.614258,32.903668 115.007689,32.4620415 C115.399653,32.0218822 115.596369,31.3601761 115.596369,30.4783903 C115.596369,29.6083421 115.405525,28.9569063 115.023838,28.5284846 C114.640682,28.0985957 114.132744,27.885852 113.500024,27.885852 C112.867304,27.885852 112.35643,28.1015301 111.968871,28.5358206 C111.581311,28.9701111 111.387531,29.6244812 111.387531,30.498931 M109.804997,30.550283 C109.804997,29.7770698 109.920971,29.125634 110.152919,28.6003773 C110.326147,28.2130371 110.562499,27.8667785 110.861977,27.5586669 C111.159987,27.2505554 111.487357,27.0231398 111.844088,26.8734856 C112.318261,26.6739468 112.864368,26.5727101 113.483876,26.5727101 C114.605449,26.5727101 115.502415,26.920436 116.174772,27.6158877 C116.847129,28.3113393 117.184775,29.2767554 117.184775,30.5150702 C117.184775,31.7431147 116.850065,32.7026619 116.18358,33.3966464 C115.515627,34.0891637 114.623066,34.4354223 113.504428,34.4354223 C112.374046,34.4354223 111.474145,34.0906309 110.806192,33.401048 C110.138239,32.7114651 109.804997,31.760721 109.804997,30.550283" id="Fill-118" fill="#87888A"></path>
                        <path d="M119.918978,27.9885559 L119.918978,30.1468036 L120.75869,30.1468036 C121.364986,30.1468036 121.770162,30.1057221 121.97275,30.0279606 C122.178274,29.9472647 122.336821,29.8225529 122.454263,29.6538252 C122.570237,29.4850975 122.62749,29.2870258 122.62749,29.0610773 C122.62749,28.7852442 122.546749,28.5578285 122.383798,28.3788304 C122.220846,28.1983651 122.015322,28.0853909 121.765758,28.0399078 C121.582254,28.0061622 121.213779,27.9885559 120.660332,27.9885559 L119.918978,27.9885559 Z M118.38342,34.3063089 L118.38342,26.7018235 L120.846772,26.7018235 C121.781906,26.7018235 122.391138,26.7399707 122.674467,26.8162649 C123.110472,26.9307064 123.474543,27.1786628 123.769616,27.5616013 C124.063222,27.9430727 124.210025,28.4375183 124.210025,29.0420038 C124.210025,29.5085726 124.124879,29.9017816 123.956056,30.2201635 C123.785765,30.5370782 123.571433,30.7865018 123.310123,30.9684343 C123.048814,31.1488996 122.783101,31.2692098 122.512984,31.3278977 C122.147445,31.4012576 121.616019,31.4379375 120.920173,31.4379375 L119.918978,31.4379375 L119.918978,34.3063089 L118.38342,34.3063089 Z" id="Fill-120" fill="#87888A"></path>
                        <polygon id="Fill-122" fill="#87888A" points="125.471502 34.3058688 125.471502 26.7013834 131.111667 26.7013834 131.111667 27.9881157 127.007059 27.9881157 127.007059 29.675393 130.826869 29.675393 130.826869 30.9562565 127.007059 30.9562565 127.007059 33.0250052 131.257001 33.0250052 131.257001 34.3058688"></polygon>
                        <path d="M136.59211,31.298407 L135.543938,28.4755188 L134.516318,31.298407 L136.59211,31.298407 Z M139.419533,34.3061622 L137.748916,34.3061622 L137.085367,32.5792706 L134.043613,32.5792706 L133.415297,34.3061622 L131.787253,34.3061622 L134.749734,26.7016768 L136.374842,26.7016768 L139.419533,34.3061622 Z" id="Fill-124" fill="#87888A"></path>
                        <polygon id="Fill-126" fill="#87888A" points="140.250583 34.3058688 140.250583 26.7013834 141.745036 26.7013834 144.858724 31.7793544 144.858724 26.7013834 146.285648 26.7013834 146.285648 34.3058688 144.745686 34.3058688 141.677507 29.3482079 141.677507 34.3058688"></polygon>
                        <path d="M150.852244,26.7019702 L152.387801,26.7019702 L152.387801,30.8218612 C152.387801,31.4747642 152.408354,31.8973171 152.445054,32.0909872 C152.511116,32.4035003 152.668195,32.6529239 152.914823,32.8407252 C153.16292,33.0285265 153.500567,33.1238944 153.929231,33.1238944 C154.365235,33.1238944 154.694074,33.0343953 154.915746,32.8553972 C155.137418,32.6778663 155.269541,32.4592538 155.31505,32.1995598 C155.360559,31.9398659 155.382579,31.5099769 155.382579,30.9084259 L155.382579,26.7019702 L156.918137,26.7019702 L156.918137,30.6971494 C156.918137,31.6097464 156.877032,32.2538462 156.793354,32.630916 C156.711145,33.0079857 156.55847,33.3263676 156.335329,33.5845944 C156.112189,33.8442884 155.812711,34.0511633 155.439832,34.2037518 C155.066953,34.3592748 154.5781,34.4355691 153.976208,34.4355691 C153.249534,34.4355691 152.699023,34.3519388 152.323208,34.1846783 C151.948861,34.0159505 151.650851,33.7988053 151.433583,33.5303081 C151.216315,33.2632781 151.072448,32.9815762 151.003451,32.6881367 C150.902157,32.252379 150.852244,31.6097464 150.852244,30.7587717 L150.852244,26.7019702 Z" id="Fill-128" fill="#87888A"></path>
                        <polygon id="Fill-130" fill="#87888A" points="158.552933 34.3058688 158.552933 26.7013834 160.047386 26.7013834 163.161074 31.7793544 163.161074 26.7013834 164.587998 26.7013834 164.587998 34.3058688 163.048036 34.3058688 159.979857 29.3482079 159.979857 34.3058688"></polygon>
                        <polygon id="Fill-132" fill="#87888A" points="166.167596 34.3060155 167.703154 34.3060155 167.703154 26.7015301 166.167596 26.7015301"></polygon>
                        <path d="M170.436916,30.498931 C170.436916,31.3601761 170.636568,32.013079 171.034404,32.4576399 C171.432239,32.9022008 171.937241,33.1237476 172.549409,33.1237476 C173.161577,33.1237476 173.663642,32.903668 174.057074,32.4620415 C174.449038,32.0218822 174.645753,31.3601761 174.645753,30.4783903 C174.645753,29.6083421 174.45491,28.9569063 174.073222,28.5284846 C173.690067,28.0985957 173.182129,27.885852 172.549409,27.885852 C171.916689,27.885852 171.405815,28.1015301 171.018255,28.5358206 C170.630696,28.9701111 170.436916,29.6244812 170.436916,30.498931 M168.854382,30.550283 C168.854382,29.7770698 168.970356,29.125634 169.202304,28.6003773 C169.375532,28.2130371 169.611884,27.8667785 169.911362,27.5586669 C170.209372,27.2505554 170.536742,27.0231398 170.893473,26.8734856 C171.367646,26.6739468 171.913753,26.5727101 172.533261,26.5727101 C173.654834,26.5727101 174.5518,26.920436 175.224157,27.6158877 C175.896514,28.3113393 176.23416,29.2767554 176.23416,30.5150702 C176.23416,31.7431147 175.89945,32.7026619 175.232965,33.3966464 C174.565012,34.0891637 173.672451,34.4354223 172.553813,34.4354223 C171.423431,34.4354223 170.52353,34.0906309 169.855577,33.401048 C169.187624,32.7114651 168.854382,31.760721 168.854382,30.550283" id="Fill-134" fill="#87888A"></path>
                        <polygon id="Fill-135" fill="#87888A" points="177.447339 34.3058688 177.447339 26.7013834 178.941792 26.7013834 182.05548 31.7793544 182.05548 26.7013834 183.482403 26.7013834 183.482403 34.3058688 181.942441 34.3058688 178.874262 29.3482079 178.874262 34.3058688"></polygon>
                    </g>
                </g>
            </g>
        </g>
    </g>
</svg>