<?xml version="1.0" encoding="UTF-8" standalone="no"?>
<svg
   width="372px"
   height="52px"
   viewBox="0 0 372 52"
   version="1.1"
   id="svg183"
   sodipodi:docname="copernicus_eu_logo_full_white.svg"
   inkscape:version="1.1.2 (0a00cf5339, 2022-02-04)"
   xmlns:inkscape="http://www.inkscape.org/namespaces/inkscape"
   xmlns:sodipodi="http://sodipodi.sourceforge.net/DTD/sodipodi-0.dtd"
   xmlns:xlink="http://www.w3.org/1999/xlink"
   xmlns="http://www.w3.org/2000/svg"
   xmlns:svg="http://www.w3.org/2000/svg"
   xmlns:rdf="http://www.w3.org/1999/02/22-rdf-syntax-ns#"
   xmlns:cc="http://creativecommons.org/ns#"
   xmlns:dc="http://purl.org/dc/elements/1.1/">
  <sodipodi:namedview
     id="namedview185"
     pagecolor="#ffffff"
     bordercolor="#666666"
     borderopacity="1.0"
     inkscape:pageshadow="2"
     inkscape:pageopacity="0.0"
     inkscape:pagecheckerboard="0"
     showgrid="false"
     inkscape:zoom="4.3064516"
     inkscape:cx="186"
     inkscape:cy="26.007491"
     inkscape:window-width="3840"
     inkscape:window-height="2020"
     inkscape:window-x="0"
     inkscape:window-y="35"
     inkscape:window-maximized="1"
     inkscape:current-layer="Group-7" />
  <title
     id="title2">Group 7</title>
  <defs
     id="defs64">
    <path
       d="M0,24.1005673 C0,37.4131567 10.8348832,48.2055405 24.1981291,48.2055405 L24.1981291,48.2055405 C28.06438,48.2055405 31.66484,47.3221468 34.9057008,45.7161766 L34.9057008,45.7161766 C34.9057008,45.7161766 34.9682398,45.6853349 34.9347367,45.6236516 L34.9347367,45.6236516 C34.9079343,45.5663742 34.8476288,45.5972159 34.8476288,45.5972159 L34.8476288,45.5972159 C32.3550026,46.5731346 29.6993283,47.0886312 26.8649711,47.0886312 L26.8649711,47.0886312 C14.6966669,47.0886312 4.83560546,37.2325126 4.83560546,25.0720801 L4.83560546,25.0720801 C4.83560546,12.9138506 14.6966669,3.05993491 26.8649711,3.05993491 L26.8649711,3.05993491 C35.4975878,3.05993491 42.9665322,7.97918233 46.5781599,15.2093525 L46.5781599,15.2093525 C46.5781599,15.2093525 46.6094294,15.2754418 46.6630343,15.255615 L46.6630343,15.255615 C46.7233398,15.2335853 46.6898367,15.1696989 46.6898367,15.1696989 L46.6898367,15.1696989 C43.1385145,6.25645439 34.4098558,0 24.1981291,0 L24.1981291,0 C10.8348832,0 0,10.7901809 0,24.1005673"
       id="path-1" />
    <linearGradient
       x1="23.735449"
       y1="47.446317"
       x2="23.735449"
       y2="-7.5889874e-06"
       id="linearGradient-3"
       gradientTransform="matrix(0.98425098,0,0,1.016001,230,0)"
       gradientUnits="userSpaceOnUse">
      <stop
         stop-color="#77AEDA"
         offset="0%"
         id="stop5" />
      <stop
         stop-color="#0B6290"
         offset="100%"
         id="stop7" />
    </linearGradient>
    <path
       d="M27.1977075,24.7525998 C26.2829793,25.1850569 25.4855238,25.775395 24.8010768,26.5281906 L24.8010768,26.5281906 C24.1144975,27.2832742 23.5750424,28.1619171 23.1848436,29.1664072 L23.1848436,29.1664072 C22.7903804,30.1708973 22.5963471,31.2440313 22.5963471,32.3880975 L22.5963471,32.3880975 C22.5963471,33.5321637 22.7903804,34.6075859 23.1848436,35.612076 L23.1848436,35.612076 C23.5750424,36.6165661 24.1144975,37.495209 24.8010768,38.2480045 L24.8010768,38.2480045 C25.4855238,39.0008 26.2829793,39.5934263 27.1977075,40.0258833 L27.1977075,40.0258833 C28.1103036,40.4560522 29.0868666,40.6734248 30.1295289,40.6734248 L30.1295289,40.6734248 C31.170059,40.6734248 32.1466221,40.4560522 33.0592181,40.0258833 L33.0592181,40.0258833 C33.9739464,39.5934263 34.7714018,39.0008 35.4558488,38.2480045 L35.4558488,38.2480045 C36.1424281,37.495209 36.679751,36.6165661 37.072082,35.612076 L37.072082,35.612076 C37.4665452,34.6075859 37.6605785,33.5321637 37.6605785,32.3880975 L37.6605785,32.3880975 C37.6605785,31.2440313 37.4665452,30.1708973 37.072082,29.1664072 L37.072082,29.1664072 C36.679751,28.1619171 36.1424281,27.2832742 35.4558488,26.5281906 L35.4558488,26.5281906 C34.7714018,25.775395 33.9739464,25.1850569 33.0592181,24.7525998 L33.0592181,24.7525998 C32.1466221,24.3201428 31.170059,24.1027703 30.1295289,24.1027703 L30.1295289,24.1027703 C29.0868666,24.1027703 28.1103036,24.3201428 27.1977075,24.7525998 M27.950386,38.083259 C27.265939,37.7606323 26.6667813,37.3190228 26.1550452,36.7561422 L26.1550452,36.7561422 C25.6454414,36.1955498 25.2424492,35.5365677 24.9503332,34.7837721 L24.9503332,34.7837721 C24.6582171,34.0309766 24.5132252,33.2324184 24.5132252,32.3880975 L24.5132252,32.3880975 C24.5132252,31.5460648 24.6582171,30.7475066 24.9503332,29.9924229 L24.9503332,29.9924229 C25.2424492,29.2396274 25.6454414,28.5829334 26.1550452,28.0200529 L26.1550452,28.0200529 C26.6667813,27.4571723 27.265939,27.0155627 27.950386,26.6952242 L27.950386,26.6952242 C28.6348331,26.3725976 29.3619248,26.2124283 30.1295289,26.2124283 L30.1295289,26.2124283 C30.8950008,26.2124283 31.6220926,26.3725976 32.3065396,26.6952242 L32.3065396,26.6952242 C32.9909866,27.0155627 33.5901443,27.4571723 34.0997482,28.0200529 L34.0997482,28.0200529 C34.6114843,28.5829334 35.0123442,29.2396274 35.3065925,29.9924229 L35.3065925,29.9924229 C35.5987085,30.7475066 35.7437004,31.5460648 35.7437004,32.3880975 L35.7437004,32.3880975 C35.7437004,33.2324184 35.5987085,34.0309766 35.3065925,34.7837721 L35.3065925,34.7837721 C35.0123442,35.5365677 34.6114843,36.1955498 34.0997482,36.7561422 L34.0997482,36.7561422 C33.5901443,37.3190228 32.9909866,37.7606323 32.3065396,38.083259 L32.3065396,38.083259 C31.6220926,38.4035975 30.8950008,38.5637668 30.1295289,38.5637668 L30.1295289,38.5637668 C29.3619248,38.5637668 28.6348331,38.4035975 27.950386,38.083259"
       id="path-4" />
    <linearGradient
       x1="31.598975"
       y1="38.780606"
       x2="31.598975"
       y2="22.981065"
       id="linearGradient-6"
       gradientTransform="matrix(0.95346259,0,0,1.0488088,230,0)"
       gradientUnits="userSpaceOnUse">
      <stop
         stop-color="#002A49"
         offset="0%"
         id="stop11" />
      <stop
         stop-color="#024690"
         offset="100%"
         id="stop13" />
    </linearGradient>
    <path
       d="M43.7670599,24.7248138 C42.8547221,25.1417154 42.0574924,25.7152307 41.3711074,26.4409482 L41.3711074,26.4409482 C40.6868541,27.1666657 40.1496832,28.0137038 39.7574633,28.9820624 L39.7574633,28.9820624 C39.3631116,29.9482151 39.1670017,30.9849544 39.1670017,32.0878685 L39.1670017,32.0878685 L39.1670017,45.1926942 L41.0833373,45.1926942 L41.0833373,36.9958364 C41.5970602,37.8671386 42.4006848,38.5994736 43.4963428,39.1906355 L43.4963428,39.1906355 C44.5920008,39.7795917 45.657816,40.0751727 46.7001832,40.0751727 L46.7001832,40.0751727 C47.7382871,40.0751727 48.7167055,39.8678248 49.6290432,39.4509233 L49.6290432,39.4509233 C50.541381,39.0362276 51.342874,38.4627122 52.0249957,37.7369947 L52.0249957,37.7369947 C52.709249,37.013483 53.2485515,36.1642392 53.6429031,35.1958806 L53.6429031,35.1958806 C54.0329914,34.2297278 54.2312331,33.1929885 54.2312331,32.0878685 L54.2312331,32.0878685 C54.2312331,30.9849544 54.0329914,29.9482151 53.6429031,28.9820624 L53.6429031,28.9820624 C53.2485515,28.0137038 52.709249,27.1666657 52.0249957,26.4409482 L52.0249957,26.4409482 C51.342874,25.7152307 50.541381,25.1417154 49.6290432,24.7248138 L49.6290432,24.7248138 C48.7167055,24.3101181 47.7382871,24.1027703 46.7001832,24.1027703 L46.7001832,24.1027703 C45.657816,24.1027703 44.6815293,24.3101181 43.7670599,24.7248138 M44.521657,37.5781751 C43.8374037,37.2693591 43.2384156,36.8414284 42.7289559,36.2987947 L42.7289559,36.2987947 C42.215233,35.7583668 41.8144865,35.1252941 41.5224532,34.3973707 L41.5224532,34.3973707 C41.2304198,33.6716532 41.0833373,32.9018192 41.0833373,32.0878685 L41.0833373,32.0878685 C41.0833373,31.2739179 41.2304198,30.5062897 41.5224532,29.7805722 L41.5224532,29.7805722 C41.8144865,29.0526489 42.215233,28.4195762 42.7289559,27.8791482 L42.7289559,27.8791482 C43.2384156,27.3365145 43.8374037,26.9085838 44.521657,26.5997678 L44.521657,26.5997678 C45.208042,26.2909519 45.9327963,26.1343381 46.7001832,26.1343381 L46.7001832,26.1343381 C47.4675701,26.1343381 48.1923244,26.2909519 48.8765777,26.5997678 L48.8765777,26.5997678 C49.5629627,26.9085838 50.1576875,27.3365145 50.6714104,27.8791482 L50.6714104,27.8791482 C51.1808701,28.4195762 51.5837482,29.0526489 51.8757816,29.7805722 L51.8757816,29.7805722 C52.1678149,30.5062897 52.3127658,31.2739179 52.3127658,32.0878685 L52.3127658,32.0878685 C52.3127658,32.9018192 52.1678149,33.6716532 51.8757816,34.3973707 L51.8757816,34.3973707 C51.5837482,35.1252941 51.1808701,35.7583668 50.6714104,36.2987947 L50.6714104,36.2987947 C50.1576875,36.8414284 49.5629627,37.2693591 48.8765777,37.5781751 L48.8765777,37.5781751 C48.1923244,37.886991 47.4675701,38.0436048 46.7001832,38.0436048 L46.7001832,38.0436048 C45.9327963,38.0436048 45.208042,37.886991 44.521657,37.5781751"
       id="path-7" />
    <linearGradient
       x1="55.255061"
       y1="38.19477"
       x2="55.255061"
       y2="20.37058"
       id="linearGradient-9"
       gradientTransform="matrix(0.84515426,0,0,1.183216,230,0)"
       gradientUnits="userSpaceOnUse">
      <stop
         stop-color="#002A49"
         offset="0%"
         id="stop17" />
      <stop
         stop-color="#024690"
         offset="100%"
         id="stop19" />
    </linearGradient>
    <path
       d="M60.3468454,24.7525998 C59.4305608,25.1850569 58.6317486,25.775395 57.946137,26.5281906 L57.946137,26.5281906 C57.2583896,27.2832742 56.7180167,28.1619171 56.327154,29.1664072 L56.327154,29.1664072 C55.9320196,30.1708973 55.7376562,31.2440313 55.7376562,32.3880975 L55.7376562,32.3880975 C55.7376562,33.5321637 55.9320196,34.6075859 56.327154,35.612076 L56.327154,35.612076 C56.7180167,36.6165661 57.2583896,37.495209 57.946137,38.2480045 L57.946137,38.2480045 C58.6317486,39.0008 59.4305608,39.5934263 60.3468454,40.0258833 L60.3468454,40.0258833 C61.2609941,40.4560522 62.2392187,40.6734248 63.283655,40.6734248 L63.283655,40.6734248 C64.3259554,40.6734248 65.30418,40.4560522 66.2183288,40.0258833 L66.2183288,40.0258833 C67.1346134,39.5934263 67.9334256,39.0008 68.6190371,38.2480045 L68.6190371,38.2480045 C69.3067845,37.495209 69.8428858,36.6165661 70.225205,35.612076 L70.225205,35.612076 L70.3085036,35.3718221 L68.1940007,35.3718221 C67.9398332,35.8935163 67.6279974,36.3534309 67.2627651,36.7561422 L67.2627651,36.7561422 C66.7501583,37.3190228 66.1499812,37.7606323 65.4643696,38.083259 L65.4643696,38.083259 C64.7787581,38.4035975 64.0504293,38.5637668 63.283655,38.5637668 L63.283655,38.5637668 C62.5147449,38.5637668 61.7885519,38.4035975 61.1008045,38.083259 L61.1008045,38.083259 C60.415193,37.7606323 59.8150159,37.3190228 59.304545,36.7561422 L59.304545,36.7561422 C58.7919382,36.1955498 58.3903962,35.5365677 58.0956473,34.7837721 L58.0956473,34.7837721 C57.8030343,34.0309766 57.6577957,33.2324184 57.6577957,32.3880975 L57.6577957,32.3880975 C57.6577957,32.18903 57.6663392,31.9785218 57.6834261,31.756573 L57.6834261,31.756573 L70.8018876,31.756573 C70.7484911,30.8527607 70.5562635,29.9901348 70.225205,29.1664072 L70.225205,29.1664072 C69.8428858,28.1619171 69.3067845,27.2832742 68.6190371,26.5281906 L68.6190371,26.5281906 C67.9334256,25.775395 67.1346134,25.1850569 66.2183288,24.7525998 L66.2183288,24.7525998 C65.30418,24.3201428 64.3259554,24.1027703 63.283655,24.1027703 L63.283655,24.1027703 C62.2392187,24.1027703 61.2609941,24.3201428 60.3468454,24.7525998 M59.304545,28.0200529 C59.8150159,27.4571723 60.415193,27.0155627 61.1008045,26.6952242 L61.1008045,26.6952242 C61.7885519,26.3725976 62.5147449,26.2124283 63.283655,26.2124283 L63.283655,26.2124283 C64.0504293,26.2124283 64.7787581,26.3725976 65.4643696,26.6952242 L65.4643696,26.6952242 C66.1499812,27.0155627 66.7501583,27.4571723 67.2627651,28.0200529 L67.2627651,28.0200529 C67.6835298,28.5028488 68.0295393,29.042848 68.3050655,29.646915 L68.3050655,29.646915 L58.2344783,29.646915 C58.5078686,29.042848 58.8645575,28.5028488 59.304545,28.0200529"
       id="path-10" />
    <linearGradient
       x1="66.357849"
       y1="38.780606"
       x2="66.357849"
       y2="22.981065"
       id="linearGradient-12"
       gradientTransform="matrix(0.95346259,0,0,1.0488088,230,0)"
       gradientUnits="userSpaceOnUse">
      <stop
         stop-color="#002A49"
         offset="0%"
         id="stop23" />
      <stop
         stop-color="#024690"
         offset="100%"
         id="stop25" />
    </linearGradient>
    <path
       d="M78.4162726,24.750008 C77.5040639,25.1807402 76.700553,25.7755609 76.0057398,26.5344699 L76.0057398,26.5344699 C75.8970421,26.6552573 75.7968696,26.8147877 75.7052225,27.0130613 L75.7052225,27.0130613 L75.7052225,24.1643034 L73.8147339,24.1643034 L73.8424412,39.1670017 L75.7329297,39.1670017 L75.7329297,32.3550519 C75.7329297,31.5163776 75.8799914,30.7210044 76.1719835,29.9689324 L76.1719835,29.9689324 C76.4618442,29.2214183 76.8646653,28.5650645 77.3761842,28.004429 L77.3761842,28.004429 C77.8855718,27.4437934 78.4844751,27.0039452 79.1686316,26.6826053 L79.1686316,26.6826053 C79.8549195,26.3658235 80.5795713,26.206293 81.3468496,26.206293 L81.3468496,26.206293 L81.3468496,24.1027703 C80.3046299,24.1027703 79.3284813,24.3192758 78.4162726,24.750008"
       id="path-13" />
    <linearGradient
       x1="109.71579"
       y1="27.69525"
       x2="109.71579"
       y2="17.043229"
       id="linearGradient-15"
       gradientTransform="matrix(0.70710678,0,0,1.4142136,230,0)"
       gradientUnits="userSpaceOnUse">
      <stop
         stop-color="#002A49"
         offset="0%"
         id="stop29" />
      <stop
         stop-color="#024690"
         offset="100%"
         id="stop31" />
    </linearGradient>
    <path
       d="M87.620052,24.248497 C87.2094462,24.3441982 86.8217676,24.4812248 86.4549319,24.663927 L86.4549319,24.663927 C86.0880963,24.8444542 85.752525,25.0619568 85.4503025,25.3207849 L85.4503025,25.3207849 C85.1480799,25.579613 84.9063019,25.8601914 84.7270526,26.1668701 L84.7270526,26.1668701 L84.7270526,24.8488042 L82.8532727,24.8488042 L82.8532727,39.1670017 L84.7562327,39.1670017 L84.7270526,30.5756482 C84.7270526,30.0231915 84.8375202,29.479435 85.0626239,28.9443786 L85.0626239,28.9443786 C85.2856433,28.4093221 85.5836973,27.9373414 85.9588701,27.5240865 L85.9588701,27.5240865 C86.3340429,27.1151815 86.7717446,26.7867526 87.2698907,26.5387996 L87.2698907,26.5387996 C87.7722054,26.2908466 88.2995317,26.1668701 88.8518695,26.1668701 L88.8518695,26.1668701 C89.4042073,26.1668701 89.9315335,26.2799715 90.431764,26.5083492 L90.431764,26.5083492 C90.9299101,26.738902 91.3696961,27.0542808 91.7427846,27.4544856 L91.7427846,27.4544856 C92.1179574,27.8568655 92.4118428,28.3244961 92.6286093,28.8573775 L92.6286093,28.8573775 C92.8412073,29.392434 92.9495905,29.9666409 92.9495905,30.5756482 L92.9495905,30.5756482 L92.9746021,39.1670017 L94.9046579,39.1670017 L94.8775621,30.5756482 C94.8775621,29.6991126 94.7170715,28.8617276 94.3960902,28.0721931 L94.3960902,28.0721931 C94.075109,27.2783085 93.6394917,26.5910002 93.0975754,26.0080932 L93.0975754,26.0080932 C92.5514905,25.4273612 91.9136967,24.9619056 91.1821096,24.6204265 L91.1821096,24.6204265 C90.4484383,24.2767723 89.6709968,24.1027703 88.8518695,24.1027703 L88.8518695,24.1027703 C88.4412637,24.1027703 88.0306578,24.1527959 87.620052,24.248497"
       id="path-16" />
    <linearGradient
       x1="99.369645"
       y1="35.032059"
       x2="99.369645"
       y2="21.55818"
       id="linearGradient-18"
       gradientTransform="matrix(0.89442719,0,0,1.118034,230,0)"
       gradientUnits="userSpaceOnUse">
      <stop
         stop-color="#002A49"
         offset="0%"
         id="stop35" />
      <stop
         stop-color="#024690"
         offset="100%"
         id="stop37" />
    </linearGradient>
    <path
       d="M96.8410887,18.436357 C96.5534862,18.6812161 96.411081,18.980997 96.411081,19.3402763 L96.411081,19.3402763 C96.411081,19.7041324 96.5534862,20.0039132 96.8410887,20.2441955 L96.8410887,20.2441955 C97.1286913,20.4867663 97.4861003,20.6080516 97.916108,20.6080516 L97.916108,20.6080516 C98.3461157,20.6080516 98.706317,20.4867663 98.9911273,20.2441955 L98.9911273,20.2441955 C99.2815221,20.0039132 99.4239273,19.7041324 99.4239273,19.3402763 L99.4239273,19.3402763 C99.4239273,18.980997 99.2815221,18.6812161 98.9911273,18.436357 L98.9911273,18.436357 C98.706317,18.1960747 98.3461157,18.0770777 97.916108,18.0770777 L97.916108,18.0770777 C97.4861003,18.0770777 97.1286913,18.1960747 96.8410887,18.436357 L96.8410887,18.436357 Z M96.6260849,39.1670017 L99.1363247,39.1670017 L99.1363247,24.1024433 L96.6260849,24.1024433 L96.6260849,39.1670017 Z"
       id="path-19" />
    <linearGradient
       x1="259.06512"
       y1="14.803748"
       x2="259.06512"
       y2="6.8325021"
       id="linearGradient-21"
       gradientTransform="matrix(0.37796447,0,0,2.6457513,230,0)"
       gradientUnits="userSpaceOnUse">
      <stop
         stop-color="#002A49"
         offset="0%"
         id="stop41" />
      <stop
         stop-color="#024690"
         offset="100%"
         id="stop43" />
    </linearGradient>
    <path
       d="M105.697121,24.7525998 C104.752157,25.1850569 103.922001,25.775395 103.213278,26.5281906 L103.213278,26.5281906 C102.506763,27.2832742 101.948174,28.1619171 101.53972,29.1664072 L101.53972,29.1664072 C101.135681,30.1708973 100.93035,31.2440313 100.93035,32.3880975 L100.93035,32.3880975 C100.93035,33.5321637 101.135681,34.6075859 101.53972,35.612076 L101.53972,35.612076 C101.948174,36.6165661 102.506763,37.495209 103.213278,38.2480045 L103.213278,38.2480045 C103.922001,39.0008 104.752157,39.5934263 105.697121,40.0258833 L105.697121,40.0258833 C106.642085,40.4560522 107.653285,40.6734248 108.730721,40.6734248 L108.730721,40.6734248 C109.810365,40.6734248 110.821565,40.4560522 111.768737,40.0258833 L111.768737,40.0258833 C112.711493,39.5934263 113.539441,39.0008 114.250372,38.2480045 L114.250372,38.2480045 C114.959095,37.495209 115.51106,36.6165661 115.908475,35.612076 L115.908475,35.612076 L115.994582,35.3718221 L113.8088,35.3718221 C113.543857,35.8935163 113.221509,36.3534309 112.843965,36.7561422 L112.843965,36.7561422 C112.316286,37.3190228 111.695878,37.7606323 110.987154,38.083259 L110.987154,38.083259 C110.278431,38.4035975 109.525551,38.5637668 108.730721,38.5637668 L108.730721,38.5637668 C107.935891,38.5637668 107.185219,38.4035975 106.476496,38.083259 L106.476496,38.083259 C105.767773,37.7606323 105.149572,37.3190228 104.617477,36.7561422 L104.617477,36.7561422 C104.089799,36.1955498 103.672513,35.5365677 103.370036,34.7837721 L103.370036,34.7837721 C103.067559,34.0309766 102.917425,33.2324184 102.917425,32.3880975 L102.917425,32.3880975 C102.917425,31.5460648 103.067559,30.7475066 103.370036,29.9924229 L103.370036,29.9924229 C103.672513,29.2396274 104.089799,28.5829334 104.617477,28.0200529 L104.617477,28.0200529 C105.149572,27.4571723 105.767773,27.0155627 106.476496,26.6952242 L106.476496,26.6952242 C107.185219,26.3725976 107.935891,26.2124283 108.730721,26.2124283 L108.730721,26.2124283 C109.525551,26.2124283 110.278431,26.3725976 110.987154,26.6952242 L110.987154,26.6952242 C111.695878,27.0155627 112.316286,27.4571723 112.843965,28.0200529 L112.843965,28.0200529 C113.221509,28.4227641 113.535025,28.8758144 113.780098,29.3746272 L113.780098,29.3746272 L115.994582,29.3746272 L115.908475,29.1664072 C115.51106,28.1619171 114.959095,27.2832742 114.250372,26.5281906 L114.250372,26.5281906 C113.539441,25.775395 112.711493,25.1850569 111.768737,24.7525998 L111.768737,24.7525998 C110.821565,24.3201428 109.810365,24.1027703 108.730721,24.1027703 L108.730721,24.1027703 C107.653285,24.1027703 106.642085,24.3201428 105.697121,24.7525998"
       id="path-22" />
    <linearGradient
       x1="113.75637"
       y1="38.780607"
       x2="113.75637"
       y2="22.981066"
       id="linearGradient-24"
       gradientTransform="matrix(0.95346261,0,0,1.0488088,230,0)"
       gradientUnits="userSpaceOnUse">
      <stop
         stop-color="#002A49"
         offset="0%"
         id="stop47" />
      <stop
         stop-color="#024690"
         offset="100%"
         id="stop49" />
    </linearGradient>
    <path
       d="M127.676201,24.1027703 L127.676201,32.3888985 C127.676201,33.0319258 127.569884,33.6337628 127.355165,34.1944094 L127.355165,34.1944094 C127.14253,34.7596327 126.848594,35.2447637 126.473356,35.6566673 L126.473356,35.6566673 C126.098118,36.068571 125.660341,36.3935172 125.160024,36.6360826 L125.160024,36.6360826 C124.659707,36.8763598 124.123951,36.9976425 123.552756,36.9976425 L123.552756,36.9976425 C122.981561,36.9976425 122.449974,36.8763598 121.957995,36.6360826 L121.957995,36.6360826 C121.468102,36.3935172 121.034494,36.068571 120.659256,35.6566673 L120.659256,35.6566673 C120.284018,35.2447637 119.990082,34.7596327 119.775363,34.1944094 L119.775363,34.1944094 C119.562728,33.6337628 119.45641,33.0319258 119.45641,32.3888985 L119.45641,32.3888985 L119.45641,32.3568615 L119.42931,24.1027703 L117.501005,24.1027703 L117.526021,32.3568615 L117.526021,32.3888985 C117.526021,33.3111049 117.688624,34.185256 118.009661,35.0090633 L118.009661,35.0090633 C118.330697,35.8328705 118.762221,36.5514136 119.3084,37.162404 L119.3084,37.162404 C119.852495,37.7756827 120.490399,38.263102 121.222112,38.6246619 L121.222112,38.6246619 C121.953826,38.9862217 122.731402,39.1670017 123.552756,39.1670017 L123.552756,39.1670017 C124.374109,39.1670017 125.151685,38.9862217 125.883399,38.6246619 L125.883399,38.6246619 C126.615113,38.263102 127.253017,37.7756827 127.799196,37.162404 L127.799196,37.162404 C128.343291,36.5514136 128.770645,35.8328705 129.083343,35.0090633 L129.083343,35.0090633 C129.396041,34.185256 129.55239,33.3111049 129.55239,32.3888985 L129.55239,32.3888985 L129.55239,24.1027703 L127.676201,24.1027703 Z"
       id="path-25" />
    <linearGradient
       x1="138.10695"
       y1="35.032028"
       x2="138.10695"
       y2="21.558185"
       id="linearGradient-27"
       gradientTransform="matrix(0.89442719,0,0,1.118034,230,0)"
       gradientUnits="userSpaceOnUse">
      <stop
         stop-color="#002A49"
         offset="0%"
         id="stop53" />
      <stop
         stop-color="#024690"
         offset="100%"
         id="stop55" />
    </linearGradient>
    <path
       d="M134.458297,24.5100578 C133.818572,24.7800574 133.271528,25.1301417 132.817165,25.5625987 L132.817165,25.5625987 C132.362802,25.9950557 132.007902,26.4892923 131.756985,27.0498847 L131.756985,27.0498847 C131.506068,27.6127653 131.417908,28.2214085 131.494766,28.8849669 L131.494766,28.8849669 C131.594228,29.7247115 131.874532,30.4271681 132.337937,30.9900487 L132.337937,30.9900487 C132.803602,31.5506411 133.355167,31.9693693 133.994892,32.2530977 L133.994892,32.2530977 C134.632356,32.5322499 135.330855,32.7725038 136.085866,32.9738594 L136.085866,32.9738594 C136.840877,33.1729269 137.469299,33.3925876 137.973393,33.6351297 L137.973393,33.6351297 C138.475227,33.8753836 138.859514,34.1865696 139.121733,34.5663995 L139.121733,34.5663995 C139.381692,34.9485176 139.501499,35.4770762 139.483415,36.1589397 L139.483415,36.1589397 C139.444986,36.822498 139.185027,37.3853786 138.71032,37.8567339 L138.71032,37.8567339 C138.233352,38.3303773 137.51903,38.5637668 136.565094,38.5637668 L136.565094,38.5637668 C135.728705,38.58436 135.04377,38.41275 134.508028,38.0420726 L134.508028,38.0420726 C133.974547,37.6736833 133.606084,37.2663957 133.400377,36.8179218 L133.400377,36.8179218 C133.196931,36.371736 133.092948,35.88894 133.092948,35.3718221 L133.092948,35.3718221 L131.060747,35.3718221 C131.040403,36.234448 131.180555,36.9826673 131.481203,37.6141918 L131.481203,37.6141918 C131.781851,38.2480045 132.184222,38.7902919 132.688316,39.2410539 L132.688316,39.2410539 C133.19015,39.6941042 133.771101,40.0441884 134.42891,40.295883 L134.42891,40.295883 C135.08898,40.5475775 135.755831,40.6734248 136.433984,40.6734248 L136.433984,40.6734248 C137.109877,40.6734248 137.763165,40.572747 138.393848,40.3713913 L138.393848,40.3713913 C139.022271,40.1700357 139.573835,39.8794429 140.048543,39.4996129 L140.048543,39.4996129 C140.525511,39.1174948 140.900756,38.6438514 141.181059,38.083259 L141.181059,38.083259 C141.461363,37.5203784 141.603775,36.8888539 141.603775,36.1863972 L141.603775,36.1863972 C141.603775,35.2413986 141.429716,34.4588573 141.079336,33.8341972 L141.079336,33.8341972 C140.731218,33.2141133 140.242947,32.6947073 139.612264,32.2828434 L139.612264,32.2828434 C138.983842,31.8709796 138.310209,31.5460648 137.595888,31.3058109 L137.595888,31.3058109 C136.879305,31.0632689 136.226017,30.8344557 135.636024,30.6102187 L135.636024,30.6102187 C135.04377,30.390558 134.569062,30.1503041 134.211901,29.8871689 L134.211901,29.8871689 C133.85248,29.6286099 133.626429,29.2556443 133.529226,28.7728484 L133.529226,28.7728484 C133.432024,28.2328492 133.572176,27.7203075 133.951942,27.2375116 L133.951942,27.2375116 C134.327187,26.7570038 134.7386,26.4343771 135.183921,26.2742079 L135.183921,26.2742079 C135.629242,26.1140386 136.047437,26.0316658 136.433984,26.0316658 L136.433984,26.0316658 C137.014936,26.0316658 137.546156,26.1872588 138.029906,26.4984448 L138.029906,26.4984448 C138.513655,26.811919 138.84369,27.2581048 139.02001,27.8392904 L139.02001,27.8392904 L141.196883,27.8392904 C141.158454,27.5395451 141.027345,27.175732 140.805815,26.7570038 L140.805815,26.7570038 C140.582024,26.3336993 140.276855,25.9172592 139.890307,25.5053954 L139.890307,25.5053954 C139.501499,25.0935316 139.022271,24.7571761 138.450361,24.496329 L138.450361,24.496329 C137.880712,24.2354819 137.20934,24.1027703 136.433984,24.1027703 L136.433984,24.1027703 C135.755831,24.1027703 135.095761,24.2400582 134.458297,24.5100578"
       id="path-28" />
    <linearGradient
       x1="170.88876"
       y1="32.446183"
       x2="170.88876"
       y2="19.227339"
       id="linearGradient-30"
       gradientTransform="matrix(0.79772404,0,0,1.2535663,230,0)"
       gradientUnits="userSpaceOnUse">
      <stop
         stop-color="#002A49"
         offset="0%"
         id="stop59" />
      <stop
         stop-color="#024690"
         offset="100%"
         id="stop61" />
    </linearGradient>
    <mask
       id="mask-2"
       fill="#ffffff">
      <use
         xlink:href="#path-1"
         id="use66"
         x="0"
         y="0"
         width="100%"
         height="100%" />
    </mask>
    <mask
       id="mask-5"
       fill="#ffffff">
      <use
         xlink:href="#path-4"
         id="use72"
         x="0"
         y="0"
         width="100%"
         height="100%" />
    </mask>
    <mask
       id="mask-8"
       fill="#ffffff">
      <use
         xlink:href="#path-7"
         id="use77"
         x="0"
         y="0"
         width="100%"
         height="100%" />
    </mask>
    <mask
       id="mask-11"
       fill="#ffffff">
      <use
         xlink:href="#path-10"
         id="use82"
         x="0"
         y="0"
         width="100%"
         height="100%" />
    </mask>
    <mask
       id="mask-14"
       fill="#ffffff">
      <use
         xlink:href="#path-13"
         id="use87"
         x="0"
         y="0"
         width="100%"
         height="100%" />
    </mask>
    <mask
       id="mask-17"
       fill="#ffffff">
      <use
         xlink:href="#path-16"
         id="use92"
         x="0"
         y="0"
         width="100%"
         height="100%" />
    </mask>
    <mask
       id="mask-20"
       fill="#ffffff">
      <use
         xlink:href="#path-19"
         id="use97"
         x="0"
         y="0"
         width="100%"
         height="100%" />
    </mask>
    <mask
       id="mask-23"
       fill="#ffffff">
      <use
         xlink:href="#path-22"
         id="use102"
         x="0"
         y="0"
         width="100%"
         height="100%" />
    </mask>
    <mask
       id="mask-26"
       fill="#ffffff">
      <use
         xlink:href="#path-25"
         id="use107"
         x="0"
         y="0"
         width="100%"
         height="100%" />
    </mask>
    <mask
       id="mask-29"
       fill="#ffffff">
      <use
         xlink:href="#path-28"
         id="use112"
         x="0"
         y="0"
         width="100%"
         height="100%" />
    </mask>
  </defs>
  <g
     id="V3"
     stroke="none"
     stroke-width="1"
     fill="none"
     fill-rule="evenodd">
    <g
       id="Menu"
       transform="translate(-18,-20)">
      <g
         id="Group-7"
         transform="translate(18,20)">
        <g
           id="Clip-16"
           transform="translate(230)" />
        <path
           d="m 230,24.100567 c 0,13.31259 10.83488,24.104973 24.19813,24.104973 v 0 c 3.86625,0 7.46671,-0.883393 10.70757,-2.489363 v 0 c 0,0 0.0625,-0.03084 0.029,-0.09253 v 0 c -0.0268,-0.05728 -0.0871,-0.02644 -0.0871,-0.02644 v 0 c -2.49263,0.975919 -5.1483,1.491415 -7.98266,1.491415 v 0 c -12.1683,0 -22.02936,-9.856118 -22.02936,-22.016551 v 0 c 0,-12.158229 9.86106,-22.0121451 22.02936,-22.0121451 v 0 c 8.63262,0 16.10156,4.9192474 19.71319,12.1494181 v 0 c 0,0 0.0313,0.06609 0.0849,0.04626 v 0 c 0.0603,-0.02203 0.0268,-0.08592 0.0268,-0.08592 v 0 C 273.13851,6.2564544 264.40986,0 254.19813,0 V 0 C 240.83488,0 230,10.790181 230,24.100567"
           id="Fill-15"
           fill="url(#linearGradient-3)"
           style="fill:#ffffff;fill-opacity:1" />
        <path
           d="m 323.06821,28.330956 c -0.21514,-0.540835 -0.50966,-1.013516 -0.88564,-1.418043 -0.37598,-0.406725 -0.81462,-0.723311 -1.31593,-0.956354 -0.49921,-0.230844 -1.02767,-0.347366 -1.5812,-0.347366 -0.55561,0 -1.08407,0.127514 -1.58538,0.378145 -0.5013,0.250631 -0.93786,0.582607 -1.31384,0.998126 -0.19216,0.211058 -0.36553,0.441902 -0.51801,0.688136 0,0.02858 -0.002,0.05936 -0.002,0.08794 0,2.970196 2.28929,5.379769 5.11123,5.379769 0.87519,0 1.70026,-0.233043 2.42088,-0.641967 l -0.008,-2.431558 c 0,-0.617783 -0.10652,-1.195993 -0.32167,-1.736828"
           id="Fill-18"
           fill="#fecd07" />
        <g
           id="Clip-21"
           transform="translate(230)" />
        <path
           d="m 257.19771,24.7526 c -0.91473,0.432457 -1.71219,1.022795 -2.39663,1.775591 v 0 c -0.68658,0.755083 -1.22604,1.633726 -1.61624,2.638216 v 0 c -0.39446,1.00449 -0.58849,2.077624 -0.58849,3.22169 v 0 c 0,1.144067 0.19403,2.219489 0.58849,3.223979 v 0 c 0.3902,1.00449 0.92966,1.883133 1.61624,2.635928 v 0 c 0.68444,0.752796 1.4819,1.345422 2.39663,1.777879 v 0 c 0.91259,0.430169 1.88916,0.647542 2.93182,0.647542 v 0 c 1.04053,0 2.01709,-0.217373 2.92969,-0.647542 v 0 c 0.91473,-0.432457 1.71218,-1.025083 2.39663,-1.777879 v 0 c 0.68658,-0.752795 1.2239,-1.631438 1.61623,-2.635928 v 0 c 0.39446,-1.00449 0.5885,-2.079912 0.5885,-3.223979 v 0 c 0,-1.144066 -0.19404,-2.2172 -0.5885,-3.22169 v 0 c -0.39233,-1.00449 -0.92965,-1.883133 -1.61623,-2.638216 v 0 c -0.68445,-0.752796 -1.4819,-1.343134 -2.39663,-1.775591 v 0 c -0.9126,-0.432457 -1.88916,-0.64983 -2.92969,-0.64983 v 0 c -1.04266,0 -2.01923,0.217373 -2.93182,0.64983 m 0.75268,13.330659 c -0.68445,-0.322627 -1.28361,-0.764236 -1.79535,-1.327117 v 0 c -0.5096,-0.560592 -0.91259,-1.219574 -1.20471,-1.97237 v 0 c -0.29211,-0.752795 -0.43711,-1.551354 -0.43711,-2.395675 v 0 c 0,-0.842032 0.145,-1.64059 0.43711,-2.395674 v 0 c 0.29212,-0.752796 0.69511,-1.40949 1.20471,-1.97237 v 0 c 0.51174,-0.562881 1.1109,-1.00449 1.79535,-1.324829 v 0 c 0.68444,-0.322626 1.41153,-0.482796 2.17914,-0.482796 v 0 c 0.76547,0 1.49256,0.16017 2.17701,0.482796 v 0 c 0.68445,0.320339 1.2836,0.761948 1.79321,1.324829 v 0 c 0.51173,0.56288 0.91259,1.219574 1.20684,1.97237 v 0 c 0.29212,0.755084 0.43711,1.553642 0.43711,2.395674 v 0 c 0,0.844321 -0.14499,1.64288 -0.43711,2.395675 v 0 c -0.29425,0.752796 -0.69511,1.411778 -1.20684,1.97237 v 0 c -0.50961,0.562881 -1.10876,1.00449 -1.79321,1.327117 v 0 c -0.68445,0.320338 -1.41154,0.480508 -2.17701,0.480508 v 0 c -0.76761,0 -1.4947,-0.16017 -2.17914,-0.480508"
           id="Fill-20"
           fill="url(#linearGradient-6)"
           style="fill:#ffffff;fill-opacity:1" />
        <g
           id="Clip-24"
           transform="translate(230)" />
        <path
           d="m 273.76706,24.724814 c -0.91234,0.416901 -1.70957,0.990417 -2.39595,1.716134 v 0 c -0.68426,0.725718 -1.22143,1.572756 -1.61365,2.541114 v 0 c -0.39435,0.966153 -0.59046,2.002892 -0.59046,3.105806 v 0 13.104826 h 1.91634 v -8.196858 c 0.51372,0.871303 1.31734,1.603638 2.413,2.194799 v 0 c 1.09566,0.588957 2.16148,0.884538 3.20384,0.884538 v 0 c 1.03811,0 2.01653,-0.207348 2.92886,-0.62425 v 0 c 0.91234,-0.414695 1.71383,-0.988211 2.39596,-1.713928 v 0 c 0.68425,-0.723512 1.22355,-1.572756 1.6179,-2.541114 v 0 c 0.39009,-0.966153 0.58833,-2.002893 0.58833,-3.108013 v 0 c 0,-1.102914 -0.19824,-2.139653 -0.58833,-3.105806 v 0 c -0.39435,-0.968358 -0.93365,-1.815396 -1.6179,-2.541114 v 0 c -0.68213,-0.725717 -1.48362,-1.299233 -2.39596,-1.716134 v 0 c -0.91233,-0.414696 -1.89075,-0.622044 -2.92886,-0.622044 v 0 c -1.04236,0 -2.01865,0.207348 -2.93312,0.622044 m 0.7546,12.853361 c -0.68426,-0.308816 -1.28324,-0.736747 -1.7927,-1.27938 v 0 c -0.51373,-0.540428 -0.91447,-1.173501 -1.20651,-1.901424 v 0 c -0.29203,-0.725718 -0.43911,-1.495552 -0.43911,-2.309503 v 0 c 0,-0.81395 0.14708,-1.581578 0.43911,-2.307296 v 0 c 0.29204,-0.727923 0.69278,-1.360996 1.20651,-1.901424 v 0 c 0.50946,-0.542634 1.10844,-0.970564 1.7927,-1.27938 v 0 c 0.68638,-0.308816 1.41114,-0.46543 2.17852,-0.46543 v 0 c 0.76739,0 1.49214,0.156614 2.1764,0.46543 v 0 c 0.68638,0.308816 1.28111,0.736746 1.79483,1.27938 v 0 c 0.50946,0.540428 0.91234,1.173501 1.20437,1.901424 v 0 c 0.29204,0.725718 0.43699,1.493346 0.43699,2.307296 v 0 c 0,0.813951 -0.14495,1.583785 -0.43699,2.309503 v 0 c -0.29203,0.727923 -0.69491,1.360996 -1.20437,1.901424 v 0 c -0.51372,0.542633 -1.10845,0.970564 -1.79483,1.27938 v 0 c -0.68426,0.308816 -1.40901,0.46543 -2.1764,0.46543 v 0 c -0.76738,0 -1.49214,-0.156614 -2.17852,-0.46543"
           id="Fill-23"
           fill="url(#linearGradient-9)"
           style="fill:#ffffff;fill-opacity:1" />
        <g
           id="Clip-27"
           transform="translate(230)" />
        <path
           d="m 290.34685,24.7526 c -0.91629,0.432457 -1.7151,1.022795 -2.40071,1.775591 v 0 c -0.68775,0.755083 -1.22812,1.633726 -1.61899,2.638216 v 0 c -0.39513,1.00449 -0.58949,2.077624 -0.58949,3.22169 v 0 c 0,1.144067 0.19436,2.219489 0.58949,3.223979 v 0 c 0.39087,1.00449 0.93124,1.883133 1.61899,2.635928 v 0 c 0.68561,0.752796 1.48442,1.345422 2.40071,1.777879 v 0 c 0.91414,0.430169 1.89237,0.647542 2.9368,0.647542 v 0 c 1.04231,0 2.02053,-0.217373 2.93468,-0.647542 v 0 c 0.91628,-0.432457 1.7151,-1.025083 2.40071,-1.777879 v 0 c 0.68774,-0.752795 1.22385,-1.631438 1.60616,-2.635928 v 0 l 0.0833,-0.240254 h -2.1145 c -0.25417,0.521694 -0.566,0.981609 -0.93123,1.38432 v 0 c -0.51261,0.562881 -1.11279,1.00449 -1.7984,1.327117 v 0 c -0.68561,0.320338 -1.41394,0.480508 -2.18071,0.480508 v 0 c -0.76891,0 -1.49511,-0.16017 -2.18285,-0.480508 v 0 c -0.68562,-0.322627 -1.28579,-0.764236 -1.79626,-1.327117 v 0 c -0.51261,-0.560592 -0.91415,-1.219574 -1.2089,-1.97237 v 0 c -0.29262,-0.752795 -0.43785,-1.551354 -0.43785,-2.395675 v 0 c 0,-0.199067 0.008,-0.409575 0.0256,-0.631524 v 0 h 13.11846 c -0.0534,-0.903812 -0.24563,-1.766438 -0.57668,-2.590166 v 0 c -0.38232,-1.00449 -0.91842,-1.883133 -1.60617,-2.638216 v 0 c -0.68561,-0.752796 -1.48443,-1.343134 -2.40071,-1.775591 v 0 c -0.91415,-0.432457 -1.89237,-0.64983 -2.93468,-0.64983 v 0 c -1.04443,0 -2.02266,0.217373 -2.9368,0.64983 m -1.0423,3.267453 c 0.51047,-0.562881 1.11064,-1.00449 1.79625,-1.324829 v 0 c 0.68775,-0.322626 1.41394,-0.482796 2.18285,-0.482796 v 0 c 0.76678,0 1.49511,0.16017 2.18072,0.482796 v 0 c 0.68561,0.320339 1.28579,0.761948 1.79839,1.324829 v 0 c 0.42077,0.482796 0.76678,1.022795 1.04231,1.626862 v 0 h -10.07059 c 0.27339,-0.604067 0.63008,-1.144066 1.07007,-1.626862"
           id="Fill-26"
           fill="url(#linearGradient-12)"
           style="fill:#ffffff;fill-opacity:1" />
        <g
           id="Clip-30"
           transform="translate(230)" />
        <path
           d="m 308.41627,24.750008 c -0.91221,0.430732 -1.71572,1.025553 -2.41053,1.784462 v 0 c -0.1087,0.120787 -0.20887,0.280318 -0.30052,0.478591 v 0 -2.848758 h -1.89049 l 0.0277,15.002699 h 1.89049 v -6.81195 c 0,-0.838674 0.14706,-1.634048 0.43906,-2.38612 v 0 c 0.28986,-0.747514 0.69268,-1.403868 1.2042,-1.964503 v 0 c 0.50939,-0.560636 1.10829,-1.000484 1.79244,-1.321824 v 0 c 0.68629,-0.316782 1.41094,-0.476312 2.17822,-0.476312 v 0 -2.103523 c -1.04222,0 -2.01837,0.216506 -2.93057,0.647238"
           id="Fill-29"
           fill="url(#linearGradient-15)"
           style="fill:#ffffff;fill-opacity:1" />
        <g
           id="Clip-33"
           transform="translate(230)" />
        <path
           d="m 317.62005,24.248497 c -0.4106,0.0957 -0.79828,0.232728 -1.16512,0.41543 v 0 c -0.36683,0.180527 -0.70241,0.39803 -1.00463,0.656858 v 0 c -0.30222,0.258828 -0.544,0.539406 -0.72325,0.846085 v 0 -1.318066 h -1.87378 v 14.318198 h 1.90296 l -0.0292,-8.591354 c 0,-0.552457 0.11047,-1.096213 0.33557,-1.631269 v 0 c 0.22302,-0.535057 0.52108,-1.007038 0.89625,-1.420293 v 0 c 0.37517,-0.408905 0.81287,-0.737333 1.31102,-0.985286 v 0 c 0.50231,-0.247953 1.02964,-0.37193 1.58198,-0.37193 v 0 c 0.55234,0 1.07966,0.113101 1.57989,0.341479 v 0 c 0.49815,0.230553 0.93794,0.545932 1.31103,0.946137 v 0 c 0.37517,0.40238 0.66905,0.87001 0.88582,1.402891 v 0 c 0.2126,0.535057 0.32098,1.109264 0.32098,1.718271 v 0 l 0.025,8.591354 h 1.93006 l -0.0271,-8.591354 c 0,-0.876535 -0.16049,-1.71392 -0.48148,-2.503455 v 0 c -0.32097,-0.793884 -0.75659,-1.481193 -1.29851,-2.0641 v 0 c -0.54608,-0.580732 -1.18387,-1.046187 -1.91546,-1.387667 v 0 C 320.44844,24.276772 319.671,24.10277 318.85187,24.10277 v 0 c -0.41061,0 -0.82121,0.05003 -1.23182,0.145727"
           id="Fill-32"
           fill="url(#linearGradient-18)"
           style="fill:#ffffff;fill-opacity:1" />
        <g
           id="Clip-36"
           transform="translate(230)" />
        <path
           d="m 326.84109,18.436357 c -0.2876,0.244859 -0.43001,0.54464 -0.43001,0.903919 v 0 c 0,0.363856 0.14241,0.663637 0.43001,0.903919 v 0 c 0.2876,0.242571 0.64501,0.363857 1.07502,0.363857 v 0 c 0.43001,0 0.79021,-0.121286 1.07502,-0.363857 v 0 c 0.29039,-0.240282 0.4328,-0.540063 0.4328,-0.903919 v 0 c 0,-0.359279 -0.14241,-0.65906 -0.4328,-0.903919 v 0 c -0.28481,-0.240282 -0.64501,-0.359279 -1.07502,-0.359279 v 0 c -0.43001,0 -0.78742,0.118997 -1.07502,0.359279 z m -0.21501,20.730645 h 2.51024 V 24.102443 h -2.51024 z"
           id="Fill-35"
           fill="url(#linearGradient-21)"
           style="fill:#ffffff;fill-opacity:1" />
        <g
           id="Clip-39"
           transform="translate(230)" />
        <path
           d="m 335.69712,24.7526 c -0.94496,0.432457 -1.77512,1.022795 -2.48384,1.775591 v 0 c -0.70652,0.755083 -1.26511,1.633726 -1.67356,2.638216 v 0 c -0.40404,1.00449 -0.60937,2.077624 -0.60937,3.22169 v 0 c 0,1.144067 0.20533,2.219489 0.60937,3.223979 v 0 c 0.40845,1.00449 0.96704,1.883133 1.67356,2.635928 v 0 c 0.70872,0.752796 1.53888,1.345422 2.48384,1.777879 v 0 c 0.94496,0.430169 1.95616,0.647542 3.0336,0.647542 v 0 c 1.07965,0 2.09085,-0.217373 3.03802,-0.647542 v 0 c 0.94275,-0.432457 1.7707,-1.025083 2.48163,-1.777879 v 0 c 0.70873,-0.752795 1.26069,-1.631438 1.6581,-2.635928 v 0 l 0.0861,-0.240254 h -2.18578 c -0.26494,0.521694 -0.58729,0.981609 -0.96484,1.38432 v 0 c -0.52767,0.562881 -1.14808,1.00449 -1.85681,1.327117 v 0 c -0.70872,0.320338 -1.4616,0.480508 -2.25643,0.480508 v 0 c -0.79483,0 -1.5455,-0.16017 -2.25422,-0.480508 v 0 c -0.70873,-0.322627 -1.32693,-0.764236 -1.85902,-1.327117 v 0 c -0.52768,-0.560592 -0.94497,-1.219574 -1.24744,-1.97237 v 0 c -0.30248,-0.752795 -0.45262,-1.551354 -0.45262,-2.395675 v 0 c 0,-0.842032 0.15014,-1.64059 0.45262,-2.395674 v 0 c 0.30247,-0.752796 0.71976,-1.40949 1.24744,-1.97237 v 0 c 0.53209,-0.562881 1.15029,-1.00449 1.85902,-1.324829 v 0 c 0.70872,-0.322626 1.45939,-0.482796 2.25422,-0.482796 v 0 c 0.79483,0 1.54771,0.16017 2.25643,0.482796 v 0 c 0.70873,0.320339 1.32914,0.761948 1.85681,1.324829 v 0 c 0.37755,0.402711 0.69107,0.855761 0.93614,1.354574 v 0 h 2.21448 l -0.0861,-0.20822 c -0.39741,-1.00449 -0.94937,-1.883133 -1.6581,-2.638216 v 0 c -0.71093,-0.752796 -1.53888,-1.343134 -2.48163,-1.775591 v 0 c -0.94717,-0.432457 -1.95837,-0.64983 -3.03802,-0.64983 v 0 c -1.07744,0 -2.08864,0.217373 -3.0336,0.64983"
           id="Fill-38"
           fill="url(#linearGradient-24)"
           style="fill:#ffffff;fill-opacity:1" />
        <g
           id="Clip-42"
           transform="translate(230)" />
        <path
           d="m 357.6762,24.10277 v 8.286129 c 0,0.643027 -0.10632,1.244864 -0.32103,1.80551 v 0 c -0.21264,0.565224 -0.50658,1.050355 -0.88181,1.462258 v 0 c -0.37524,0.411904 -0.81302,0.73685 -1.31334,0.979416 v 0 c -0.50031,0.240277 -1.03607,0.361559 -1.60726,0.361559 v 0 c -0.5712,0 -1.10279,-0.121282 -1.59477,-0.361559 v 0 c -0.48989,-0.242566 -0.9235,-0.567512 -1.29873,-0.979416 v 0 c -0.37524,-0.411903 -0.66918,-0.897034 -0.8839,-1.462258 v 0 c -0.21263,-0.560646 -0.31895,-1.162483 -0.31895,-1.80551 v 0 -0.03204 l -0.0271,-8.254091 h -1.9283 l 0.025,8.254091 v 0.03204 c 0,0.922206 0.1626,1.796357 0.48364,2.620164 v 0 c 0.32104,0.823807 0.75256,1.542351 1.29874,2.153341 v 0 c 0.5441,0.613279 1.182,1.100698 1.91371,1.462258 v 0 c 0.73172,0.36156 1.50929,0.54234 2.33065,0.54234 v 0 c 0.82135,0 1.59893,-0.18078 2.33064,-0.54234 v 0 c 0.73171,-0.36156 1.36962,-0.848979 1.9158,-1.462258 v 0 c 0.54409,-0.61099 0.97144,-1.329534 1.28414,-2.153341 v 0 c 0.3127,-0.823807 0.46905,-1.697958 0.46905,-2.620164 v 0 -8.286129 z"
           id="Fill-41"
           fill="url(#linearGradient-27)"
           style="fill:#ffffff;fill-opacity:1" />
        <g
           id="Clip-45"
           transform="translate(230)" />
        <path
           d="m 364.4583,24.510058 c -0.63973,0.269999 -1.18677,0.620084 -1.64114,1.052541 v 0 c -0.45436,0.432457 -0.80926,0.926693 -1.06018,1.487286 v 0 c -0.25091,0.56288 -0.33907,1.171523 -0.26221,1.835082 v 0 c 0.0995,0.839745 0.37976,1.542201 0.84317,2.105082 v 0 c 0.46566,0.560592 1.01723,0.97932 1.65695,1.263049 v 0 c 0.63747,0.279152 1.33597,0.519406 2.09098,0.720761 v 0 c 0.75501,0.199068 1.38343,0.418729 1.88752,0.661271 v 0 c 0.50184,0.240254 0.88612,0.55144 1.14834,0.93127 v 0 c 0.25996,0.382118 0.37977,0.910676 0.36168,1.59254 v 0 c -0.0384,0.663558 -0.29838,1.226439 -0.77309,1.697794 v 0 c -0.47697,0.473643 -1.19129,0.707033 -2.14523,0.707033 v 0 c -0.83639,0.02059 -1.52132,-0.151017 -2.05706,-0.521694 v 0 c -0.53348,-0.36839 -0.90195,-0.775677 -1.10765,-1.224151 v 0 c -0.20345,-0.446186 -0.30743,-0.928982 -0.30743,-1.4461 v 0 h -2.0322 c -0.0204,0.862626 0.1198,1.610845 0.42045,2.24237 v 0 c 0.30065,0.633812 0.70302,1.1761 1.20712,1.626862 v 0 c 0.50183,0.45305 1.08278,0.803134 1.74059,1.054829 v 0 c 0.66007,0.251695 1.32692,0.377542 2.00507,0.377542 v 0 c 0.6759,0 1.32918,-0.100678 1.95987,-0.302034 v 0 c 0.62842,-0.201355 1.17998,-0.491948 1.65469,-0.871778 v 0 c 0.47697,-0.382118 0.85222,-0.855762 1.13252,-1.416354 v 0 c 0.2803,-0.562881 0.42272,-1.194405 0.42272,-1.896862 v 0 c 0,-0.944998 -0.17406,-1.72754 -0.52444,-2.3522 v 0 c -0.34812,-0.620084 -0.83639,-1.13949 -1.46708,-1.551354 v 0 c -0.62842,-0.411863 -1.30205,-0.736778 -2.01637,-0.977032 v 0 c -0.71659,-0.242542 -1.36987,-0.471355 -1.95987,-0.695592 v 0 c -0.59225,-0.219661 -1.06696,-0.459915 -1.42412,-0.72305 v 0 c -0.35942,-0.258559 -0.58547,-0.631525 -0.68267,-1.114321 v 0 c -0.0972,-0.539999 0.0429,-1.052541 0.42271,-1.535336 v 0 c 0.37525,-0.480508 0.78666,-0.803135 1.23198,-0.963304 v 0 c 0.44532,-0.160169 0.86352,-0.242542 1.25006,-0.242542 v 0 c 0.58096,0 1.11218,0.155593 1.59593,0.466779 v 0 c 0.48374,0.313474 0.81378,0.75966 0.9901,1.340845 v 0 h 2.17687 c -0.0384,-0.299745 -0.16954,-0.663558 -0.39107,-1.082286 v 0 c -0.22379,-0.423305 -0.52896,-0.839745 -0.9155,-1.251609 v 0 c -0.38881,-0.411863 -0.86804,-0.748219 -1.43995,-1.009066 v 0 c -0.56965,-0.260847 -1.24102,-0.393559 -2.01638,-0.393559 v 0 c -0.67815,0 -1.33822,0.137288 -1.97568,0.407288"
           id="Fill-44"
           fill="url(#linearGradient-30)"
           style="fill:#ffffff;fill-opacity:1" />
        <polygon
           id="Fill-47"
           fill="#185d93"
           points="60.954162,49.056708 60.954162,46.885068 63.024266,46.885068 63.024266,46.243095 60.954162,46.243095 60.954162,44.339313 63.151929,44.339313 63.151929,43.686271 60.256926,43.686271 60.256926,49.711964 63.269772,49.711964 63.269772,49.056708 "
           transform="translate(230)"
           style="fill:#ffffff;fill-opacity:1" />
        <path
           d="m 297.79413,47.905298 c 0,0.455305 0.009,0.846514 0.0354,1.186888 h -0.69661 l -0.0442,-0.70506 h -0.0177 c -0.19682,0.349215 -0.66123,0.80231 -1.42861,0.80231 -0.67892,0 -1.49053,-0.382368 -1.49053,-1.891949 v -2.524072 h 0.78507 v 2.382618 c 0,0.819992 0.25874,1.383598 0.9642,1.383598 0.52633,0 0.89343,-0.366897 1.03497,-0.722742 0.0464,-0.108301 0.073,-0.249755 0.073,-0.40226 v -2.641214 h 0.78507 z"
           id="Fill-48"
           fill="#185d93"
           style="fill:#ffffff;fill-opacity:1" />
        <path
           d="m 299.09802,46.120545 c 0,-0.508351 -0.009,-0.945975 -0.0354,-1.348235 h 0.68776 l 0.0354,0.857566 h 0.0265 c 0.19682,-0.579078 0.67892,-0.945975 1.20525,-0.945975 0.0796,0 0.14375,0.0088 0.21451,0.01768 v 0.740424 c -0.0796,-0.01768 -0.16143,-0.01768 -0.26758,-0.01768 -0.55287,0 -0.94651,0.411101 -1.05488,0.99902 -0.0177,0.108301 -0.0265,0.240914 -0.0265,0.366897 v 2.300839 h -0.78507 z"
           id="Fill-50"
           fill="#185d93"
           style="fill:#ffffff;fill-opacity:1" />
        <path
           d="m 302.42009,46.941421 c 0,0.945974 0.53518,1.659875 1.30477,1.659875 0.74969,0 1.3114,-0.70506 1.3114,-1.677557 0,-0.731583 -0.3671,-1.651035 -1.29371,-1.651035 -0.91997,0 -1.32246,0.857566 -1.32246,1.668717 m 3.41893,-0.0442 c 0,1.595779 -1.11458,2.291999 -2.15176,2.291999 -1.16102,0 -2.06994,-0.855355 -2.06994,-2.221272 0,-1.436643 0.95536,-2.283157 2.14292,-2.283157 1.24064,0 2.07878,0.899559 2.07878,2.21243"
           id="Fill-52"
           fill="#185d93"
           style="fill:#ffffff;fill-opacity:1" />
        <path
           d="m 307.6082,47.334177 c 0,0.114931 0.009,0.223232 0.0354,0.320482 0.14375,0.545924 0.617,0.919452 1.17872,0.919452 0.8293,0 1.31361,-0.678538 1.31361,-1.668717 0,-0.855355 -0.45556,-1.597989 -1.28708,-1.597989 -0.53517,0 -1.04381,0.375737 -1.18756,0.963656 -0.0265,0.09946 -0.0531,0.214391 -0.0531,0.313851 z m -0.77622,-1.151525 c 0,-0.552555 -0.0177,-0.99902 -0.0354,-1.410121 h 0.6944 l 0.0464,0.740424 h 0.0177 c 0.31182,-0.526032 0.8293,-0.828833 1.53476,-0.828833 1.05487,0 1.83994,0.884089 1.83994,2.185909 0,1.553785 -0.95535,2.320731 -1.97263,2.320731 -0.57277,0 -1.07256,-0.249755 -1.3313,-0.678538 h -0.0177 v 2.347255 h -0.77622 z"
           id="Fill-54"
           fill="#185d93"
           style="fill:#ffffff;fill-opacity:1" />
        <path
           d="m 314.65351,46.513301 c 0.009,-0.490669 -0.20567,-1.266456 -1.09026,-1.266456 -0.80276,0 -1.14112,0.722742 -1.20525,1.266456 z m -2.30435,0.561396 c 0.0177,1.063116 0.68776,1.50074 1.48168,1.50074 0.56393,0 0.91113,-0.09946 1.19862,-0.223233 l 0.14153,0.561396 c -0.27643,0.125983 -0.75853,0.276278 -1.4463,0.276278 -1.32909,0 -2.12522,-0.884088 -2.12522,-2.185908 0,-1.30182 0.76738,-2.320732 2.02792,-2.320732 1.41976,0 1.78465,1.231093 1.78465,2.026773 0,0.159135 -0.009,0.276277 -0.0265,0.364686 z"
           id="Fill-56"
           fill="#185d93"
           style="fill:#ffffff;fill-opacity:1" />
        <path
           d="m 317.14495,42.91683 c -0.20566,0.749265 -0.58825,1.712921 -0.83151,2.124022 l -0.49979,0.05304 c 0.18797,-0.526032 0.42902,-1.445484 0.52854,-2.088658 z"
           id="Fill-58"
           fill="#185d93"
           style="fill:#ffffff;fill-opacity:1" />
        <path
           d="m 317.26106,48.297833 c 0.24105,0.141454 0.65238,0.3028 1.04381,0.3028 0.56393,0 0.83151,-0.276277 0.83151,-0.640964 0,-0.375737 -0.22336,-0.572447 -0.79613,-0.786838 -0.78507,-0.285119 -1.14996,-0.705061 -1.14996,-1.222252 0,-0.69622 0.57056,-1.266457 1.49053,-1.266457 0.43787,0 0.82046,0.114932 1.05266,0.267437 l -0.18576,0.570237 c -0.17029,-0.10609 -0.4821,-0.258596 -0.88459,-0.258596 -0.46441,0 -0.71431,0.267437 -0.71431,0.590129 0,0.355846 0.2499,0.517192 0.81161,0.740424 0.74085,0.276278 1.13449,0.652015 1.13449,1.292979 0,0.766946 -0.5971,1.30403 -1.60774,1.30403 -0.47326,0 -0.90892,-0.125983 -1.2141,-0.30501 z"
           id="Fill-60"
           fill="#185d93"
           style="fill:#ffffff;fill-opacity:1" />
        <path
           d="m 325.53882,46.513301 c 0.009,-0.490669 -0.20567,-1.266456 -1.09026,-1.266456 -0.80276,0 -1.14112,0.722742 -1.20525,1.266456 z m -2.30436,0.561396 c 0.0177,1.063116 0.68777,1.50074 1.48169,1.50074 0.56392,0 0.91112,-0.09946 1.19862,-0.223233 l 0.14153,0.561396 c -0.27643,0.125983 -0.75853,0.276278 -1.4463,0.276278 -1.33131,0 -2.12523,-0.884088 -2.12523,-2.185908 0,-1.30182 0.76738,-2.320732 2.02792,-2.320732 1.41977,0 1.78466,1.231093 1.78466,2.026773 0,0.159135 -0.009,0.276277 -0.0265,0.364686 z"
           id="Fill-62"
           fill="#185d93"
           style="fill:#ffffff;fill-opacity:1" />
        <path
           d="m 327.55701,44.772973 0.93766,2.552805 c 0.10615,0.285119 0.21451,0.623282 0.28528,0.881878 h 0.0177 c 0.0818,-0.258596 0.17028,-0.587919 0.27643,-0.89956 l 0.85805,-2.535123 h 0.83152 l -1.17872,3.078837 c -0.56392,1.480848 -0.94872,2.230113 -1.48389,2.7031 -0.39144,0.331533 -0.76739,0.464146 -0.96421,0.49951 L 326.94,50.404615 c 0.19682,-0.0641 0.45557,-0.187869 0.68777,-0.384578 0.21451,-0.170187 0.47326,-0.472987 0.66123,-0.875247 0.0354,-0.07957 0.0619,-0.141455 0.0619,-0.185659 0,-0.04641 -0.0177,-0.108301 -0.0619,-0.205551 l -1.59005,-3.980607 z"
           id="Fill-64"
           fill="#185d93"
           style="fill:#ffffff;fill-opacity:1" />
        <path
           d="m 334.12906,46.513301 c 0.009,-0.490669 -0.20567,-1.266456 -1.09026,-1.266456 -0.80276,0 -1.14112,0.722742 -1.20525,1.266456 z m -2.30436,0.561396 c 0.0177,1.063116 0.68777,1.50074 1.4839,1.50074 0.56172,0 0.90892,-0.09946 1.19641,-0.223233 l 0.14153,0.561396 c -0.27643,0.125983 -0.75853,0.276278 -1.4463,0.276278 -1.32909,0 -2.12523,-0.884088 -2.12523,-2.185908 0,-1.30182 0.76739,-2.320732 2.02793,-2.320732 1.41976,0 1.78465,1.231093 1.78465,2.026773 0,0.159135 -0.009,0.276277 -0.0265,0.364686 z"
           id="Fill-66"
           fill="#185d93"
           style="fill:#ffffff;fill-opacity:1" />
        <path
           d="m 335.75449,48.297833 c 0.24105,0.141454 0.65238,0.3028 1.04381,0.3028 0.56393,0 0.83152,-0.276277 0.83152,-0.640964 0,-0.375737 -0.22336,-0.572447 -0.79613,-0.786838 -0.78508,-0.285119 -1.14997,-0.705061 -1.14997,-1.222252 0,-0.69622 0.57056,-1.266457 1.49053,-1.266457 0.43788,0 0.82046,0.114932 1.05267,0.267437 l -0.18577,0.570237 c -0.17028,-0.10609 -0.4821,-0.258596 -0.88459,-0.258596 -0.46441,0 -0.7143,0.267437 -0.7143,0.590129 0,0.355846 0.24989,0.517192 0.81161,0.740424 0.74084,0.276278 1.13448,0.652015 1.13448,1.292979 0,0.766946 -0.59709,1.30403 -1.60774,1.30403 -0.47325,0 -0.90891,-0.125983 -1.2141,-0.30501 z"
           id="Fill-68"
           fill="#185d93"
           style="fill:#ffffff;fill-opacity:1" />
        <path
           d="m 341.78208,46.941421 c 0,0.945974 0.53517,1.659875 1.30255,1.659875 0.7519,0 1.31362,-0.70506 1.31362,-1.677557 0,-0.731583 -0.36711,-1.651035 -1.29371,-1.651035 -0.91997,0 -1.32246,0.857566 -1.32246,1.668717 m 3.41893,-0.0442 c 0,1.595779 -1.11458,2.291999 -2.15176,2.291999 -1.16102,0 -2.06994,-0.855355 -2.06994,-2.221272 0,-1.436643 0.95536,-2.283157 2.14292,-2.283157 1.24064,0 2.07878,0.899559 2.07878,2.21243"
           id="Fill-70"
           fill="#185d93"
           style="fill:#ffffff;fill-opacity:1" />
        <path
           d="m 346.1933,45.941959 c 0,-0.455305 -0.009,-0.811151 -0.0354,-1.169207 h 0.69661 l 0.0442,0.713902 h 0.0177 c 0.21451,-0.402261 0.71431,-0.802311 1.42861,-0.802311 0.5971,0 1.52592,0.355846 1.52592,1.836694 v 2.570486 h -0.78508 v -2.488708 c 0,-0.69622 -0.25874,-1.277508 -0.99958,-1.277508 -0.50864,0 -0.91113,0.366897 -1.05266,0.804521 -0.0376,0.09725 -0.0553,0.232073 -0.0553,0.364686 v 2.597009 h -0.78507 z"
           id="Fill-72"
           fill="#185d93"
           style="fill:#ffffff;fill-opacity:1" />
        <polygon
           id="Fill-74"
           fill="#185d93"
           points="126.45254,49.092186 123.06014,49.092186 123.06014,43.078176 126.31985,43.078176 126.31985,43.727981 123.84521,43.727981 123.84521,45.628771 126.17611,45.628771 126.17611,46.271945 123.84521,46.271945 123.84521,48.440171 126.45254,48.440171 "
           transform="translate(230)"
           style="fill:#ffffff;fill-opacity:1" />
        <path
           d="m 359.71247,46.887933 c -0.85805,-0.01768 -1.8311,0.134824 -1.8311,0.972497 0,0.517192 0.34057,0.749265 0.732,0.749265 0.57277,0 0.93766,-0.355845 1.06372,-0.722742 0.0265,-0.08841 0.0354,-0.179028 0.0354,-0.249755 z m 0.75853,1.169207 c 0,0.373527 0.0177,0.740424 0.0619,1.034383 h -0.70546 l -0.0619,-0.543714 h -0.0265 c -0.24105,0.338164 -0.70546,0.643174 -1.32246,0.643174 -0.87353,0 -1.32025,-0.616651 -1.32025,-1.242144 0,-1.043224 0.92882,-1.613461 2.59848,-1.60462 V 46.2536 c 0,-0.347005 -0.0973,-0.99902 -0.9819,-0.990179 -0.41133,0 -0.83151,0.117142 -1.13448,0.320482 l -0.17913,-0.526032 c 0.35826,-0.223233 0.88459,-0.373528 1.42861,-0.373528 1.32246,0 1.64312,0.89956 1.64312,1.757126 z"
           id="Fill-76"
           fill="#185d93"
           style="fill:#ffffff;fill-opacity:1" />
        <path
           d="m 361.73973,46.120545 c 0,-0.508351 -0.009,-0.945975 -0.0354,-1.348235 h 0.68777 l 0.0354,0.857566 h 0.0265 c 0.19682,-0.579078 0.67892,-0.945975 1.20525,-0.945975 0.0796,0 0.14375,0.0088 0.21452,0.01768 v 0.740424 c -0.0818,-0.01768 -0.16144,-0.01768 -0.26759,-0.01768 -0.55508,0 -0.94651,0.411101 -1.05487,0.99902 -0.0177,0.108301 -0.0265,0.240914 -0.0265,0.366897 v 2.300839 h -0.78507 z"
           id="Fill-78"
           fill="#185d93"
           style="fill:#ffffff;fill-opacity:1" />
        <path
           d="m 365.82056,43.737706 v 1.034383 h 1.12563 v 0.59897 h -1.12563 v 2.329572 c 0,0.534874 0.15259,0.837674 0.59046,0.837674 0.2123,0 0.33835,-0.01768 0.45335,-0.05305 l 0.0354,0.596759 c -0.15038,0.05526 -0.39143,0.108301 -0.6944,0.108301 -0.3671,0 -0.66123,-0.125983 -0.8492,-0.329323 -0.21452,-0.243124 -0.30298,-0.625492 -0.30298,-1.133843 v -2.356095 h -0.67007 v -0.59897 h 0.67007 v -0.80231 z"
           id="Fill-80"
           fill="#185d93"
           style="fill:#ffffff;fill-opacity:1" />
        <path
           d="m 367.8299,42.756368 h 0.78507 v 2.7031 h 0.0177 c 0.12606,-0.223232 0.32288,-0.426573 0.56393,-0.561396 0.2322,-0.134824 0.50864,-0.214392 0.80276,-0.214392 0.57941,0 1.50823,0.358056 1.50823,1.838904 v 2.570486 h -0.78508 v -2.482077 c 0,-0.69622 -0.25874,-1.275298 -0.99958,-1.275298 -0.50864,0 -0.90228,0.355846 -1.05266,0.775788 -0.0464,0.117142 -0.0553,0.232073 -0.0553,0.375737 v 2.60585 h -0.78507 z"
           id="Fill-82"
           fill="#185d93"
           style="fill:#ffffff;fill-opacity:1" />
        <polygon
           id="Fill-1"
           fill="#ffffff"
           points="0,49 72,49 72,0 0,0 " />
        <polygon
           id="Fill-2"
           fill="#004494"
           points="2,47 71,47 71,1 2,1 " />
        <polygon
           id="Fill-3"
           fill="#ffed00"
           points="39,8.924443 37.08553,8.924443 36.5,7 35.912937,8.9260575 34,8.924443 35.552728,10.099774 34.970264,12 36.5,10.824669 38.028204,12 37.447272,10.099774 " />
        <polygon
           id="Fill-4"
           fill="#ffed00"
           points="31,10.925436 29.084943,10.925436 28.499233,9 27.913524,10.92705 26,10.925436 27.551671,12.100387 26.970561,14 28.500767,12.825048 30.029439,14 29.448329,12.100387 " />
        <polygon
           id="Fill-5"
           fill="#ffed00"
           points="20.969325,19 22.5,17.825048 24.030675,19 23.447853,17.100387 25,15.925436 23.08589,15.925436 22.5,14 21.91411,15.92705 20,15.925436 21.552147,17.100387 " />
        <polygon
           id="Fill-6"
           fill="#ffed00"
           points="21.08553,23.925436 20.5,22 19.91447,23.928664 18,23.925436 19.552728,25.100387 18.970264,27 20.5,25.825048 22.028204,27 21.447272,25.100387 23,23.925436 " />
        <polygon
           id="Fill-7"
           fill="#ffed00"
           points="21.553204,32.100387 20.970561,34 22.500767,32.823434 24.029439,34 23.448329,32.100387 25,30.925436 23.086476,30.925436 22.500767,29 21.915057,30.92705 20,30.925436 " />
        <polygon
           id="Fill-8"
           fill="#ffed00"
           points="27.552728,38.099774 26.971796,40 28.5,38.824669 30.028204,40 29.447272,38.099774 31,36.924443 29.08553,36.924443 28.5,35 27.91447,36.926057 26,36.924443 " />
        <polygon
           id="Fill-9"
           fill="#ffed00"
           points="35.552728,40.100387 34.971796,42 36.5,40.825048 38.028204,42 37.447272,40.100387 39,38.925436 37.08553,38.925436 36.5,37 35.91447,38.92705 34,38.925436 " />
        <polygon
           id="Fill-10"
           fill="#ffed00"
           points="42.551671,38.099774 41.970561,40 43.499233,38.824669 45.029439,40 44.446796,38.099774 46,36.924443 44.084943,36.924443 43.499233,35 42.913523,36.926057 41,36.924443 " />
        <polygon
           id="Fill-11"
           fill="#ffed00"
           points="48.553681,32.100387 47.970859,34 49.5,32.823434 51.030675,34 50.446319,32.100387 52,30.925436 50.087423,30.925436 49.5,29 48.912577,30.92705 47,30.925436 " />
        <polygon
           id="Fill-12"
           fill="#ffed00"
           points="49,23.925436 50.552728,25.100387 49.971796,27 51.498467,25.823435 53.028204,27 52.447272,25.100387 54,23.925436 52.08553,23.925436 51.498467,22 50.91447,23.92705 " />
        <polygon
           id="Fill-13"
           fill="#ffed00"
           points="52,15.926058 50.086477,15.926058 49.500767,14 48.913523,15.927672 47,15.926058 48.553204,17.099774 47.970561,19 49.500767,17.824669 51.029439,19 50.446796,17.099774 " />
        <polygon
           id="Fill-14"
           fill="#ffed00"
           points="41.970264,14 43.5,12.823434 45.028204,14 44.447272,12.100387 46,10.923822 44.083998,10.923822 43.498467,9 42.912937,10.92705 41,10.923822 42.549663,12.100387 " />
        <path
           d="m 89.213697,16.09193 v 2.158248 h 0.839712 c 0.606296,0 1.011472,-0.04108 1.21406,-0.118843 0.205524,-0.0807 0.364071,-0.205408 0.481513,-0.374135 0.115974,-0.168728 0.173227,-0.3668 0.173227,-0.592748 0,-0.275833 -0.08074,-0.503249 -0.243692,-0.682247 -0.162951,-0.180465 -0.368475,-0.29344 -0.61804,-0.338923 -0.183504,-0.03374 -0.551979,-0.05135 -1.105426,-0.05135 z m -1.535557,6.317753 v -7.604485 h 2.463351 c 0.935134,0 1.544366,0.03815 1.827695,0.114442 0.436005,0.114441 0.800076,0.362397 1.095149,0.745336 0.293606,0.381471 0.440409,0.875917 0.440409,1.480402 0,0.466569 -0.08515,0.859778 -0.253969,1.17816 -0.170291,0.316915 -0.384623,0.566338 -0.645932,0.748271 -0.261309,0.180465 -0.527022,0.300775 -0.79714,0.359463 -0.365539,0.07336 -0.896965,0.11004 -1.59281,0.11004 h -1.001196 v 2.868371 z"
           id="Fill-84"
           fill="#87888a"
           style="fill:#ffffff;fill-opacity:1" />
        <path
           d="m 96.30721,18.022029 h 1.136254 c 0.73695,0 1.196443,-0.03081 1.379947,-0.09243 0.183503,-0.06309 0.32737,-0.171663 0.4316,-0.322784 0.10423,-0.152589 0.155611,-0.343324 0.155611,-0.57074 0,-0.25676 -0.069,-0.462167 -0.205524,-0.620625 C 99.068572,16.259924 98.87626,16.158688 98.626695,16.117606 98.501913,16.1 98.129033,16.092664 97.505121,16.092664 H 96.30721 Z m -1.535557,4.386921 v -7.603018 h 3.232598 c 0.81182,0 1.403435,0.06749 1.77191,0.20394 0.368479,0.137917 0.663549,0.380004 0.885219,0.729197 0.22167,0.350661 0.33178,0.748271 0.33178,1.198701 0,0.569272 -0.16736,1.04171 -0.50354,1.414378 -0.33471,0.371201 -0.836773,0.604486 -1.504726,0.701321 0.331774,0.19367 0.606296,0.406414 0.822096,0.638231 0.2158,0.231817 0.50794,0.642632 0.87494,1.233913 l 0.92927,1.483337 h -1.837975 l -1.109829,-1.654999 c -0.3949,-0.589814 -0.665017,-0.962482 -0.810352,-1.116538 -0.145335,-0.154055 -0.29801,-0.259693 -0.460961,-0.316914 -0.162951,-0.05575 -0.421324,-0.0851 -0.773651,-0.0851 H 96.30721 v 3.173549 z"
           id="Fill-86"
           fill="#87888a"
           style="fill:#ffffff;fill-opacity:1" />
        <path
           d="m 103.71195,18.602306 c 0,0.861245 0.19965,1.514148 0.59748,1.958708 0.39784,0.444561 0.90284,0.666108 1.51501,0.666108 0.61217,0 1.11423,-0.22008 1.50766,-0.661706 0.39197,-0.440159 0.58868,-1.101865 0.58868,-1.983651 0,-0.870048 -0.19084,-1.521484 -0.57253,-1.949906 -0.38315,-0.429889 -0.89109,-0.642632 -1.52381,-0.642632 -0.63272,0 -1.1436,0.215678 -1.53116,0.649968 -0.38755,0.434291 -0.58133,1.088661 -0.58133,1.963111 m -1.58254,0.05135 c 0,-0.773214 0.11598,-1.424649 0.34792,-1.949906 0.17323,-0.38734 0.40958,-0.733599 0.70906,-1.04171 0.29801,-0.308112 0.62538,-0.535528 0.98211,-0.685182 0.47417,-0.199539 1.02028,-0.300775 1.63979,-0.300775 1.12157,0 2.01854,0.347726 2.6909,1.043177 0.67235,0.695452 1.01,1.660868 1.01,2.899183 0,1.228044 -0.33471,2.187591 -1.0012,2.881576 -0.66795,0.692517 -1.56051,1.038776 -2.67915,1.038776 -1.13038,0 -2.03028,-0.344792 -2.69823,-1.034374 -0.66796,-0.689583 -1.0012,-1.640327 -1.0012,-2.850765"
           id="Fill-88"
           fill="#87888a"
           style="fill:#ffffff;fill-opacity:1" />
        <path
           d="m 114.24696,19.613792 v -1.280864 h 3.3104 v 3.028296 c -0.3215,0.311046 -0.78686,0.585412 -1.39756,0.823098 -0.6107,0.236219 -1.23021,0.353595 -1.85559,0.353595 -0.79567,0 -1.49005,-0.165794 -2.0802,-0.500315 -0.59308,-0.333054 -1.03642,-0.809893 -1.33443,-1.430518 -0.29801,-0.620624 -0.44628,-1.295535 -0.44628,-2.024732 0,-0.792287 0.16588,-1.496542 0.49766,-2.112765 0.33324,-0.614756 0.81916,-1.087193 1.45922,-1.414378 0.48738,-0.252358 1.09368,-0.378537 1.82035,-0.378537 0.94394,0 1.68236,0.198071 2.21379,0.592747 0.53142,0.397611 0.87201,0.944876 1.02468,1.641795 l -1.52528,0.286103 c -0.10716,-0.372668 -0.30975,-0.669042 -0.60483,-0.88472 -0.29507,-0.215678 -0.66501,-0.324251 -1.10836,-0.324251 -0.67089,0 -1.20378,0.212744 -1.60015,0.638231 -0.39637,0.425488 -0.59455,1.056382 -0.59455,1.892685 0,0.902327 0.20112,1.578705 0.60189,2.030602 0.40077,0.450429 0.9278,0.677845 1.57813,0.677845 0.3215,0 0.64447,-0.06309 0.96743,-0.189268 0.32444,-0.126179 0.60189,-0.280235 0.83238,-0.460701 v -0.963948 z"
           id="Fill-90"
           fill="#87888a"
           style="fill:#ffffff;fill-opacity:1" />
        <path
           d="m 120.51544,18.022029 h 1.13625 c 0.73695,0 1.19645,-0.03081 1.37995,-0.09243 0.1835,-0.06309 0.32737,-0.171663 0.4316,-0.322784 0.10423,-0.152589 0.15561,-0.343324 0.15561,-0.57074 0,-0.25676 -0.069,-0.462167 -0.20552,-0.620625 -0.13653,-0.155523 -0.32884,-0.256759 -0.57841,-0.297841 -0.12478,-0.01761 -0.49766,-0.02494 -1.12157,-0.02494 h -1.19791 z m -1.53556,4.386921 v -7.603018 h 3.2326 c 0.81182,0 1.40343,0.06749 1.77191,0.20394 0.36847,0.137917 0.66355,0.380004 0.88522,0.729197 0.22167,0.350661 0.33177,0.748271 0.33177,1.198701 0,0.569272 -0.16735,1.04171 -0.50353,1.414378 -0.33471,0.371201 -0.83677,0.604486 -1.50473,0.701321 0.33178,0.19367 0.6063,0.406414 0.8221,0.638231 0.2158,0.231817 0.50794,0.642632 0.87494,1.233913 l 0.92926,1.483337 h -1.83797 l -1.10983,-1.654999 c -0.3949,-0.589814 -0.66501,-0.962482 -0.81035,-1.116538 -0.14533,-0.154055 -0.29801,-0.259693 -0.46096,-0.316914 -0.16295,-0.05575 -0.42132,-0.0851 -0.77365,-0.0851 h -0.31122 v 3.173549 z"
           id="Fill-92"
           fill="#87888a"
           style="fill:#ffffff;fill-opacity:1" />
        <path
           d="m 130.68197,19.401782 -1.04817,-2.822889 -1.02762,2.822889 z m 2.82743,3.007755 h -1.67062 l -0.66355,-1.726892 h -3.04175 l -0.62832,1.726892 h -1.62804 l 2.96248,-7.604486 h 1.62511 z"
           id="Fill-94"
           fill="#87888a"
           style="fill:#ffffff;fill-opacity:1" />
        <polygon
           id="Fill-96"
           fill="#87888a"
           points="139.34819,14.804758 141.65152,14.804758 141.65152,22.409243 140.2246,22.409243 140.2246,16.424544 138.714,22.409243 137.23569,22.409243 135.73096,16.424544 135.73096,22.409243 134.30404,22.409243 134.30404,14.804758 136.60297,14.804758 137.98292,19.992769 "
           style="fill:#ffffff;fill-opacity:1" />
        <polygon
           id="Fill-98"
           fill="#87888a"
           points="148.20069,14.804758 150.50403,14.804758 150.50403,22.409243 149.0771,22.409243 149.0771,16.424544 147.5665,22.409243 146.0882,22.409243 144.58347,16.424544 144.58347,22.409243 143.15654,22.409243 143.15654,14.804758 145.45548,14.804758 146.83542,19.992769 "
           style="fill:#ffffff;fill-opacity:1" />
        <polygon
           id="Fill-100"
           fill="#87888a"
           points="153.56633,16.09149 153.56633,17.778768 157.38614,17.778768 157.38614,19.059631 153.56633,19.059631 153.56633,21.12838 157.81628,21.12838 157.81628,22.409243 152.03078,22.409243 152.03078,14.804758 157.67094,14.804758 157.67094,16.09149 "
           style="fill:#ffffff;fill-opacity:1" />
        <path
           d="m 163.34267,18.602306 c 0,0.861245 0.19965,1.514148 0.59749,1.958708 0.39783,0.444561 0.90283,0.666108 1.515,0.666108 0.61217,0 1.11423,-0.22008 1.50767,-0.661706 0.39196,-0.440159 0.58868,-1.101865 0.58868,-1.983651 0,-0.870048 -0.19085,-1.521484 -0.57254,-1.949906 -0.38315,-0.429889 -0.89109,-0.642632 -1.52381,-0.642632 -0.63272,0 -1.14359,0.215678 -1.53115,0.649968 -0.38756,0.434291 -0.58134,1.088661 -0.58134,1.963111 m -1.58254,0.05135 c 0,-0.773214 0.11598,-1.424649 0.34793,-1.949906 0.17322,-0.38734 0.40958,-0.733599 0.70905,-1.04171 0.29801,-0.308112 0.62538,-0.535528 0.98212,-0.685182 0.47417,-0.199539 1.02028,-0.300775 1.63978,-0.300775 1.12158,0 2.01854,0.347726 2.6909,1.043177 0.67236,0.695452 1.01,1.660868 1.01,2.899183 0,1.228044 -0.33471,2.187591 -1.00119,2.881576 -0.66796,0.692517 -1.56052,1.038776 -2.67915,1.038776 -1.13039,0 -2.03029,-0.344792 -2.69824,-1.034374 -0.66795,-0.689583 -1.0012,-1.640327 -1.0012,-2.850765"
           id="Fill-102"
           fill="#87888a"
           style="fill:#ffffff;fill-opacity:1" />
        <polygon
           id="Fill-104"
           fill="#87888a"
           points="171.88439,16.09149 171.88439,17.891742 175.06121,17.891742 175.06121,19.178474 171.88439,19.178474 171.88439,22.409243 170.34883,22.409243 170.34883,14.804758 175.56474,14.804758 175.56474,16.09149 "
           style="fill:#ffffff;fill-opacity:1" />
        <polygon
           id="Fill-106"
           fill="#87888a"
           points="185.28485,14.804758 185.28485,16.09149 183.03143,16.09149 183.03143,22.409243 181.49587,22.409243 181.49587,16.09149 179.23804,16.09149 179.23804,14.804758 "
           style="fill:#ffffff;fill-opacity:1" />
        <polygon
           id="Fill-108"
           fill="#87888a"
           points="190.82636,17.797841 190.82636,14.804758 192.36192,14.804758 192.36192,22.409243 190.82636,22.409243 190.82636,19.084574 187.81544,19.084574 187.81544,22.409243 186.27988,22.409243 186.27988,14.804758 187.81544,14.804758 187.81544,17.797841 "
           style="fill:#ffffff;fill-opacity:1" />
        <polygon
           id="Fill-110"
           fill="#87888a"
           points="195.4853,16.09149 195.4853,17.778768 199.30511,17.778768 199.30511,19.059631 195.4853,19.059631 195.4853,21.12838 199.73524,21.12838 199.73524,22.409243 193.94974,22.409243 193.94974,14.804758 199.5899,14.804758 199.5899,16.09149 "
           style="fill:#ffffff;fill-opacity:1" />
        <polygon
           id="Fill-112"
           fill="#87888a"
           points="89.21311,27.988116 89.21311,29.675393 93.03292,29.675393 93.03292,30.956256 89.21311,30.956256 89.21311,33.025005 93.463052,33.025005 93.463052,34.305869 87.677552,34.305869 87.677552,26.701383 93.317717,26.701383 93.317717,27.988116 "
           style="fill:#ffffff;fill-opacity:1" />
        <path
           d="m 94.755357,26.70197 h 1.535558 v 4.119891 c 0,0.652903 0.02055,1.075456 0.05725,1.269126 0.06606,0.312513 0.22314,0.561937 0.469769,0.749738 0.248097,0.187801 0.585743,0.283169 1.014408,0.283169 0.436004,0 0.764843,-0.0895 0.986515,-0.268497 0.221672,-0.177531 0.353795,-0.396143 0.399304,-0.655837 0.04551,-0.259694 0.06753,-0.689583 0.06753,-1.291134 V 26.70197 h 1.535559 v 3.995179 c 0,0.912597 -0.0411,1.556697 -0.12478,1.933767 -0.0822,0.37707 -0.23489,0.695452 -0.45803,0.953678 -0.22314,0.259694 -0.522617,0.466569 -0.895496,0.619158 -0.372879,0.155523 -0.861733,0.231817 -1.463624,0.231817 -0.726674,0 -1.277185,-0.08363 -1.653,-0.250891 -0.374347,-0.168727 -0.672357,-0.385873 -0.889625,-0.65437 -0.217269,-0.26703 -0.361135,-0.548732 -0.430133,-0.842171 -0.101294,-0.435758 -0.151207,-1.078391 -0.151207,-1.929365 z"
           id="Fill-114"
           fill="#87888a"
           style="fill:#ffffff;fill-opacity:1" />
        <path
           d="m 103.98221,29.918654 h 1.13625 c 0.73695,0 1.19645,-0.03081 1.37995,-0.09243 0.1835,-0.06309 0.32737,-0.171662 0.4316,-0.322784 0.10423,-0.152588 0.15561,-0.343324 0.15561,-0.57074 0,-0.256759 -0.069,-0.462167 -0.20552,-0.620624 -0.13653,-0.155523 -0.32884,-0.25676 -0.57841,-0.297841 -0.12478,-0.01761 -0.49766,-0.02494 -1.12157,-0.02494 h -1.19791 z m -1.53556,4.386921 v -7.603018 h 3.2326 c 0.81182,0 1.40343,0.06749 1.77191,0.203941 0.36848,0.137916 0.66355,0.380004 0.88522,0.729197 0.22167,0.35066 0.33178,0.748271 0.33178,1.1987 0,0.569273 -0.16736,1.041711 -0.50354,1.414379 -0.33471,0.371201 -0.83677,0.604485 -1.50473,0.70132 0.33178,0.19367 0.6063,0.406414 0.8221,0.638231 0.2158,0.231817 0.50794,0.642633 0.87494,1.233913 l 0.92927,1.483337 h -1.83798 l -1.10982,-1.654999 c -0.3949,-0.589813 -0.66502,-0.962481 -0.81036,-1.116537 -0.14533,-0.154056 -0.29801,-0.259694 -0.46096,-0.316915 -0.16295,-0.05575 -0.42132,-0.0851 -0.77365,-0.0851 h -0.31122 v 3.173548 z"
           id="Fill-116"
           fill="#87888a"
           style="fill:#ffffff;fill-opacity:1" />
        <path
           d="m 111.38753,30.498931 c 0,0.861245 0.19965,1.514148 0.59749,1.958709 0.39784,0.444561 0.90284,0.666108 1.515,0.666108 0.61217,0 1.11424,-0.22008 1.50767,-0.661707 0.39196,-0.440159 0.58868,-1.101865 0.58868,-1.983651 0,-0.870048 -0.19085,-1.521484 -0.57253,-1.949905 -0.38316,-0.429889 -0.8911,-0.642633 -1.52382,-0.642633 -0.63272,0 -1.14359,0.215678 -1.53115,0.649969 -0.38756,0.43429 -0.58134,1.08866 -0.58134,1.96311 m -1.58253,0.05135 c 0,-0.773213 0.11597,-1.424649 0.34792,-1.949906 0.17323,-0.38734 0.40958,-0.733599 0.70906,-1.04171 0.29801,-0.308112 0.62538,-0.535527 0.98211,-0.685181 0.47417,-0.199539 1.02028,-0.300776 1.63979,-0.300776 1.12157,0 2.01854,0.347726 2.69089,1.043178 0.67236,0.695451 1.01001,1.660867 1.01001,2.899182 0,1.228045 -0.33471,2.187592 -1.0012,2.881576 -0.66795,0.692518 -1.56051,1.038776 -2.67915,1.038776 -1.13038,0 -2.03029,-0.344791 -2.69824,-1.034374 -0.66795,-0.689583 -1.00119,-1.640327 -1.00119,-2.850765"
           id="Fill-118"
           fill="#87888a"
           style="fill:#ffffff;fill-opacity:1" />
        <path
           d="m 119.91898,27.988556 v 2.158248 h 0.83971 c 0.6063,0 1.01147,-0.04108 1.21406,-0.118843 0.20552,-0.0807 0.36407,-0.205408 0.48151,-0.374136 0.11598,-0.168728 0.17323,-0.366799 0.17323,-0.592748 0,-0.275833 -0.0807,-0.503249 -0.24369,-0.682247 -0.16295,-0.180465 -0.36848,-0.293439 -0.61804,-0.338922 -0.18351,-0.03375 -0.55198,-0.05135 -1.10543,-0.05135 z m -1.53556,6.317753 v -7.604486 h 2.46335 c 0.93514,0 1.54437,0.03815 1.8277,0.114442 0.436,0.114441 0.80007,0.362398 1.09515,0.745336 0.2936,0.381472 0.44041,0.875917 0.44041,1.480403 0,0.466569 -0.0851,0.859778 -0.25397,1.17816 -0.1703,0.316914 -0.38463,0.566338 -0.64594,0.74827 -0.26131,0.180466 -0.52702,0.300776 -0.79714,0.359464 -0.36553,0.07336 -0.89696,0.110039 -1.59281,0.110039 h -1.00119 v 2.868372 z"
           id="Fill-120"
           fill="#87888a"
           style="fill:#ffffff;fill-opacity:1" />
        <polygon
           id="Fill-122"
           fill="#87888a"
           points="127.00706,27.988116 127.00706,29.675393 130.82687,29.675393 130.82687,30.956256 127.00706,30.956256 127.00706,33.025005 131.257,33.025005 131.257,34.305869 125.4715,34.305869 125.4715,26.701383 131.11167,26.701383 131.11167,27.988116 "
           style="fill:#ffffff;fill-opacity:1" />
        <path
           d="m 136.59211,31.298407 -1.04817,-2.822888 -1.02762,2.822888 z m 2.82742,3.007755 h -1.67061 l -0.66355,-1.726891 h -3.04176 l -0.62831,1.726891 h -1.62805 l 2.96248,-7.604485 h 1.62511 z"
           id="Fill-124"
           fill="#87888a"
           style="fill:#ffffff;fill-opacity:1" />
        <polygon
           id="Fill-126"
           fill="#87888a"
           points="144.85872,26.701383 146.28565,26.701383 146.28565,34.305869 144.74569,34.305869 141.67751,29.348208 141.67751,34.305869 140.25058,34.305869 140.25058,26.701383 141.74504,26.701383 144.85872,31.779354 "
           style="fill:#ffffff;fill-opacity:1" />
        <path
           d="m 150.85224,26.70197 h 1.53556 v 4.119891 c 0,0.652903 0.0206,1.075456 0.0573,1.269126 0.0661,0.312513 0.22314,0.561937 0.46977,0.749738 0.2481,0.187801 0.58575,0.283169 1.01441,0.283169 0.43601,0 0.76484,-0.0895 0.98652,-0.268497 0.22167,-0.177531 0.35379,-0.396143 0.3993,-0.655837 0.0455,-0.259694 0.0675,-0.689583 0.0675,-1.291134 V 26.70197 h 1.53556 v 3.995179 c 0,0.912597 -0.0411,1.556697 -0.12479,1.933767 -0.0822,0.37707 -0.23488,0.695452 -0.45802,0.953678 -0.22314,0.259694 -0.52262,0.466569 -0.8955,0.619158 -0.37288,0.155523 -0.86173,0.231817 -1.46362,0.231817 -0.72668,0 -1.27719,-0.08363 -1.653,-0.250891 -0.37435,-0.168727 -0.67236,-0.385873 -0.88963,-0.65437 -0.21727,-0.26703 -0.36113,-0.548732 -0.43013,-0.842171 -0.10129,-0.435758 -0.15121,-1.078391 -0.15121,-1.929365 z"
           id="Fill-128"
           fill="#87888a"
           style="fill:#ffffff;fill-opacity:1" />
        <polygon
           id="Fill-130"
           fill="#87888a"
           points="163.16107,26.701383 164.588,26.701383 164.588,34.305869 163.04804,34.305869 159.97986,29.348208 159.97986,34.305869 158.55293,34.305869 158.55293,26.701383 160.04739,26.701383 163.16107,31.779354 "
           style="fill:#ffffff;fill-opacity:1" />
        <polygon
           id="Fill-132"
           fill="#87888a"
           points="166.1676,34.306016 167.70315,34.306016 167.70315,26.70153 166.1676,26.70153 "
           style="fill:#ffffff;fill-opacity:1" />
        <path
           d="m 170.43692,30.498931 c 0,0.861245 0.19965,1.514148 0.59748,1.958709 0.39784,0.444561 0.90284,0.666108 1.51501,0.666108 0.61217,0 1.11423,-0.22008 1.50766,-0.661707 0.39197,-0.440159 0.58868,-1.101865 0.58868,-1.983651 0,-0.870048 -0.19084,-1.521484 -0.57253,-1.949905 -0.38315,-0.429889 -0.89109,-0.642633 -1.52381,-0.642633 -0.63272,0 -1.1436,0.215678 -1.53116,0.649969 -0.38755,0.43429 -0.58133,1.08866 -0.58133,1.96311 m -1.58254,0.05135 c 0,-0.773213 0.11598,-1.424649 0.34792,-1.949906 0.17323,-0.38734 0.40958,-0.733599 0.70906,-1.04171 0.29801,-0.308112 0.62538,-0.535527 0.98211,-0.685181 0.47418,-0.199539 1.02028,-0.300776 1.63979,-0.300776 1.12157,0 2.01854,0.347726 2.6909,1.043178 0.67235,0.695451 1.01,1.660867 1.01,2.899182 0,1.228045 -0.33471,2.187592 -1.0012,2.881576 -0.66795,0.692518 -1.56051,1.038776 -2.67915,1.038776 -1.13038,0 -2.03028,-0.344791 -2.69823,-1.034374 -0.66796,-0.689583 -1.0012,-1.640327 -1.0012,-2.850765"
           id="Fill-134"
           fill="#87888a"
           style="fill:#ffffff;fill-opacity:1" />
        <polygon
           id="Fill-135"
           fill="#87888a"
           points="182.05548,26.701383 183.4824,26.701383 183.4824,34.305869 181.94244,34.305869 178.87426,29.348208 178.87426,34.305869 177.44734,34.305869 177.44734,26.701383 178.94179,26.701383 182.05548,31.779354 "
           style="fill:#ffffff;fill-opacity:1" />
      </g>
    </g>
  </g>
  <metadata
     id="metadata1002">
    <rdf:RDF>
      <cc:Work
         rdf:about="">
        <dc:title>Group 7</dc:title>
      </cc:Work>
    </rdf:RDF>
  </metadata>
</svg>
